{"glyphs":{"0":{"ha":481,"x_min":0,"x_max":0,"o":"m 454 424 l 454 822 l 304 788 l 304 454 z m 63 731 l 63 501 l 213 472 l 213 765 z m 190 1003 b 232 1078 190 1050 210 1078 b 282 1003 263 1078 282 1050 l 282 799 l 432 835 l 432 981 b 235 1219 432 1164 360 1219 b 40 981 111 1219 40 1164 l 40 742 l 190 778 z m 40 490 l 40 217 b 228 -14 40 60 121 -14 b 432 217 361 -14 432 58 l 432 413 l 282 442 l 282 217 b 239 128 282 183 279 128 b 190 224 193 128 190 178 l 190 461 z "},"1":{"ha":481,"x_min":0,"x_max":0,"o":"m 350 493 l 350 778 l 203 728 l 203 506 z m 328 790 l 328 1157 b 278 1207 328 1185 306 1207 l 246 1207 b 196 1172 222 1207 207 1193 b 92 1067 169 1125 133 1097 b 69 1025 78 1057 69 1043 l 69 964 b 118 918 69 932 92 918 b 161 929 132 918 147 922 b 181 940 172 935 181 940 l 181 740 z m 390 83 b 340 133 390 111 368 133 l 328 133 l 328 482 l 181 494 l 181 133 l 150 133 b 100 83 122 133 100 111 l 100 50 b 150 0 100 22 122 0 l 340 0 b 390 50 368 0 390 22 z "},"2":{"ha":481,"x_min":0,"x_max":0,"o":"m 260 324 b 419 711 301 449 375 568 l 251 675 b 171 504 228 621 199 565 z m 397 722 b 432 946 418 790 432 864 b 257 1219 432 1086 403 1219 b 40 968 106 1219 40 1151 l 40 872 b 90 822 40 844 63 822 l 140 822 b 190 872 168 822 190 844 l 190 989 b 240 1078 190 1043 204 1078 b 282 989 271 1078 282 1053 l 282 879 b 231 686 282 818 261 756 z m 204 142 b 236 311 206 200 218 257 l 147 492 b 40 75 92 372 40 236 l 40 50 b 90 0 40 22 63 0 l 376 0 b 426 50 404 0 426 22 l 426 92 b 376 142 426 119 404 142 z "},"3":{"ha":481,"x_min":0,"x_max":0,"o":"m 454 221 l 454 478 b 335 649 454 553 447 604 l 335 654 b 454 828 435 682 454 754 l 454 931 l 304 846 l 304 840 b 269 733 304 792 297 751 b 213 669 239 714 213 706 l 213 604 b 235 582 213 592 222 582 b 304 486 278 582 304 557 l 304 389 z m 432 942 l 432 988 b 240 1219 432 1119 383 1219 b 40 978 111 1219 40 1160 l 40 918 b 90 868 40 890 63 868 l 140 868 b 190 918 168 868 190 890 l 190 964 b 240 1078 193 1011 183 1078 b 282 976 278 1078 282 1035 l 282 858 z m 40 268 b 236 -14 40 99 74 -14 b 432 208 349 -14 426 33 l 282 376 l 282 219 b 232 128 282 136 260 128 b 190 256 214 128 190 139 l 190 386 b 140 436 190 414 168 436 l 90 436 b 40 386 63 436 40 414 z "},"4":{"ha":481,"x_min":0,"x_max":0,"o":"m 194 576 b 236 761 210 636 224 700 l 239 776 l 107 718 l 82 615 z m 292 800 l 292 543 l 435 493 l 435 864 z m 75 729 l 208 789 b 256 1056 225 876 242 965 l 260 1056 l 260 813 l 403 876 l 403 1156 b 353 1206 403 1183 381 1206 l 229 1206 b 181 1167 206 1206 186 1190 z m 260 531 l 260 443 l 132 443 b 163 564 143 483 153 524 l 50 603 l 7 425 l 7 351 b 57 301 7 324 29 301 l 260 301 l 260 50 b 310 0 260 22 282 0 l 353 0 b 403 50 381 0 403 22 l 403 301 l 411 301 b 461 351 439 301 461 324 l 461 393 b 411 443 461 421 439 443 l 403 443 l 403 482 z "},"5":{"ha":481,"x_min":0,"x_max":0,"o":"m 454 451 l 454 528 b 328 754 454 646 433 754 b 218 703 286 754 249 732 l 235 858 l 90 803 l 72 629 l 72 624 b 117 575 72 599 90 578 l 196 567 b 224 586 210 567 217 578 b 258 601 231 597 242 601 b 304 521 296 601 304 565 l 304 471 z m 213 869 l 233 1064 l 372 1064 b 422 1114 400 1064 422 1086 l 422 1156 b 372 1206 422 1183 400 1206 l 157 1206 b 107 1161 132 1206 110 1186 l 69 814 z m 40 189 b 229 -14 40 33 132 -14 b 432 231 394 -14 432 94 l 432 440 l 282 460 l 282 215 b 242 128 282 169 279 128 b 190 215 193 128 190 169 l 190 344 b 140 394 190 372 168 394 l 90 394 b 40 344 63 394 40 372 z "},"6":{"ha":481,"x_min":0,"x_max":0,"o":"m 190 788 l 190 1003 b 236 1078 190 1044 196 1078 b 282 1003 278 1078 282 1044 l 282 849 b 332 799 282 821 304 799 l 382 799 b 432 849 410 799 432 821 l 432 975 b 239 1219 432 1129 382 1219 b 40 981 99 1219 40 1128 l 40 726 z m 282 321 l 282 206 b 240 128 282 169 281 128 b 190 228 190 128 190 181 l 190 354 l 40 410 l 40 207 b 233 -14 40 64 106 -14 b 432 219 403 -14 432 97 l 432 267 z m 451 476 b 322 665 451 639 381 665 b 210 608 281 665 236 642 l 210 774 l 60 711 l 60 424 l 210 369 l 210 435 b 253 506 210 469 218 506 b 301 435 293 506 301 476 l 301 336 l 451 282 z "},"7":{"ha":481,"x_min":0,"x_max":0,"o":"m 264 728 l 219 522 l 361 460 l 424 757 z m 294 1064 l 224 739 l 383 769 l 444 1060 l 444 1156 b 394 1206 444 1183 422 1206 l 78 1206 b 28 1156 50 1206 28 1183 l 28 1114 b 78 1064 28 1086 50 1064 z m 178 511 l 79 61 b 78 50 78 57 78 54 b 128 0 78 22 100 0 l 185 0 b 233 40 208 0 228 17 l 319 449 z "},"8":{"ha":481,"x_min":0,"x_max":0,"o":"m 324 818 b 282 746 324 767 306 746 b 232 807 247 746 235 757 l 86 783 b 203 663 97 719 125 672 b 82 496 104 633 85 572 l 232 465 l 232 519 b 276 585 232 550 240 585 b 324 519 313 585 324 550 l 324 446 l 474 415 l 474 528 b 354 667 474 571 444 635 b 474 846 444 674 471 767 z m 432 857 b 431 868 432 861 432 864 l 431 993 b 229 1219 429 1164 326 1219 b 40 993 151 1219 40 1175 l 40 850 b 44 794 40 831 42 813 l 190 818 l 190 1001 b 236 1078 190 1044 200 1078 b 282 1001 269 1078 282 1063 l 282 833 z m 282 435 l 282 214 b 239 128 282 178 281 128 b 190 214 208 128 190 157 l 190 454 l 40 486 l 40 203 b 232 -14 40 64 114 -14 b 432 178 354 -14 432 64 l 432 404 z "},"9":{"ha":481,"x_min":0,"x_max":0,"o":"m 64 672 l 456 613 l 456 847 l 306 811 l 306 724 b 263 653 306 688 297 653 b 214 724 222 653 214 682 l 214 789 l 64 753 z m 190 800 l 190 1011 b 232 1088 190 1046 192 1088 b 282 988 282 1088 282 1036 l 282 822 l 432 858 l 432 1010 b 239 1229 432 1153 367 1229 b 40 996 69 1229 40 1119 l 40 764 z m 40 661 b 169 483 43 508 113 483 b 282 540 211 483 256 507 l 282 214 b 235 139 282 172 276 139 b 190 214 193 139 190 172 l 190 310 b 140 360 190 338 168 360 l 90 360 b 40 310 63 360 40 338 l 40 242 b 233 -3 40 86 90 -3 b 432 235 374 -3 432 89 l 432 600 z "}," ":{"ha":235,"x_min":0,"x_max":0,"o":""},"!":{"ha":297,"x_min":0,"x_max":0,"o":"m 50 89 b 143 -3 50 39 93 -3 b 236 89 194 -3 236 39 b 143 183 236 140 194 183 b 50 89 93 183 50 140 z m 201 303 l 206 468 l 83 479 l 88 303 b 138 254 89 275 110 254 l 151 254 b 201 303 178 254 200 275 z m 122 490 l 244 479 l 253 839 l 114 800 z m 75 801 l 214 840 l 222 1143 b 172 1204 224 1171 200 1204 l 117 1204 b 67 1143 89 1204 65 1171 z "},"\"":{"ha":481,"x_min":0,"x_max":0,"o":"m 315 735 l 367 735 b 389 756 379 735 389 744 l 403 1163 b 381 1186 403 1175 393 1186 l 301 1186 b 279 1163 289 1186 279 1175 l 293 756 b 315 735 293 744 303 735 z m 103 735 l 154 735 b 176 756 167 735 176 744 l 190 1163 b 168 1186 190 1175 181 1186 l 89 1186 b 67 1163 76 1186 67 1175 l 81 756 b 103 735 81 744 90 735 z "},"#":{"ha":540,"x_min":0,"x_max":0,"o":"m 263 910 l 313 1179 b 290 1206 315 1193 304 1206 l 243 1206 b 221 1188 232 1206 222 1199 l 167 896 z m 456 939 l 499 1179 b 476 1206 501 1193 490 1206 l 432 1206 b 410 1188 421 1206 411 1199 l 363 925 z m 246 304 l 193 26 b 215 0 190 13 201 0 l 261 0 b 283 18 272 0 281 7 l 333 293 z m 60 328 l 0 26 b 22 0 -3 13 8 0 l 74 0 b 96 18 85 0 93 7 l 153 315 z m 324 517 l 229 517 l 257 681 l 353 681 z m 547 779 l 465 779 l 494 938 l 401 924 l 374 779 l 276 779 l 301 908 l 206 893 l 183 779 l 79 779 b 58 761 69 779 60 772 l 47 707 b 69 681 44 693 56 681 l 161 681 l 133 517 l 31 517 b 10 499 21 517 11 510 l -3 442 b 19 415 -6 428 6 415 l 114 415 l 99 339 l 192 328 l 208 415 l 304 415 l 285 315 l 374 304 l 393 415 l 488 415 b 510 433 499 415 507 422 l 522 490 b 500 517 525 504 515 517 l 415 517 l 442 681 l 536 681 b 557 697 546 681 554 688 l 569 751 b 547 779 572 765 563 779 z "},"$":{"ha":481,"x_min":0,"x_max":0,"o":"m 222 1253 b 200 1231 210 1253 200 1243 l 200 1178 b 36 979 106 1158 56 1088 l 36 838 b 63 724 36 794 44 751 l 79 696 l 229 763 b 192 861 196 813 192 836 l 192 979 b 239 1026 192 1010 203 1026 b 283 954 276 1026 283 1018 l 283 868 b 333 818 283 840 306 818 l 383 818 b 433 868 411 818 433 840 l 433 993 b 389 1119 433 1044 417 1088 b 279 1178 361 1150 324 1178 l 279 1231 b 257 1253 279 1243 269 1253 z m 213 474 l 253 410 b 279 314 278 368 279 347 l 279 193 b 239 142 279 165 268 142 b 186 233 189 142 186 182 l 186 344 b 136 394 186 372 164 394 l 86 394 b 36 344 58 394 36 372 l 36 181 b 74 49 36 128 49 82 b 183 0 97 18 135 0 l 193 0 l 193 -62 b 215 -85 193 -75 203 -85 l 251 -85 b 274 -62 264 -85 274 -75 l 274 0 b 433 178 389 8 422 75 l 433 340 b 415 463 433 390 429 425 z m 119 694 l 250 485 l 454 474 b 413 550 444 497 432 521 l 268 761 z "},"&":{"ha":578,"x_min":0,"x_max":0,"o":"m 314 997 b 263 847 314 946 293 896 b 233 1031 233 936 233 996 l 233 1053 b 275 1104 233 1083 250 1104 b 314 1054 297 1104 314 1083 z m 408 865 b 432 1036 424 914 432 968 b 274 1229 432 1164 378 1229 b 94 1038 167 1229 94 1160 b 139 769 94 926 108 865 z m 328 201 b 243 124 306 157 274 124 b 200 225 208 124 200 156 l 200 433 b 219 543 200 478 200 517 z m 546 40 l 546 113 b 521 133 546 126 533 133 l 515 133 b 465 194 501 133 486 133 b 518 526 501 300 518 410 b 469 578 518 556 496 578 l 431 576 b 411 551 418 575 411 564 b 400 401 410 496 408 447 l 340 585 l 74 594 b 50 442 57 551 50 501 l 50 210 b 233 -17 50 67 125 -17 b 369 72 286 -17 335 21 b 479 -8 393 22 431 -8 b 546 40 510 -8 546 6 z m 378 596 l 351 681 b 447 853 396 738 428 790 l 178 757 b 192 715 182 744 186 729 b 113 606 156 685 129 650 z "},"’":{"ha":244,"x_min":0,"x_max":0,"o":"m 140 850 l 215 1019 l 215 1164 b 193 1186 215 1176 206 1186 l 96 1186 b 74 1164 83 1186 74 1176 l 74 1024 b 96 1001 74 1011 83 1001 l 132 1001 l 81 868 b 79 860 79 865 79 863 b 101 838 79 847 89 838 l 121 838 b 140 850 129 838 138 843 z "},"(":{"ha":244,"x_min":0,"x_max":0,"o":"m 126 1174 b 35 785 82 1047 51 914 l 167 844 b 239 1139 183 940 207 1044 b 242 1154 240 1144 242 1149 b 190 1207 242 1181 219 1207 l 174 1207 b 126 1174 153 1207 133 1194 z m 39 225 b 132 -131 56 101 85 -18 b 176 -160 139 -149 157 -160 l 193 -160 b 244 -108 222 -160 244 -136 b 242 -90 244 -103 244 -96 b 171 182 210 -3 186 89 z m 74 783 b 58 550 63 707 58 629 b 76 238 58 446 63 340 l 208 194 b 182 550 190 311 182 429 b 206 842 182 650 190 747 z "},")":{"ha":244,"x_min":0,"x_max":0,"o":"m 111 1174 b 64 1207 104 1194 85 1207 l 47 1207 b -4 1154 18 1207 -4 1181 b -1 1139 -4 1149 -3 1144 b 71 844 31 1044 54 940 l 203 785 b 111 1174 186 914 156 1047 z m 67 182 b -4 -90 51 89 28 -3 b -7 -108 -7 -96 -7 -103 b 44 -160 -7 -136 15 -160 l 61 -160 b 106 -131 81 -160 99 -149 b 199 225 153 -18 182 101 z m 32 842 b 56 550 47 747 56 650 b 29 194 56 429 47 311 l 161 238 b 179 550 175 340 179 446 b 164 783 179 629 175 707 z "},"*":{"ha":454,"x_min":0,"x_max":0,"o":"m 275 781 l 257 911 l 346 838 b 379 843 357 829 372 832 l 410 896 b 399 928 417 907 411 922 l 290 972 l 399 1021 b 408 1051 411 1026 415 1040 l 379 1103 b 344 1108 371 1115 356 1118 l 261 1032 l 275 1161 b 253 1186 276 1175 265 1186 l 193 1186 b 171 1160 179 1186 168 1174 l 194 1026 l 99 1110 b 65 1104 88 1118 72 1115 l 33 1053 b 44 1021 26 1042 32 1026 l 163 972 l 47 928 b 36 896 35 922 29 907 l 65 843 b 99 838 72 832 89 829 l 189 911 l 171 781 b 193 756 169 767 179 756 l 253 756 b 275 781 267 756 276 768 z "},"+":{"ha":717,"x_min":0,"x_max":0,"o":"m 428 650 l 428 754 b 406 776 428 767 418 776 l 303 776 b 281 754 290 776 281 767 l 281 625 z m 281 399 l 281 254 b 303 232 281 242 290 232 l 406 232 b 428 254 418 232 428 242 l 428 361 z m 575 426 b 597 449 588 426 597 436 l 597 561 b 575 583 597 574 588 583 l 447 583 l 447 638 l 300 613 l 300 583 l 172 583 b 150 561 160 583 150 574 l 150 449 b 172 426 150 436 160 426 l 300 426 l 300 410 l 447 374 l 447 426 z "},",":{"ha":233,"x_min":0,"x_max":0,"o":"m 108 -193 l 183 18 l 183 218 b 161 240 183 231 174 240 l 64 240 b 42 218 51 240 42 231 l 42 22 b 64 0 42 10 51 0 l 100 0 l 46 -179 b 67 -208 42 -194 53 -208 l 88 -208 b 108 -193 97 -208 104 -203 z "},"-":{"ha":314,"x_min":0,"x_max":0,"o":"m 50 440 l 256 440 b 278 463 268 440 278 450 l 278 538 b 256 560 278 550 268 560 l 50 560 b 28 538 38 560 28 550 l 28 463 b 50 440 28 450 38 440 z "},".":{"ha":243,"x_min":0,"x_max":0,"o":"m 32 79 b 117 -4 32 33 71 -4 b 201 79 164 -4 201 33 b 117 165 201 126 164 165 b 32 79 71 165 32 126 z "},"/":{"ha":403,"x_min":0,"x_max":0,"o":"m 238 882 l 319 917 l 397 1201 b 399 1207 397 1203 399 1206 b 376 1229 399 1218 389 1229 l 349 1229 b 328 1213 339 1229 331 1222 z m 118 447 l -6 4 b -7 -3 -6 1 -7 0 b 15 -24 -7 -14 3 -24 l 44 -24 b 65 -7 54 -24 63 -17 l 190 444 z m 275 879 l 158 458 l 231 456 l 358 914 z "},":":{"ha":243,"x_min":0,"x_max":0,"o":"m 22 743 b 107 660 22 697 61 660 b 192 743 154 660 192 697 b 107 829 192 790 154 829 b 22 743 61 829 22 790 z m 22 168 b 107 85 22 122 61 85 b 192 168 154 85 192 122 b 107 254 192 215 154 254 b 22 168 61 254 22 215 z "},";":{"ha":243,"x_min":0,"x_max":0,"o":"m 26 743 b 111 660 26 697 65 660 b 196 743 158 660 196 697 b 111 829 196 790 158 829 b 26 743 65 829 26 790 z m 108 -193 l 183 18 l 183 218 b 161 240 183 231 174 240 l 64 240 b 42 218 51 240 42 231 l 42 22 b 64 0 42 10 51 0 l 100 0 l 46 -179 b 67 -208 42 -194 53 -208 l 88 -208 b 108 -193 97 -208 104 -203 z "},"<":{"ha":457,"x_min":0,"x_max":0,"o":"m 44 413 b 60 376 44 399 50 386 l 346 101 b 360 96 350 97 354 96 b 383 117 371 96 383 104 l 383 258 b 367 296 383 272 378 286 l 165 474 l 44 446 z m 213 496 l 415 675 b 432 713 426 685 432 697 l 432 851 b 408 874 432 864 419 874 b 394 868 403 874 399 872 l 108 592 b 93 557 99 582 93 571 l 93 467 z "},"=":{"ha":774,"x_min":0,"x_max":0,"o":"m 624 719 l 126 719 b 76 669 99 719 76 697 l 76 624 b 126 574 76 596 99 574 l 624 574 b 674 624 651 574 674 596 l 674 669 b 624 719 674 697 651 719 z m 624 381 l 126 381 b 76 331 99 381 76 358 l 76 283 b 126 233 76 256 99 233 l 624 233 b 674 283 651 233 674 256 l 674 331 b 624 381 674 358 651 381 z "},">":{"ha":457,"x_min":0,"x_max":0,"o":"m 411 446 l 290 474 l 89 296 b 72 258 78 286 72 272 l 72 117 b 96 96 72 104 85 96 b 110 101 101 96 106 97 l 396 376 b 411 413 406 386 411 399 z m 363 467 l 363 557 b 347 592 363 571 357 582 l 61 868 b 47 874 57 872 53 874 b 24 851 36 874 24 864 l 24 713 b 40 675 24 697 29 685 l 243 496 z "},"?":{"ha":400,"x_min":0,"x_max":0,"o":"m 151 1046 b 188 1100 151 1088 161 1100 b 225 1050 222 1100 225 1088 l 225 792 l 358 849 l 358 1024 b 183 1207 358 1163 289 1207 b 18 1047 72 1207 18 1147 l 18 857 b 68 807 18 829 40 807 l 101 807 b 151 857 129 807 151 829 z m 156 538 l 86 393 l 86 304 b 136 254 86 276 108 254 l 175 254 b 225 304 203 254 225 276 l 225 393 l 274 499 z m 61 89 b 154 -3 61 39 104 -3 b 247 89 206 -3 247 39 b 154 183 247 140 206 183 b 61 89 104 183 61 140 z m 264 790 l 264 682 l 194 539 l 313 500 l 397 682 l 397 846 z "},"@":{"ha":918,"x_min":0,"x_max":0,"o":"m 811 890 b 457 1219 758 1093 638 1219 b 78 654 228 1219 89 1010 l 176 686 b 457 1132 190 975 282 1132 b 721 861 588 1132 681 1040 z m 615 826 b 468 978 610 939 557 978 b 315 919 411 978 358 956 b 307 903 310 915 307 910 b 310 893 307 899 308 896 l 336 847 b 353 838 340 840 346 838 b 375 844 360 838 368 840 b 447 869 403 863 421 869 b 501 790 493 869 501 847 z m 732 426 b 672 350 721 368 701 350 b 618 431 643 350 624 381 l 501 431 l 501 408 b 449 381 489 393 475 381 b 401 436 422 381 408 396 l 285 436 b 418 272 296 326 340 272 b 547 339 467 272 504 293 b 678 263 571 304 611 263 b 828 424 754 263 806 303 z m 85 440 b 457 -18 119 150 251 -18 b 636 35 526 -18 589 3 b 644 50 642 39 644 44 b 640 63 644 54 643 58 l 619 97 b 603 110 615 104 611 110 b 588 106 599 110 592 108 b 465 69 553 85 513 69 b 183 438 299 69 208 199 z m 117 651 b 115 606 115 636 115 621 b 124 450 115 551 118 500 l 222 450 b 214 607 217 497 214 550 b 215 683 214 633 215 658 z m 881 622 b 850 888 881 719 871 810 l 760 858 b 782 624 775 792 782 714 b 771 435 782 538 779 478 l 867 435 b 881 622 876 483 881 546 z m 440 444 b 436 506 438 461 436 481 b 488 621 436 590 449 621 b 540 604 517 621 525 615 l 540 440 l 657 440 b 654 476 656 451 654 464 l 654 825 l 540 789 l 540 704 b 460 729 517 722 497 729 b 321 503 371 729 321 657 b 324 447 321 483 322 464 z "},"A":{"ha":481,"x_min":0,"x_max":0,"o":"m 456 314 l 410 790 l 276 736 l 292 486 l 214 486 l 231 718 l 93 663 l 69 414 z m 210 733 l 228 989 l 239 989 l 254 751 l 388 806 l 353 1160 b 304 1206 350 1186 329 1206 l 168 1206 b 118 1160 142 1206 121 1186 l 72 678 z m 100 0 b 150 44 125 0 147 19 l 176 322 l 283 322 l 307 46 b 357 0 310 19 332 0 l 408 0 b 458 50 436 0 458 22 l 458 54 l 435 299 l 47 399 l 14 54 l 14 50 b 64 0 14 22 36 0 z "},"B":{"ha":481,"x_min":0,"x_max":0,"o":"m 211 326 l 211 563 l 240 563 b 303 469 283 563 303 543 l 303 307 l 453 276 l 453 449 b 310 633 453 582 404 611 l 310 639 b 449 794 396 663 449 692 l 449 906 l 299 833 l 299 793 b 244 704 299 725 283 704 l 211 704 l 211 792 l 61 721 l 61 358 z m 189 808 l 189 1071 l 222 1071 b 276 983 261 1071 276 1051 l 276 850 l 426 921 l 426 993 b 251 1206 426 1119 372 1206 l 89 1206 b 39 1156 61 1206 39 1183 l 39 738 z m 249 0 b 431 250 375 0 431 108 l 431 261 l 281 292 l 281 235 b 218 142 281 161 261 142 l 189 142 l 189 311 l 39 343 l 39 50 b 89 0 39 22 61 0 z "},"C":{"ha":481,"x_min":0,"x_max":0,"o":"m 63 676 l 63 481 l 213 444 l 213 740 z m 432 1029 b 235 1229 432 1185 328 1229 b 40 1029 143 1229 40 1185 l 40 692 l 190 756 l 190 1014 b 236 1088 190 1075 206 1088 b 282 1014 267 1088 282 1075 l 282 864 b 332 814 282 836 304 814 l 382 814 b 432 864 410 814 432 836 z m 40 465 l 40 176 b 235 -24 40 22 143 -24 b 432 176 328 -24 432 22 l 432 357 b 382 407 432 385 410 407 l 332 407 b 282 357 304 407 282 385 l 282 192 b 236 118 282 132 267 118 b 190 192 206 118 190 132 l 190 429 z "},"D":{"ha":481,"x_min":0,"x_max":0,"o":"m 454 361 l 454 779 l 304 736 l 304 397 z m 213 418 l 213 710 l 63 667 l 63 454 z m 190 725 l 190 1064 l 225 1064 b 282 976 264 1064 282 1053 l 282 751 l 432 796 l 432 938 b 221 1206 432 1146 369 1206 l 90 1206 b 40 1156 63 1206 40 1183 l 40 682 z m 254 0 b 432 215 369 0 432 101 l 432 346 l 282 382 l 282 231 b 225 142 282 153 264 142 l 190 142 l 190 403 l 40 438 l 40 50 b 90 0 40 22 63 0 z "},"E":{"ha":414,"x_min":0,"x_max":0,"o":"m 215 365 l 215 582 l 329 582 b 379 632 357 582 379 604 l 379 686 b 329 736 379 714 357 736 l 215 736 l 215 858 l 65 796 l 65 408 z m 193 875 l 193 1051 l 328 1051 b 378 1101 356 1051 378 1074 l 378 1156 b 328 1206 378 1183 356 1206 l 93 1206 b 43 1156 65 1206 43 1183 l 43 811 z m 396 106 b 346 156 396 133 374 156 l 193 156 l 193 350 l 43 393 l 43 50 b 93 0 43 22 65 0 l 346 0 b 396 50 374 0 396 22 z "},"F":{"ha":403,"x_min":0,"x_max":0,"o":"m 215 294 l 215 582 l 332 582 b 382 632 360 582 382 604 l 382 686 b 332 736 382 714 360 736 l 215 736 l 215 857 l 65 807 l 65 364 z m 193 872 l 193 1051 l 332 1051 b 382 1101 360 1051 382 1074 l 382 1156 b 332 1206 382 1183 360 1206 l 93 1206 b 43 1156 65 1206 43 1183 l 43 822 z m 193 279 l 43 347 l 43 50 b 93 0 43 22 65 0 l 143 0 b 193 50 171 0 193 22 z "},"G":{"ha":481,"x_min":0,"x_max":0,"o":"m 213 354 l 213 724 l 63 656 l 63 406 z m 293 646 b 243 596 265 646 243 624 l 243 554 b 293 504 243 526 265 504 l 304 504 l 304 324 l 454 272 l 454 596 b 404 646 454 624 432 646 z m 190 739 l 190 1014 b 236 1088 190 1075 206 1088 b 282 1014 267 1088 282 1075 l 282 878 b 332 828 282 850 304 828 l 382 828 b 432 878 410 828 432 850 l 432 1029 b 235 1229 432 1185 328 1229 b 40 1029 143 1229 40 1185 l 40 672 z m 282 308 l 282 192 b 236 118 282 132 267 118 b 190 192 206 118 190 132 l 190 339 l 40 390 l 40 176 b 235 -24 40 21 143 -24 b 432 176 328 -24 432 21 l 432 257 z "},"H":{"ha":481,"x_min":0,"x_max":0,"o":"m 215 438 l 215 558 l 300 558 l 300 418 l 450 383 l 450 908 l 300 849 l 300 714 l 215 714 l 215 815 l 65 757 l 65 472 z m 428 924 l 428 1156 b 378 1206 428 1183 406 1206 l 328 1206 b 278 1156 300 1206 278 1183 l 278 864 z m 193 832 l 193 1156 b 143 1206 193 1183 171 1206 l 93 1206 b 43 1156 65 1206 43 1183 l 43 772 z m 278 403 l 278 50 b 328 0 278 22 300 0 l 378 0 b 428 50 406 0 428 22 l 428 368 z m 193 422 l 43 457 l 43 50 b 93 0 43 22 65 0 l 143 0 b 193 50 171 0 193 22 z "},"I":{"ha":244,"x_min":0,"x_max":0,"o":"m 215 444 l 215 807 l 65 767 l 65 464 z m 193 822 l 193 1156 b 143 1206 193 1183 171 1206 l 93 1206 b 43 1156 65 1206 43 1183 l 43 782 z m 193 428 l 43 449 l 43 50 b 93 0 43 22 65 0 l 143 0 b 193 50 171 0 193 22 z "},"J":{"ha":481,"x_min":0,"x_max":0,"o":"m 300 724 l 300 444 l 450 388 l 450 785 z m 278 740 l 428 800 l 428 1156 b 378 1206 428 1183 406 1206 l 328 1206 b 278 1156 300 1206 278 1183 z m 278 429 l 278 203 b 236 118 278 125 256 118 b 193 203 217 118 193 125 l 193 344 b 143 394 193 372 171 394 l 93 394 b 43 344 65 394 43 372 l 43 199 b 232 -24 43 68 122 -24 b 428 181 318 -24 428 24 l 428 371 z "},"K":{"ha":481,"x_min":0,"x_max":0,"o":"m 253 924 l 407 958 l 447 1144 b 397 1206 454 1176 429 1206 l 353 1206 b 304 1165 329 1206 308 1189 z m 43 876 l 193 910 l 193 1156 b 143 1206 193 1183 171 1206 l 93 1206 b 43 1156 65 1206 43 1183 z m 82 404 l 232 388 l 232 611 l 238 611 l 279 382 l 436 364 l 383 654 l 446 947 l 292 913 l 238 661 l 232 661 l 232 899 l 82 865 z m 396 353 l 240 371 l 300 42 b 349 0 304 17 324 0 l 401 0 b 450 58 432 0 456 28 z m 193 50 l 193 376 l 43 393 l 43 50 b 93 0 43 22 65 0 l 143 0 b 193 50 171 0 193 22 z "},"L":{"ha":403,"x_min":0,"x_max":0,"o":"m 193 863 l 193 1156 b 143 1206 193 1183 171 1206 l 93 1206 b 43 1156 65 1206 43 1183 l 43 835 z m 232 486 l 232 851 l 82 824 l 82 543 z m 385 106 b 335 156 385 133 363 156 l 193 156 l 193 474 l 43 532 l 43 50 b 93 0 43 22 65 0 l 335 0 b 385 50 363 0 385 22 z "},"M":{"ha":689,"x_min":0,"x_max":0,"o":"m 486 833 b 499 988 490 899 496 956 l 504 988 b 500 838 503 936 501 886 l 631 882 l 631 1156 b 581 1206 631 1183 608 1206 l 454 1206 b 404 1160 428 1206 407 1186 l 374 796 z m 315 776 l 278 1160 b 228 1206 275 1186 254 1206 l 101 1206 b 51 1156 74 1206 51 1183 l 51 689 l 183 732 l 183 756 b 176 988 183 828 178 917 l 183 988 b 204 739 189 924 197 829 z m 540 831 b 538 560 539 739 538 651 l 538 543 l 669 536 l 669 874 z m 90 681 l 90 571 l 222 563 l 222 725 z m 503 546 b 525 825 507 603 517 722 l 413 788 l 406 707 b 397 551 401 664 400 610 z m 375 553 b 360 710 371 618 365 674 l 354 768 l 244 732 b 257 585 249 679 253 629 l 261 560 z m 499 529 l 499 50 b 549 0 499 22 521 0 l 581 0 b 631 50 608 0 631 22 l 631 521 z m 51 556 l 51 50 b 101 0 51 22 74 0 l 133 0 b 183 50 161 0 183 22 l 183 547 z m 401 43 b 463 531 461 515 463 522 l 358 538 b 353 326 356 468 354 393 l 346 326 b 336 539 344 400 342 474 l 221 546 l 293 43 b 342 0 296 18 317 0 l 351 0 b 401 43 378 0 399 18 z "},"N":{"ha":560,"x_min":0,"x_max":0,"o":"m 507 924 l 507 1156 b 457 1206 507 1183 485 1206 l 433 1206 b 383 1156 406 1206 383 1183 l 383 892 z m 43 803 l 168 836 l 168 879 b 163 1033 165 929 163 981 l 169 1033 b 186 840 175 968 179 904 l 310 872 l 275 1161 b 225 1206 272 1188 250 1206 l 93 1206 b 43 1156 65 1206 43 1183 z m 82 793 l 82 583 l 207 572 l 207 826 z m 546 542 l 546 914 l 422 882 l 422 594 l 422 553 z m 225 831 b 253 604 232 757 240 682 l 258 568 l 390 556 b 350 856 379 657 365 757 l 349 863 z m 43 569 l 43 50 b 93 0 43 22 65 0 l 118 0 b 168 50 146 0 168 22 l 168 560 z m 219 554 l 293 43 b 342 0 296 18 317 0 l 457 0 b 507 50 485 0 507 22 l 507 529 l 383 540 b 389 236 385 439 389 336 l 389 174 l 382 174 b 351 543 375 296 364 419 z "},"O":{"ha":481,"x_min":0,"x_max":0,"o":"m 190 806 l 190 1014 b 236 1088 190 1075 206 1088 b 282 1014 267 1088 282 1075 l 282 824 l 432 854 l 432 1029 b 235 1229 432 1185 328 1229 b 40 1029 143 1229 40 1185 l 40 775 z m 471 539 l 471 843 l 321 813 l 321 571 z m 229 590 l 229 794 l 79 764 l 79 622 z m 40 176 b 235 -24 40 22 143 -24 b 432 176 328 -24 432 22 l 432 528 l 282 560 l 282 192 b 236 118 282 132 267 118 b 190 192 206 118 190 132 l 190 579 l 40 611 z "},"P":{"ha":481,"x_min":0,"x_max":0,"o":"m 432 975 b 197 1206 432 1147 353 1206 l 90 1206 b 40 1156 63 1206 40 1183 l 40 751 l 190 806 l 190 1064 l 217 1064 b 282 951 268 1064 282 1033 l 282 839 l 432 893 z m 321 829 l 321 660 b 229 607 321 607 272 607 l 229 796 l 79 742 l 79 560 l 411 511 b 471 708 450 550 471 615 l 471 883 z m 40 549 l 40 50 b 90 0 40 22 63 0 l 140 0 b 190 50 168 0 190 22 l 190 456 l 253 456 b 371 499 301 456 342 469 z "},"Q":{"ha":481,"x_min":0,"x_max":0,"o":"m 190 1013 b 236 1086 190 1074 206 1086 b 282 1013 267 1086 282 1074 l 282 803 l 432 853 l 432 1028 b 235 1228 432 1183 328 1228 b 40 1028 143 1228 40 1183 l 40 722 l 190 772 z m 471 460 l 471 843 l 321 792 l 321 474 z m 79 711 l 79 497 l 229 483 l 229 761 z m 40 485 l 40 175 b 235 -25 40 21 143 -25 b 351 4 275 -25 317 -17 l 393 -40 b 408 -47 397 -44 403 -47 b 422 -43 413 -47 418 -46 l 483 0 b 493 18 489 4 493 11 b 483 36 493 25 489 32 l 417 85 b 432 175 426 110 432 139 l 432 447 l 282 463 l 282 182 l 271 189 b 260 193 267 192 264 193 b 249 189 256 193 251 192 l 228 172 b 219 156 222 168 219 163 b 226 140 219 150 222 144 l 246 117 l 236 117 b 190 190 206 117 190 131 l 190 471 z "},"R":{"ha":481,"x_min":0,"x_max":0,"o":"m 190 903 l 190 1064 l 225 1064 b 282 1006 260 1064 282 1051 l 282 921 l 432 951 l 432 1003 b 239 1206 432 1156 358 1206 l 90 1206 b 40 1156 63 1206 40 1183 l 40 872 z m 431 690 b 471 825 464 724 471 771 l 471 940 l 321 910 l 321 782 b 301 718 321 754 317 732 z m 229 733 l 229 892 l 79 860 l 79 765 z m 190 564 l 257 519 b 282 476 272 511 282 494 l 282 143 l 294 43 b 344 0 297 18 318 0 l 393 0 b 443 49 421 0 443 22 l 443 56 l 432 146 l 432 510 b 368 603 432 551 407 588 l 283 633 b 389 679 333 640 367 657 l 261 707 b 218 694 251 699 238 694 l 190 694 l 190 722 l 40 754 l 40 50 b 90 0 40 22 63 0 l 140 0 b 190 50 168 0 190 22 z "},"S":{"ha":481,"x_min":0,"x_max":0,"o":"m 226 778 b 190 868 204 815 190 847 l 190 1014 b 236 1088 190 1075 206 1088 b 282 1014 267 1088 282 1075 l 282 876 b 332 826 282 849 304 826 l 382 826 b 432 876 410 826 432 849 l 432 1029 b 235 1229 432 1185 328 1229 b 40 1029 143 1229 40 1185 l 40 860 b 90 697 40 803 61 749 z m 393 578 b 267 772 351 646 300 715 l 129 690 b 192 594 147 658 169 626 z m 90 396 b 40 346 63 396 40 374 l 40 176 b 235 -24 40 22 143 -24 b 432 176 328 -24 432 22 l 432 386 b 356 563 432 431 397 494 l 154 578 l 167 560 b 282 317 225 478 282 397 l 282 192 b 236 118 282 132 267 118 b 190 192 206 118 190 132 l 190 346 b 140 396 190 374 168 396 z "},"T":{"ha":454,"x_min":0,"x_max":0,"o":"m 17 1101 b 67 1051 17 1074 39 1051 l 149 1051 l 149 733 l 299 772 l 299 1051 l 379 1051 b 429 1101 407 1051 429 1074 l 429 1156 b 379 1206 429 1183 407 1206 l 67 1206 b 17 1156 39 1206 17 1183 z m 188 722 l 188 436 l 338 403 l 338 761 z m 149 425 l 149 50 b 199 0 149 22 171 0 l 249 0 b 299 50 276 0 299 22 l 299 392 z "},"U":{"ha":481,"x_min":0,"x_max":0,"o":"m 190 804 l 190 1156 b 140 1206 190 1183 168 1206 l 90 1206 b 40 1156 63 1206 40 1183 l 40 772 z m 282 822 l 432 854 l 432 1156 b 382 1206 432 1183 410 1206 l 332 1206 b 282 1156 304 1206 282 1183 z m 229 524 l 229 792 l 79 761 l 79 564 z m 321 811 l 321 500 l 471 461 l 471 843 z m 282 489 l 282 192 b 236 118 282 132 267 118 b 190 192 206 118 190 132 l 190 513 l 40 553 l 40 176 b 235 -24 40 22 143 -24 b 432 176 328 -24 432 22 l 432 450 z "},"V":{"ha":481,"x_min":0,"x_max":0,"o":"m 444 1000 l 460 1150 l 460 1156 b 411 1206 460 1183 439 1206 l 360 1206 b 311 1160 335 1206 313 1186 l 292 925 z m 44 806 l 188 875 l 160 1160 b 111 1206 157 1186 136 1206 l 61 1206 b 11 1151 33 1206 11 1183 z m 440 554 l 483 988 l 331 914 l 303 581 z m 83 794 l 100 618 l 251 590 l 226 864 z m 61 607 l 115 46 b 165 0 118 19 139 0 l 301 0 b 351 44 326 0 349 19 l 401 543 l 264 569 b 240 225 256 454 246 340 l 236 225 b 211 579 228 311 219 460 z "},"W":{"ha":689,"x_min":0,"x_max":0,"o":"m 636 858 l 661 1156 b 611 1206 661 1183 639 1206 l 590 1206 b 540 1160 564 1206 542 1186 l 515 824 z m 342 774 b 351 904 344 818 347 861 l 358 904 b 361 779 358 863 360 821 l 463 808 l 439 1158 b 389 1206 438 1185 415 1206 l 319 1206 b 269 1160 293 1206 272 1186 l 236 744 z m 200 733 b 197 775 199 749 197 761 l 169 1160 b 119 1206 168 1186 146 1206 l 68 1206 b 18 1151 40 1206 18 1183 l 53 692 z m 656 625 l 675 854 l 553 818 l 544 699 b 539 618 542 678 540 650 z m 400 775 b 408 613 401 721 406 667 l 511 617 b 507 733 510 660 510 699 l 501 804 z m 369 610 b 379 763 374 660 376 711 l 379 769 l 275 739 l 269 606 z m 243 604 b 238 728 242 649 240 690 l 92 686 l 99 596 z m 369 594 b 400 47 372 539 374 482 b 450 0 401 21 424 0 l 519 0 b 569 46 546 0 567 19 l 617 607 l 500 601 b 490 222 494 483 493 314 l 483 222 b 474 600 481 319 478 469 z m 324 493 b 331 593 326 526 329 560 l 231 588 b 222 222 226 458 222 319 l 215 222 b 206 586 214 317 210 460 l 60 579 l 101 46 b 151 0 104 19 125 0 l 235 0 b 285 46 261 0 282 19 z "},"X":{"ha":481,"x_min":0,"x_max":0,"o":"m 406 926 l 456 1144 b 457 1156 457 1149 457 1151 b 407 1206 457 1183 435 1206 l 368 1206 b 318 1167 343 1206 322 1189 l 263 883 z m 224 872 b 178 1165 211 971 194 1068 b 128 1206 174 1189 153 1206 l 74 1206 b 24 1154 46 1206 24 1181 b 25 1146 24 1151 25 1149 l 86 832 z m 410 531 l 386 654 l 444 915 l 301 872 b 285 728 293 825 288 776 l 279 728 b 264 861 275 772 269 817 l 126 821 l 168 610 l 156 551 z m 150 40 b 231 518 183 199 226 357 b 264 286 233 519 247 381 l 310 40 b 358 0 314 17 335 0 l 410 0 b 460 50 439 0 460 24 b 458 60 460 53 458 57 l 371 519 l 117 540 l 15 60 b 14 49 14 56 14 53 b 64 0 14 22 36 0 l 101 0 b 150 40 125 0 146 17 z "},"Y":{"ha":481,"x_min":0,"x_max":0,"o":"m 408 938 l 453 1146 b 454 1154 453 1149 454 1151 b 403 1206 454 1181 432 1206 l 365 1206 b 317 1165 342 1206 321 1189 l 271 939 b 260 881 267 919 263 900 z m 88 814 l 224 865 b 210 947 219 888 217 913 l 168 1165 b 119 1206 164 1189 143 1206 l 67 1206 b 17 1157 39 1206 17 1183 b 18 1146 17 1153 17 1150 z m 126 801 l 158 651 l 383 622 l 447 925 l 300 868 b 285 682 292 811 286 750 l 279 682 b 263 854 271 768 269 803 z m 119 640 l 161 443 l 161 50 b 211 0 161 22 183 0 l 261 0 b 311 50 289 0 311 22 l 311 451 l 344 611 z "},"Z":{"ha":375,"x_min":0,"x_max":0,"o":"m 19 1101 b 69 1051 19 1074 42 1051 l 190 1051 l 132 751 l 300 832 l 349 1076 l 349 1156 b 299 1206 349 1183 326 1206 l 69 1206 b 19 1156 42 1206 19 1183 z m 171 740 l 131 528 l 275 492 l 339 821 z m 90 517 l 15 124 l 15 50 b 65 0 15 22 38 0 l 300 0 b 350 50 328 0 350 22 l 350 106 b 300 156 350 133 328 156 l 172 156 l 235 479 z "},"[":{"ha":322,"x_min":0,"x_max":0,"o":"m 168 851 l 168 1079 l 244 1079 b 294 1129 272 1079 294 1101 l 294 1146 b 244 1206 294 1174 272 1206 l 93 1206 b 43 1146 65 1206 43 1174 l 43 832 z m 294 -94 b 244 -44 294 -67 272 -44 l 168 -44 l 168 265 l 43 297 l 43 -111 b 93 -161 43 -139 65 -161 l 244 -161 b 294 -111 272 -161 294 -139 z m 207 271 l 207 843 l 82 825 l 82 303 z "},"\\":{"ha":403,"x_min":0,"x_max":0,"o":"m 228 408 l 390 -10 b 411 -24 393 -18 401 -24 l 442 -24 b 464 -1 456 -24 464 -14 b 463 7 464 1 464 4 l 313 392 z m 113 817 l 265 422 l 350 404 l 178 849 z m 72 829 l 138 861 l 1 1215 b -19 1229 -1 1224 -11 1229 l -49 1229 b -72 1208 -61 1229 -72 1221 b -69 1199 -72 1206 -71 1201 z "},"]":{"ha":322,"x_min":0,"x_max":0,"o":"m 271 832 l 271 1146 b 221 1206 271 1174 249 1206 l 69 1206 b 19 1146 42 1206 19 1174 l 19 1129 b 69 1079 19 1101 42 1079 l 146 1079 l 146 851 z m 19 -111 b 69 -161 19 -139 42 -161 l 221 -161 b 271 -111 249 -161 271 -139 l 271 297 l 146 265 l 146 -44 l 69 -44 b 19 -94 42 -44 19 -67 z m 232 303 l 232 825 l 107 843 l 107 271 z "},"^":{"ha":717,"x_min":0,"x_max":0,"o":"m 264 1164 l 11 765 b 31 731 3 750 13 731 l 107 731 b 149 753 124 731 139 738 l 354 1054 l 558 753 b 600 731 568 739 583 731 l 676 731 b 696 764 694 731 704 750 l 444 1164 b 401 1188 435 1179 419 1188 l 307 1188 b 264 1164 289 1188 274 1179 z "},"_":{"ha":717,"x_min":0,"x_max":0,"o":"m 708 -192 l 708 -153 b 686 -131 708 -140 699 -131 l 22 -131 b 0 -153 10 -131 0 -140 l 0 -192 b 22 -214 0 -204 10 -214 l 686 -214 b 708 -192 699 -214 708 -204 z "},"‘":{"ha":244,"x_min":0,"x_max":0,"o":"m 31 1004 l 31 860 b 53 838 31 847 40 838 l 150 838 b 172 860 163 838 172 847 l 172 1000 b 150 1022 172 1013 163 1022 l 114 1022 l 165 1156 b 167 1164 167 1158 167 1161 b 144 1186 167 1176 157 1186 l 125 1186 b 106 1174 117 1186 108 1181 z "},"a":{"ha":403,"x_min":0,"x_max":0,"o":"m 364 438 l 364 825 b 196 985 364 922 299 985 b 26 825 92 985 26 922 l 26 725 b 76 675 26 697 49 675 l 114 675 b 164 725 142 675 164 697 l 164 831 b 199 868 164 831 163 868 l 210 868 b 229 846 221 868 229 857 l 229 707 b 214 671 229 693 224 681 l 75 535 b 26 419 43 503 26 465 l 26 311 l 163 363 l 163 438 b 176 472 163 451 167 463 l 228 526 l 228 386 z m 182 214 l 182 350 l 46 299 l 46 221 z m 383 204 l 383 425 l 247 374 l 247 210 z m 228 164 b 196 125 228 142 214 125 b 163 157 176 125 163 136 l 163 201 l 26 208 l 26 99 b 119 -11 26 26 60 -11 b 222 65 175 -11 194 10 l 228 65 l 235 19 b 257 0 236 8 246 0 l 314 0 b 364 50 342 0 364 22 l 364 192 l 228 199 z "},"b":{"ha":403,"x_min":0,"x_max":0,"o":"m 164 496 l 164 788 b 197 846 164 838 179 846 b 229 788 214 846 229 838 l 229 514 l 365 551 l 365 871 b 264 983 365 950 318 983 b 169 911 221 983 188 949 l 164 911 l 164 1154 b 114 1204 164 1182 142 1204 l 78 1204 b 28 1154 50 1204 28 1182 l 28 457 z m 404 264 l 404 540 l 268 501 l 268 278 z m 203 285 l 203 483 l 67 444 l 67 300 z m 132 -1 b 154 17 143 -1 151 6 l 163 56 l 168 56 b 264 -12 189 21 224 -12 b 365 99 318 -12 365 21 l 365 251 l 229 267 l 229 182 b 197 124 229 132 214 124 b 164 182 179 124 164 132 l 164 274 l 28 289 l 28 49 b 78 -1 28 21 50 -1 z "},"c":{"ha":403,"x_min":0,"x_max":0,"o":"m 164 583 l 164 810 b 197 868 164 860 179 868 b 229 810 214 868 229 860 l 229 725 b 279 675 229 697 251 675 l 315 675 b 365 725 343 675 365 697 l 365 825 b 197 985 365 922 300 985 b 28 825 93 985 28 922 l 28 536 z m 183 379 l 183 571 l 47 525 l 47 414 z m 28 149 b 197 -11 28 50 93 -11 b 365 149 300 -11 365 50 l 365 283 b 315 333 365 311 343 333 l 279 333 b 229 283 251 333 229 311 l 229 151 b 197 106 229 108 217 106 b 164 151 176 106 164 108 l 164 367 l 28 401 z "},"d":{"ha":403,"x_min":0,"x_max":0,"o":"m 279 1206 b 229 1156 251 1206 229 1183 l 229 913 l 224 913 b 129 985 204 950 172 985 b 28 872 76 985 28 951 l 28 582 l 164 610 l 164 789 b 197 847 164 839 179 847 b 229 789 214 847 229 839 l 229 624 l 365 653 l 365 1156 b 315 1206 365 1183 343 1206 z m 203 357 l 203 599 l 67 569 l 67 382 z m 268 613 l 268 344 l 404 319 l 404 640 z m 229 332 l 229 183 b 197 125 229 133 214 125 b 164 183 179 125 164 133 l 164 344 l 28 371 l 28 100 b 129 -11 28 22 76 -11 b 226 57 169 -11 206 22 l 232 57 l 239 18 b 261 0 242 7 250 0 l 315 0 b 365 50 343 0 365 22 l 365 307 z "},"e":{"ha":403,"x_min":0,"x_max":0,"o":"m 164 728 l 164 821 b 197 868 164 864 176 868 b 229 821 217 868 229 864 l 229 747 l 365 789 l 365 825 b 197 985 365 922 300 985 b 28 825 93 985 28 922 l 28 686 z m 388 586 l 388 776 l 251 735 l 251 593 z m 186 597 l 186 715 l 50 674 l 50 604 z m 229 151 b 197 106 229 108 217 106 b 164 151 176 106 164 108 l 164 456 l 315 456 b 365 506 343 456 365 478 l 365 574 l 229 581 l 229 567 l 164 567 l 164 585 l 28 592 l 28 149 b 197 -11 28 50 93 -11 b 365 149 300 -11 365 50 l 365 283 b 315 333 365 311 343 333 l 279 333 b 229 283 251 333 229 311 z "},"f":{"ha":244,"x_min":0,"x_max":0,"o":"m 185 707 l 185 846 l 210 846 b 228 864 219 846 228 854 l 228 954 b 210 972 228 964 219 972 l 185 972 l 185 1031 b 210 1079 185 1054 189 1078 b 228 1097 219 1079 228 1088 l 228 1188 b 210 1206 228 1197 219 1206 l 151 1206 b 50 1093 68 1206 50 1156 l 50 972 l 25 972 b 7 954 15 972 7 964 l 7 864 b 25 846 7 854 15 846 l 50 846 l 50 656 z m 204 390 l 204 694 l 69 644 l 69 450 z m 135 0 b 185 50 163 0 185 22 l 185 378 l 50 438 l 50 50 b 100 0 50 22 72 0 z "},"g":{"ha":403,"x_min":0,"x_max":0,"o":"m 164 664 l 164 789 b 197 847 164 839 179 847 b 229 789 214 847 229 839 l 229 685 l 365 726 l 365 922 b 315 972 365 950 343 972 l 260 972 b 239 956 250 972 242 965 l 229 917 b 129 985 200 954 168 985 b 28 858 64 985 28 936 l 28 622 z m 385 422 l 385 714 l 249 672 l 249 440 z m 183 449 l 183 651 l 47 610 l 47 465 z m 83 -189 b 197 -214 106 -199 143 -214 b 365 -53 300 -214 365 -151 l 365 410 l 229 428 l 229 261 b 197 203 229 211 214 203 b 164 261 179 203 164 211 l 164 436 l 28 454 l 28 193 b 129 67 28 115 64 67 b 221 132 176 67 201 89 l 226 132 l 226 -53 b 153 -97 226 -97 171 -97 l 79 -157 b 74 -172 74 -162 74 -167 b 83 -189 74 -179 76 -186 z "},"h":{"ha":403,"x_min":0,"x_max":0,"o":"m 78 1206 b 28 1156 50 1206 28 1183 l 28 588 l 164 615 l 164 789 b 200 847 164 817 165 847 b 229 789 228 847 229 817 l 229 628 l 365 656 l 365 813 b 261 985 365 913 364 985 b 169 918 224 985 188 963 l 164 918 l 164 1156 b 114 1206 164 1183 142 1206 z m 47 576 l 47 428 l 183 374 l 183 603 z m 249 615 l 249 347 l 385 293 l 385 643 z m 28 415 l 28 50 b 78 0 28 22 50 0 l 114 0 b 164 50 142 0 164 22 l 164 361 z m 229 335 l 229 50 b 279 0 229 22 251 0 l 315 0 b 365 50 343 0 365 22 l 365 281 z "},"i":{"ha":218,"x_min":0,"x_max":0,"o":"m 18 1124 b 103 1040 18 1078 57 1040 b 188 1124 150 1040 188 1078 b 103 1210 188 1171 150 1210 b 18 1124 57 1210 18 1171 z m 172 701 l 172 922 b 122 972 172 950 150 972 l 86 972 b 36 922 58 972 36 950 l 36 647 z m 192 385 l 192 689 l 56 635 l 56 435 z m 172 374 l 36 422 l 36 50 b 86 0 36 22 58 0 l 122 0 b 172 50 150 0 172 22 z "},"j":{"ha":218,"x_min":0,"x_max":0,"o":"m 17 1124 b 101 1040 17 1078 56 1040 b 186 1124 149 1040 186 1078 b 101 1210 186 1171 149 1210 b 17 1124 56 1210 17 1171 z m 172 613 l 172 922 b 122 972 172 950 150 972 l 86 972 b 36 922 58 972 36 950 l 36 569 z m 192 257 l 192 600 l 56 557 l 56 339 z m 56 -214 b 172 -15 165 -214 172 -147 l 172 244 l 36 326 l 36 -19 b 1 -83 36 -61 26 -78 b -24 -108 -12 -87 -24 -94 l -24 -164 b 26 -214 -24 -192 -1 -214 z "},"k":{"ha":403,"x_min":0,"x_max":0,"o":"m 349 789 l 371 914 b 372 922 371 917 372 919 b 322 972 372 949 350 972 l 289 972 b 240 931 265 972 244 956 l 207 736 z m 168 722 l 168 1156 b 118 1206 168 1183 146 1206 l 81 1206 b 31 1156 53 1206 31 1183 l 31 671 z m 188 458 l 188 511 l 193 511 l 201 457 l 338 446 l 324 533 l 367 776 l 226 724 l 193 525 l 188 525 l 188 710 l 50 658 l 50 468 z m 182 444 l 240 43 b 290 0 244 18 265 0 l 329 0 b 379 50 357 0 379 24 b 318 435 379 53 318 435 z m 168 446 l 31 457 l 31 50 b 81 0 31 22 53 0 l 118 0 b 168 50 146 0 168 22 z "},"l":{"ha":218,"x_min":0,"x_max":0,"o":"m 171 783 l 171 1156 b 121 1206 171 1183 149 1206 l 85 1206 b 35 1156 57 1206 35 1183 l 35 728 z m 190 436 l 190 771 l 54 715 l 54 468 z m 171 425 l 35 456 l 35 50 b 85 0 35 22 57 0 l 121 0 b 171 50 149 0 171 22 z "},"m":{"ha":611,"x_min":0,"x_max":0,"o":"m 85 972 b 35 922 57 972 35 950 l 35 535 l 171 564 l 171 789 b 200 847 171 817 172 847 b 233 789 232 847 233 817 l 233 576 l 369 606 l 369 789 b 399 847 369 817 371 847 b 432 789 431 847 432 817 l 432 619 l 568 649 l 568 813 b 463 985 568 913 567 985 b 365 917 413 985 388 967 b 269 985 342 964 318 985 b 176 910 225 985 194 950 l 171 910 l 161 954 b 139 972 158 965 150 972 z m 58 522 l 58 385 l 194 379 l 194 551 z m 257 565 l 257 376 l 393 371 l 393 594 z m 456 607 l 456 368 l 592 363 l 592 636 z m 35 372 l 35 50 b 85 0 35 22 57 0 l 121 0 b 171 50 149 0 171 22 l 171 367 z m 233 364 l 233 50 b 283 0 233 22 256 0 l 319 0 b 369 50 347 0 369 22 l 369 358 z m 432 356 l 432 50 b 482 0 432 22 454 0 l 518 0 b 568 50 546 0 568 22 l 568 350 z "},"n":{"ha":403,"x_min":0,"x_max":0,"o":"m 164 696 l 164 789 b 200 847 164 817 165 847 b 229 789 228 847 229 817 l 229 717 l 365 763 l 365 813 b 261 985 365 913 364 985 b 169 918 224 985 188 963 l 164 918 l 154 956 b 133 972 151 965 143 972 l 78 972 b 28 922 50 972 28 950 l 28 650 z m 249 706 l 249 438 l 385 438 l 385 750 z m 183 443 l 183 683 l 47 639 l 47 447 z m 229 429 l 229 50 b 279 0 229 22 251 0 l 315 0 b 365 50 343 0 365 22 l 365 425 z m 114 0 b 164 50 142 0 164 22 l 164 432 l 28 435 l 28 50 b 78 0 28 22 50 0 z "},"o":{"ha":403,"x_min":0,"x_max":0,"o":"m 365 701 l 365 825 b 197 985 365 922 300 985 b 28 825 93 985 28 922 l 28 610 l 164 647 l 164 821 b 197 868 164 864 176 868 b 229 821 217 868 229 864 l 229 664 z m 183 411 l 183 635 l 47 597 l 47 422 z m 385 393 l 385 690 l 249 653 l 249 406 z m 229 151 b 197 106 229 108 217 106 b 164 151 176 106 164 108 l 164 399 l 28 410 l 28 149 b 197 -11 28 50 93 -11 b 365 149 300 -11 365 50 l 365 382 l 229 393 z "},"p":{"ha":403,"x_min":0,"x_max":0,"o":"m 164 606 l 164 789 b 197 847 164 839 179 847 b 229 789 214 847 229 839 l 229 633 l 365 689 l 365 839 b 275 985 365 943 328 985 b 168 917 224 985 189 951 l 163 917 l 154 954 b 132 972 151 965 143 972 l 78 972 b 28 922 50 972 28 950 l 28 550 z m 385 256 l 385 676 l 249 621 l 249 292 z m 183 310 l 183 593 l 47 538 l 47 347 z m 114 -214 b 164 -164 142 -214 164 -192 l 164 60 l 169 60 b 264 -11 188 24 221 -11 b 365 133 335 -11 365 40 l 365 243 l 229 281 l 229 183 b 197 125 229 133 214 125 b 164 183 179 125 164 133 l 164 297 l 28 335 l 28 -164 b 78 -214 28 -192 50 -214 z "},"q":{"ha":403,"x_min":0,"x_max":0,"o":"m 261 972 b 239 954 250 972 242 965 l 232 917 l 226 917 b 129 985 206 951 169 985 b 28 872 76 985 28 951 l 28 628 l 164 647 l 164 789 b 197 847 164 839 179 847 b 229 789 214 847 229 839 l 229 657 l 365 676 l 365 922 b 315 972 365 950 343 972 z m 183 371 l 183 635 l 47 615 l 47 415 z m 249 644 l 249 349 l 385 303 l 385 664 z m 229 336 l 229 183 b 197 125 229 133 214 125 b 164 183 179 125 164 133 l 164 358 l 28 403 l 28 100 b 129 -11 28 22 76 -11 b 224 60 172 -11 204 24 l 229 60 l 229 -164 b 279 -214 229 -192 251 -214 l 315 -214 b 365 -164 343 -214 365 -192 l 365 290 z "},"r":{"ha":403,"x_min":0,"x_max":0,"o":"m 164 565 l 164 789 b 200 847 164 817 165 847 b 229 789 228 847 229 817 l 229 719 b 279 669 229 692 251 669 l 315 669 b 365 719 343 669 365 692 l 365 818 b 261 985 365 911 363 985 b 168 918 224 985 186 963 l 163 918 l 153 956 b 132 972 150 965 142 972 l 78 972 b 28 922 50 972 28 950 l 28 528 z m 183 318 l 183 553 l 47 515 l 47 363 z m 114 0 b 164 50 142 0 164 22 l 164 306 l 28 350 l 28 50 b 78 0 28 22 50 0 z "},"s":{"ha":403,"x_min":0,"x_max":0,"o":"m 235 599 b 164 731 196 647 164 692 l 164 810 b 197 868 164 860 179 868 b 229 810 214 868 229 860 l 229 719 b 279 669 229 692 251 669 l 315 669 b 365 719 343 669 365 692 l 365 825 b 197 985 365 922 300 985 b 28 825 93 985 28 922 l 28 696 b 90 540 28 639 56 589 z m 372 414 b 272 567 353 467 311 518 l 256 588 l 111 529 b 190 422 136 493 165 458 z m 28 149 b 197 -11 28 50 93 -11 b 365 149 300 -11 365 50 l 365 342 b 354 401 365 361 361 382 l 172 410 b 229 261 204 364 229 315 l 229 164 b 197 106 229 114 214 106 b 164 164 179 106 164 114 l 164 281 b 114 331 164 308 142 331 l 78 331 b 28 281 50 331 28 308 z "},"t":{"ha":244,"x_min":0,"x_max":0,"o":"m 72 1164 b 49 1122 57 1156 49 1140 l 49 972 l 31 972 b 8 950 18 972 8 963 l 8 868 b 31 846 8 856 18 846 l 49 846 l 49 629 l 185 681 l 185 846 l 206 846 b 228 868 218 846 228 856 l 228 950 b 206 972 228 963 218 972 l 185 972 l 185 1193 b 163 1217 185 1207 174 1217 b 151 1213 158 1217 156 1215 z m 68 617 l 68 382 l 204 351 l 204 668 z m 49 369 l 49 126 b 150 0 49 90 67 0 l 178 0 b 228 50 206 0 228 22 l 228 113 b 214 126 228 119 221 126 b 185 203 200 126 185 132 l 185 339 z "},"u":{"ha":403,"x_min":0,"x_max":0,"o":"m 164 614 l 164 922 b 114 972 164 950 142 972 l 78 972 b 28 922 50 972 28 950 l 28 568 z m 279 972 b 229 922 251 972 229 950 l 229 635 l 365 679 l 365 922 b 315 972 365 950 343 972 z m 183 374 l 183 601 l 47 556 l 47 388 z m 249 622 l 249 365 l 385 351 l 385 667 z m 229 354 l 229 183 b 193 125 229 157 228 125 b 164 183 165 125 164 157 l 164 361 l 28 375 l 28 163 b 133 -11 28 67 29 -11 b 226 56 169 -11 207 10 l 232 56 l 239 18 b 261 0 242 7 250 0 l 315 0 b 365 50 343 0 365 22 l 365 339 z "},"v":{"ha":403,"x_min":0,"x_max":0,"o":"m 357 694 l 383 917 l 383 924 b 333 972 383 950 361 972 l 301 972 b 253 926 276 972 256 953 l 225 651 z m 172 633 l 172 642 l 144 926 b 94 972 142 953 121 972 l 60 972 b 10 921 32 972 10 949 l 44 593 z m 346 415 l 376 682 l 244 639 l 226 429 z m 204 432 b 193 622 203 493 199 556 l 65 581 l 79 446 z m 235 0 b 285 44 260 0 282 18 l 326 403 l 206 417 b 197 185 201 339 201 261 l 192 185 b 185 419 189 264 189 340 l 60 433 l 103 44 b 153 0 106 19 128 0 z "},"w":{"ha":638,"x_min":0,"x_max":0,"o":"m 172 558 l 149 925 b 99 972 147 951 125 972 l 60 972 b 10 922 32 972 10 950 l 10 917 l 47 536 z m 589 632 l 618 917 l 618 922 b 568 972 618 950 597 972 l 531 972 b 481 925 504 972 482 951 l 460 608 z m 211 565 l 304 582 b 313 792 308 651 311 721 l 318 792 b 324 585 318 722 319 654 l 414 601 l 394 925 b 344 972 393 951 371 972 l 288 972 b 238 926 261 972 239 951 z m 200 404 l 193 546 l 67 525 l 81 396 z m 231 553 l 228 519 b 221 406 225 481 222 444 l 314 417 b 324 569 318 467 321 518 z m 588 432 l 607 619 l 479 596 l 475 544 b 467 424 471 504 469 464 z m 343 572 b 353 426 346 524 349 475 b 354 415 353 422 354 419 l 442 422 b 435 576 439 474 436 525 l 435 589 z m 201 393 b 196 185 199 329 197 263 l 190 185 l 181 392 l 61 383 l 94 44 b 144 0 97 19 118 0 l 211 0 b 261 46 238 0 258 19 l 293 400 z m 335 403 b 342 318 336 375 339 346 l 369 44 b 419 0 372 19 393 0 l 479 0 b 529 44 504 0 526 19 l 568 419 l 447 411 b 439 185 444 336 443 260 l 433 185 b 422 410 432 258 426 335 z "},"x":{"ha":375,"x_min":0,"x_max":0,"o":"m 314 738 l 340 915 b 342 924 340 918 342 921 b 292 972 342 950 319 972 l 265 972 b 214 925 239 972 217 951 l 196 703 z m 64 663 l 183 699 b 154 926 178 774 164 850 b 103 972 150 953 129 972 l 71 972 b 21 922 43 972 21 949 b 22 914 21 919 22 917 z m 83 650 l 107 510 l 100 468 l 317 417 l 301 513 l 333 725 l 215 690 l 211 636 l 206 636 b 203 686 206 653 204 669 z m 81 456 l 14 58 l 14 51 b 64 0 14 24 36 0 l 90 0 b 140 44 117 0 138 19 b 175 390 154 160 168 274 l 181 390 b 217 47 196 263 199 172 b 267 0 221 21 240 0 l 301 0 b 351 51 331 0 351 24 l 351 58 l 297 404 z "},"y":{"ha":403,"x_min":0,"x_max":0,"o":"m 356 692 l 382 924 b 332 975 382 951 360 975 l 299 975 b 249 929 272 975 251 956 l 222 657 z m 171 644 b 169 658 171 649 169 653 l 144 929 b 94 975 142 956 121 975 l 63 975 b 13 925 33 975 13 953 l 13 919 l 50 614 z m 346 428 l 375 679 l 242 644 l 239 615 b 228 450 233 564 229 508 z m 203 456 b 190 632 200 513 196 572 l 71 601 l 86 478 z m 81 -149 b 79 -161 79 -153 79 -157 b 129 -212 79 -187 100 -212 l 188 -212 b 236 -175 211 -212 231 -197 l 279 3 l 326 417 l 207 439 b 199 213 204 360 203 279 l 192 213 b 183 443 189 283 188 361 l 67 465 l 124 3 z "},"z":{"ha":322,"x_min":0,"x_max":0,"o":"m 250 638 l 296 846 l 296 922 b 246 972 296 950 274 972 l 56 972 b 6 922 28 972 6 950 l 6 896 b 56 846 6 868 28 846 l 161 846 l 107 606 z m 213 371 l 268 625 l 126 593 l 86 413 z m 6 50 b 56 0 6 22 28 0 l 257 0 b 307 50 285 0 307 22 l 307 76 b 257 126 307 104 285 126 l 140 126 l 192 358 l 65 400 l 6 132 z "},"{":{"ha":372,"x_min":0,"x_max":0,"o":"m 243 885 l 243 975 b 267 1058 243 1018 249 1044 b 311 1117 290 1076 311 1088 l 311 1160 b 264 1207 311 1186 290 1207 l 253 1207 b 111 1001 131 1207 111 1126 l 111 842 z m 264 -18 b 243 63 243 1 243 36 l 243 200 l 113 231 l 113 35 b 264 -162 113 -94 138 -162 b 311 -115 290 -162 311 -142 l 311 -81 b 264 -18 311 -49 288 -40 z m 282 211 l 282 367 b 200 521 282 461 268 511 b 282 693 282 544 282 626 l 282 883 l 150 840 l 150 704 b 129 608 150 656 150 624 b 83 550 106 590 83 581 l 83 500 b 126 442 83 478 104 447 b 151 342 147 426 151 394 l 151 242 z "},"|":{"ha":322,"x_min":0,"x_max":0,"o":"m 219 954 l 219 1229 b 169 1279 219 1257 197 1279 l 144 1279 b 94 1229 117 1279 94 1257 l 94 928 z m 169 -214 b 219 -164 197 -214 219 -192 l 219 361 l 94 381 l 94 -164 b 144 -214 94 -192 117 -214 z m 258 372 l 258 942 l 133 917 l 133 393 z "},"}":{"ha":372,"x_min":0,"x_max":0,"o":"m 244 842 l 244 1001 b 103 1207 244 1126 225 1207 l 92 1207 b 44 1160 65 1207 44 1186 l 44 1117 b 89 1058 44 1088 65 1076 b 113 975 107 1044 113 1018 l 113 885 z m 92 -18 b 44 -81 68 -40 44 -49 l 44 -115 b 92 -162 44 -142 65 -162 b 243 35 218 -162 243 -94 l 243 231 l 113 200 l 113 63 b 92 -18 113 36 113 1 z m 204 242 l 204 342 b 229 442 204 394 208 426 b 272 500 251 447 272 478 l 272 550 b 226 608 272 581 250 590 b 206 704 206 624 206 656 l 206 840 l 74 883 l 74 693 b 156 521 74 626 74 544 b 74 367 88 511 74 461 l 74 211 z "},"~":{"ha":550,"x_min":0,"x_max":0,"o":"m 96 372 b 168 444 108 396 138 444 b 225 426 186 444 211 433 b 361 372 285 394 328 372 b 508 521 417 372 457 407 b 515 542 513 528 515 535 b 507 557 515 547 513 553 l 474 583 b 454 594 468 589 460 594 b 449 592 451 594 450 594 b 369 526 435 571 403 526 b 281 560 353 526 326 535 b 176 599 211 599 188 599 b 36 432 103 599 72 533 b 33 418 35 428 33 422 b 40 401 33 413 35 407 l 68 379 b 89 368 74 375 82 368 b 96 372 92 368 94 369 z "},"¡":{"ha":297,"x_min":0,"x_max":0,"o":"m 50 904 b 143 810 50 853 93 810 b 236 904 194 810 236 853 b 143 996 236 954 194 996 b 50 904 93 996 50 954 z m 201 690 b 151 739 200 718 178 739 l 138 739 b 88 690 110 739 89 718 l 83 514 l 206 525 z m 114 193 l 253 154 l 244 514 l 122 503 z m 67 -150 b 117 -211 65 -178 89 -211 l 172 -211 b 222 -150 200 -211 224 -178 l 214 153 l 75 192 z "},"¢":{"ha":481,"x_min":0,"x_max":0,"o":"m 208 668 l 208 810 b 242 868 208 860 224 868 b 274 810 258 868 274 860 l 274 725 b 324 675 274 697 296 675 l 360 675 b 410 725 388 675 410 697 l 410 825 b 274 982 410 911 357 971 l 274 1076 b 251 1099 274 1089 264 1099 l 232 1099 b 210 1076 219 1099 210 1089 l 210 982 b 72 825 124 971 72 911 l 72 635 z m 72 149 b 210 -8 72 60 124 1 l 210 -118 b 232 -140 210 -131 219 -140 l 251 -140 b 274 -118 264 -140 274 -131 l 274 -8 b 410 149 357 3 410 60 l 410 283 b 360 333 410 311 388 333 l 324 333 b 274 283 296 333 274 311 l 274 151 b 242 106 274 108 261 106 b 208 151 221 106 208 108 l 208 360 l 72 393 z m 247 371 l 247 657 l 111 624 l 111 404 z "},"£":{"ha":481,"x_min":0,"x_max":0,"o":"m 239 860 l 239 1032 b 264 1081 239 1056 243 1079 l 289 1081 b 338 1015 338 1081 338 1053 l 338 951 b 388 901 338 924 360 901 l 422 901 b 472 951 450 901 472 924 l 472 996 b 296 1207 472 1142 463 1207 l 206 1207 b 104 1094 122 1207 104 1157 l 104 793 z m 58 50 b 108 0 58 22 81 0 l 403 0 b 453 50 431 0 453 22 l 453 88 b 403 138 453 115 431 138 l 239 138 l 239 239 l 104 300 l 104 138 l 81 138 b 58 115 68 138 58 128 z m 278 251 l 278 572 l 354 572 b 404 622 382 572 404 594 l 404 649 b 354 699 404 676 382 699 l 278 699 l 278 847 l 143 781 l 143 699 l 122 699 b 100 676 110 699 100 689 l 100 594 b 122 572 100 582 110 572 l 143 572 l 143 313 z "},"⁄":{"ha":244,"x_min":0,"x_max":0,"o":"m 19 472 l -218 18 b -221 8 -219 15 -221 11 b -199 -14 -221 -3 -211 -14 l -174 -14 b -154 -1 -165 -14 -158 -10 l 89 464 z m 228 808 l 60 486 l 129 476 l 321 842 z m 411 1219 b 392 1207 403 1219 396 1215 l 192 822 l 283 856 l 457 1188 b 460 1197 458 1190 460 1194 b 438 1219 460 1208 450 1219 z "},"¥":{"ha":481,"x_min":0,"x_max":0,"o":"m 207 875 l 161 1164 b 111 1206 157 1188 136 1206 l 63 1206 b 13 1156 35 1206 13 1183 b 14 1144 13 1151 13 1149 l 82 839 z m 406 932 l 456 1143 b 457 1154 457 1147 457 1150 b 407 1204 457 1181 436 1204 l 371 1204 b 322 1163 347 1204 326 1188 l 276 894 z m 310 367 l 158 397 l 158 50 b 208 0 158 22 181 0 l 260 0 b 310 50 288 0 310 22 z m 349 379 l 349 440 l 468 440 b 490 463 481 440 490 450 l 490 525 b 468 547 490 538 481 547 l 356 547 l 378 632 l 468 632 b 490 654 481 632 490 642 l 490 713 b 468 735 490 725 481 735 l 401 735 l 444 919 l 314 882 l 278 667 l 246 863 l 121 828 l 143 735 l 81 735 b 58 713 68 735 58 725 l 58 654 b 81 632 58 642 68 632 l 165 632 l 183 547 l 81 547 b 58 525 68 547 58 538 l 58 463 b 81 440 58 450 68 440 l 197 440 l 197 408 z "},"ƒ":{"ha":508,"x_min":0,"x_max":0,"o":"m 290 711 l 314 819 l 372 819 b 421 860 396 819 415 836 l 433 919 b 411 946 433 936 424 946 l 340 946 l 356 1029 b 392 1078 361 1053 369 1076 l 447 1078 b 469 1096 458 1078 467 1085 l 479 1144 b 481 1156 481 1149 481 1151 b 431 1204 481 1182 458 1204 l 360 1204 b 235 1092 276 1204 247 1154 l 206 946 l 147 946 b 99 906 124 946 104 929 l 86 846 b 108 819 86 829 96 819 l 179 819 l 147 667 z m 92 -149 b 115 -115 104 -142 113 -129 l 185 206 l 69 292 b -32 -179 69 292 -32 -178 b -8 -200 -32 -193 -18 -200 b 3 -197 -4 -200 -1 -200 z m 224 217 l 329 710 l 185 664 l 108 304 z "},"§":{"ha":481,"x_min":0,"x_max":0,"o":"m 272 399 b 196 575 231 446 196 503 b 201 617 196 589 197 603 l 72 576 l 72 567 b 94 431 72 513 81 468 z m 413 1036 b 240 1229 413 1167 365 1229 b 64 996 97 1229 64 1126 b 129 776 64 911 81 839 b 33 590 71 735 36 668 l 163 631 b 193 689 169 653 179 674 b 224 650 203 676 213 663 l 364 693 b 190 1003 290 789 190 851 l 190 1025 b 240 1113 190 1069 192 1113 b 289 1036 283 1113 289 1078 l 289 1013 b 339 963 289 985 311 963 l 363 963 b 413 1013 390 963 413 985 z m 265 638 b 353 463 307 586 353 528 b 339 386 353 433 347 410 l 461 365 b 478 465 471 396 478 431 b 406 681 478 563 446 626 z m 299 374 b 283 340 294 363 289 351 b 238 385 268 354 251 369 l 57 418 b 286 15 119 253 286 210 l 286 8 b 228 -97 286 -46 286 -97 b 176 -18 185 -97 176 -67 l 176 36 b 126 86 176 64 154 86 l 101 86 b 51 36 74 86 51 64 l 51 -17 b 222 -214 51 -132 88 -214 b 411 22 360 -214 411 -142 b 342 243 411 110 397 181 b 421 353 378 269 404 308 z "},"¤":{"ha":504,"x_min":0,"x_max":0,"o":"m 418 590 l 314 597 b 250 568 296 578 272 568 b 176 604 222 568 196 582 l 69 610 l 82 581 l 24 514 b 18 499 19 510 18 504 b 24 485 18 493 19 489 l 74 426 b 90 419 78 422 85 419 b 108 428 97 419 104 422 l 158 490 b 250 463 178 479 207 463 b 340 489 294 463 319 481 l 390 428 b 408 419 394 422 401 419 b 425 428 415 419 421 422 l 472 485 b 478 500 475 489 478 494 b 472 514 478 506 475 510 l 414 581 z m 158 765 b 250 831 176 804 211 831 b 322 793 279 831 304 817 l 418 813 l 415 818 l 472 885 b 478 899 475 889 478 893 b 472 913 478 903 475 908 l 425 971 b 408 979 421 976 415 979 b 390 971 401 979 394 976 l 340 910 b 250 936 321 918 294 936 b 158 910 204 936 175 918 l 108 971 b 90 979 104 976 97 979 b 74 972 85 979 78 976 l 24 913 b 18 899 19 908 18 904 b 24 883 18 893 19 888 l 82 818 b 61 749 74 800 65 779 z m 214 615 b 186 700 197 638 186 667 b 196 754 186 719 190 738 l 99 738 b 97 700 97 726 97 714 b 108 621 97 667 101 642 z m 458 603 b 478 700 468 625 478 654 b 458 797 478 746 468 775 l 363 782 b 389 700 379 761 389 732 b 354 608 389 663 375 631 z "},"'":{"ha":322,"x_min":0,"x_max":0,"o":"m 131 735 l 182 735 b 204 756 194 735 204 744 l 218 1163 b 196 1186 218 1175 208 1186 l 117 1186 b 94 1163 104 1186 94 1175 l 108 756 b 131 735 108 744 118 735 z "},"“":{"ha":415,"x_min":0,"x_max":0,"o":"m 36 1004 l 36 860 b 58 838 36 847 46 838 l 156 838 b 178 860 168 838 178 847 l 178 1000 b 156 1022 178 1013 168 1022 l 119 1022 l 171 1156 b 172 1164 172 1158 172 1161 b 150 1186 172 1176 163 1186 l 131 1186 b 111 1174 122 1186 114 1181 z m 228 1004 l 228 860 b 250 838 228 847 238 838 l 347 838 b 369 860 360 838 369 847 l 369 1000 b 347 1022 369 1013 360 1022 l 311 1022 l 363 1156 b 364 1164 364 1158 364 1161 b 342 1186 364 1176 354 1186 l 322 1186 b 303 1174 314 1186 306 1181 z "},"«":{"ha":513,"x_min":0,"x_max":0,"o":"m 407 364 l 293 364 l 378 167 b 397 153 381 158 389 153 l 451 153 b 474 175 464 153 474 164 b 472 182 474 178 474 179 z m 444 375 l 414 456 b 411 474 411 461 411 468 b 414 490 411 479 411 485 l 461 613 l 340 589 l 297 493 b 293 474 294 486 293 481 b 297 454 293 467 294 460 l 331 376 z m 422 625 l 471 754 b 472 763 472 757 472 760 b 450 785 472 775 463 785 l 397 785 b 378 771 389 785 381 779 l 303 603 z m 185 368 l 71 368 l 157 167 b 176 153 160 158 168 153 l 231 153 b 253 175 243 153 253 164 b 251 182 253 178 253 179 z m 222 378 l 193 456 b 190 474 190 461 190 468 b 193 490 190 479 190 485 l 222 567 l 100 543 l 76 493 b 72 474 74 486 72 481 b 76 454 72 467 74 460 l 108 381 z m 185 579 l 250 754 b 251 763 251 757 251 760 b 229 785 251 775 242 785 l 176 785 b 157 771 168 785 160 779 l 63 557 z "},"‹":{"ha":271,"x_min":0,"x_max":0,"o":"m 200 622 l 250 754 b 251 763 251 757 251 760 b 229 785 251 775 242 785 l 176 785 b 157 771 168 785 160 779 l 74 583 z m 238 333 l 193 456 b 190 474 190 461 190 468 b 193 490 190 479 190 485 l 238 610 l 111 571 l 76 493 b 72 474 74 486 72 481 b 76 454 72 467 74 460 l 110 375 z m 200 321 l 72 364 l 157 167 b 176 153 160 158 168 153 l 231 153 b 253 175 243 153 253 164 b 251 182 253 178 253 179 z "},"›":{"ha":271,"x_min":0,"x_max":0,"o":"m 218 583 l 135 771 b 115 785 132 779 124 785 l 63 785 b 40 763 50 785 40 775 b 42 754 40 760 40 757 l 92 622 z m 182 375 l 215 454 b 219 474 218 460 219 467 b 215 493 219 481 218 486 l 181 571 l 54 610 l 99 490 b 101 474 101 485 101 479 b 99 456 101 468 101 461 l 54 333 z m 40 182 b 39 175 39 179 39 178 b 61 153 39 164 49 153 l 115 153 b 135 167 124 153 132 158 l 219 364 l 92 321 z "},"†":{"ha":481,"x_min":0,"x_max":0,"o":"m 167 815 l 56 815 b 14 772 32 815 14 796 l 14 715 b 56 674 14 692 32 674 l 167 674 l 167 553 l 306 615 l 306 674 l 415 674 b 458 715 439 674 458 692 l 458 772 b 415 815 458 796 439 815 l 306 815 l 306 1161 b 263 1204 306 1185 286 1204 l 208 1204 b 167 1161 185 1204 167 1185 z m 167 160 l 167 -151 b 208 -193 167 -175 185 -193 l 263 -193 b 306 -151 286 -193 306 -175 l 306 138 z m 206 550 l 206 171 l 344 150 l 344 613 z "},"‡":{"ha":481,"x_min":0,"x_max":0,"o":"m 306 815 l 306 1161 b 263 1204 306 1185 286 1204 l 208 1204 b 167 1161 185 1204 167 1185 l 167 815 l 56 815 b 14 772 32 815 14 796 l 14 715 b 56 674 14 692 32 674 l 167 674 l 167 588 l 306 639 l 306 674 l 415 674 b 458 715 439 674 458 692 l 458 772 b 415 815 458 796 439 815 z m 167 200 l 167 -151 b 208 -193 167 -175 185 -193 l 263 -193 b 306 -151 286 -193 306 -175 l 306 164 z m 206 585 l 206 401 l 94 401 b 53 360 71 401 53 383 l 53 303 b 94 260 53 279 71 260 l 206 260 l 206 213 l 344 175 l 344 260 l 454 260 b 497 303 478 260 497 279 l 497 360 b 454 401 497 383 478 401 l 344 401 l 344 638 z "},"·":{"ha":243,"x_min":0,"x_max":0,"o":"m 33 474 b 118 390 33 428 72 390 b 203 474 165 390 203 428 b 118 560 203 521 165 560 b 33 474 72 560 33 521 z "},"¶":{"ha":647,"x_min":0,"x_max":0,"o":"m 599 1183 b 576 1206 599 1196 589 1206 l 253 1206 b 40 813 132 1206 40 1101 l 40 790 l 325 871 l 325 1124 l 425 1124 l 425 899 l 496 918 l 496 1125 l 579 1125 b 599 1147 590 1125 599 1136 z m 464 886 l 464 569 l 535 556 l 535 906 z m 425 557 l 425 -215 l 325 -215 l 325 576 l 50 631 b 253 385 75 463 144 388 l 253 -247 b 303 -297 253 -275 275 -297 l 446 -297 b 496 -247 474 -297 496 -275 l 496 543 z m 364 589 l 364 857 l 79 778 b 89 643 79 728 83 682 z "},"•":{"ha":578,"x_min":0,"x_max":0,"o":"m 124 582 b 283 422 124 494 196 422 b 446 582 374 422 446 494 b 283 744 446 672 374 744 b 124 582 196 744 124 672 z "},"‚":{"ha":244,"x_min":0,"x_max":0,"o":"m 133 -151 l 208 18 l 208 163 b 186 185 208 175 199 185 l 89 185 b 67 163 76 185 67 175 l 67 22 b 89 0 67 10 76 0 l 125 0 l 74 -133 b 94 -164 68 -149 79 -164 l 114 -164 b 133 -151 122 -164 131 -158 z "},"„":{"ha":468,"x_min":0,"x_max":0,"o":"m 133 -151 l 208 18 l 208 163 b 186 185 208 175 199 185 l 89 185 b 67 163 76 185 67 175 l 67 22 b 89 0 67 10 76 0 l 125 0 l 74 -133 b 94 -164 68 -149 79 -164 l 114 -164 b 133 -151 122 -164 131 -158 z m 349 -151 l 424 18 l 424 163 b 401 185 424 175 414 185 l 304 185 b 282 163 292 185 282 175 l 282 22 b 304 0 282 10 292 0 l 340 0 l 289 -133 b 310 -164 283 -149 294 -164 l 329 -164 b 349 -151 338 -164 346 -158 z "},"”":{"ha":422,"x_min":0,"x_max":0,"o":"m 182 1019 l 182 1164 b 160 1186 182 1176 172 1186 l 63 1186 b 40 1164 50 1186 40 1176 l 40 1024 b 63 1001 40 1011 50 1001 l 99 1001 l 47 868 b 46 860 46 865 46 863 b 68 838 46 847 56 838 l 88 838 b 107 850 96 838 104 843 z m 374 1019 l 374 1164 b 351 1186 374 1176 364 1186 l 254 1186 b 232 1164 242 1186 232 1176 l 232 1024 b 254 1001 232 1011 242 1001 l 290 1001 l 239 868 b 238 860 238 865 238 863 b 260 838 238 847 247 838 l 279 838 b 299 850 288 838 296 843 z "},"»":{"ha":513,"x_min":0,"x_max":0,"o":"m 40 182 b 39 175 39 179 39 178 b 61 153 39 164 49 153 l 115 153 b 135 167 124 153 132 158 l 219 364 l 106 364 z m 182 376 l 215 454 b 219 474 218 460 219 467 b 215 493 219 481 218 486 l 172 589 l 51 613 l 99 490 b 101 474 101 485 101 479 b 99 456 101 468 101 461 l 68 375 z m 210 603 l 135 771 b 115 785 132 779 124 785 l 63 785 b 40 763 50 785 40 775 b 42 754 40 760 40 757 l 90 625 z m 261 182 b 260 175 260 179 260 178 b 282 153 260 164 269 153 l 336 153 b 356 167 344 153 353 158 l 442 368 l 328 368 z m 404 381 l 436 454 b 440 474 439 460 440 467 b 436 493 440 481 439 486 l 413 543 l 290 567 l 319 490 b 322 474 322 485 322 479 b 319 456 322 468 322 461 l 290 378 z m 450 557 l 356 771 b 336 785 353 779 344 785 l 283 785 b 261 763 271 785 261 775 b 263 754 261 760 261 757 l 328 579 z "},"¿":{"ha":390,"x_min":0,"x_max":0,"o":"m 226 -61 b 190 -115 226 -103 217 -115 b 153 -65 156 -115 153 -103 l 153 193 l 19 136 l 19 -39 b 194 -222 19 -178 89 -222 b 360 -62 306 -222 360 -162 l 360 128 b 310 178 360 156 338 178 l 276 178 b 226 128 249 178 226 156 z m 222 447 l 292 592 l 292 681 b 242 731 292 708 269 731 l 203 731 b 153 681 175 731 153 708 l 153 592 l 104 486 z m 317 896 b 224 988 317 946 274 988 b 131 896 172 988 131 946 b 224 801 131 844 172 801 b 317 896 274 801 317 844 z m 114 194 l 114 303 l 183 446 l 65 485 l -19 303 l -19 139 z "},"`":{"ha":218,"x_min":0,"x_max":0,"o":"m 81 1019 l 104 1049 b 110 1064 108 1053 110 1058 b 106 1076 110 1068 108 1072 l -28 1251 b -46 1260 -32 1257 -39 1260 b -64 1250 -53 1260 -60 1257 l -103 1194 b -107 1182 -106 1190 -107 1186 b -100 1167 -107 1176 -104 1171 l 49 1018 b 64 1011 53 1014 58 1011 b 81 1019 71 1011 76 1014 z "},"´":{"ha":218,"x_min":0,"x_max":0,"o":"m 115 1019 b 132 1011 119 1014 125 1011 b 147 1018 138 1011 143 1014 l 296 1167 b 303 1182 300 1171 303 1176 b 299 1194 303 1186 301 1190 l 260 1250 b 242 1260 256 1257 249 1260 b 224 1251 235 1260 228 1257 l 90 1076 b 86 1064 88 1072 86 1068 b 92 1049 86 1058 88 1053 l 115 1019 z "},"ˆ":{"ha":218,"x_min":0,"x_max":0,"o":"m 121 1207 b 106 1213 117 1210 111 1213 b 92 1207 100 1213 96 1210 l -39 1094 b -47 1078 -44 1090 -47 1085 b -42 1064 -47 1072 -46 1068 l -17 1033 b 0 1025 -12 1028 -7 1025 b 14 1029 4 1025 10 1026 l 107 1099 l 200 1029 b 213 1025 204 1026 208 1025 b 229 1032 218 1025 225 1028 l 256 1064 b 261 1078 260 1068 261 1072 b 253 1094 261 1085 258 1090 z "},"˜":{"ha":218,"x_min":0,"x_max":0,"o":"m 260 1222 l 228 1222 b 203 1200 214 1222 207 1213 b 171 1175 199 1186 183 1175 b 44 1222 138 1175 92 1222 b -61 1103 -15 1222 -53 1178 b -40 1074 -61 1086 -54 1074 l -7 1074 b 19 1097 7 1074 14 1085 b 47 1119 25 1111 36 1119 b 176 1072 83 1119 126 1072 b 279 1189 229 1072 267 1113 b 281 1201 279 1189 281 1197 b 260 1222 281 1215 274 1222 z "},"¯":{"ha":218,"x_min":0,"x_max":0,"o":"m -57 1164 l -57 1101 b -35 1079 -57 1089 -47 1079 l 246 1079 b 268 1101 258 1079 268 1089 l 268 1164 b 246 1186 268 1176 258 1186 l -35 1186 b -57 1164 -47 1186 -57 1176 z "},"˘":{"ha":218,"x_min":0,"x_max":0,"o":"m 263 1215 l 254 1219 b 244 1222 251 1221 247 1222 b 222 1208 236 1222 228 1217 b 107 1140 189 1163 153 1140 b -11 1208 61 1140 22 1163 b -33 1222 -17 1217 -25 1222 b -43 1219 -36 1222 -40 1221 l -50 1215 b -62 1196 -58 1211 -62 1204 b -60 1185 -62 1193 -61 1189 b 107 1044 -25 1093 32 1044 b 271 1182 178 1044 232 1089 b 274 1196 272 1186 274 1192 b 263 1215 274 1204 271 1211 z "},"˙":{"ha":218,"x_min":0,"x_max":0,"o":"m 19 1104 b 104 1021 19 1058 58 1021 b 189 1104 151 1021 189 1058 b 104 1190 189 1151 151 1190 b 19 1104 58 1190 19 1151 z "},"¨":{"ha":218,"x_min":0,"x_max":0,"o":"m -83 1104 b 1 1021 -83 1058 -44 1021 b 86 1104 49 1021 86 1058 b 1 1190 86 1151 49 1190 b -83 1104 -44 1190 -83 1151 z m 124 1104 b 208 1021 124 1058 163 1021 b 293 1104 256 1021 293 1058 b 208 1190 293 1151 256 1190 b 124 1104 163 1190 124 1151 z "},"˚":{"ha":218,"x_min":0,"x_max":0,"o":"m -18 1143 b 103 1022 -18 1076 36 1022 b 226 1143 172 1022 226 1076 b 103 1267 226 1213 172 1267 b -18 1143 36 1267 -18 1213 z m 39 1143 b 103 1210 39 1181 68 1210 b 169 1143 140 1210 169 1181 b 103 1079 169 1108 140 1079 b 39 1143 68 1079 39 1108 z "},"¸":{"ha":218,"x_min":0,"x_max":0,"o":"m 28 -292 l 99 -292 b 247 -199 174 -292 247 -286 b 104 -86 247 -124 197 -86 l 129 0 l 78 0 b 46 -108 47 -99 46 -104 b 108 -153 46 -143 76 -150 b 163 -206 138 -156 163 -167 b 92 -249 163 -243 136 -249 l 67 -249 b 46 -257 58 -249 51 -250 b 24 -282 40 -262 24 -282 b 28 -292 21 -286 24 -292 z "},"˝":{"ha":218,"x_min":0,"x_max":0,"o":"m 38 1032 l 133 1128 b 140 1143 138 1132 140 1138 b 136 1157 140 1147 139 1153 l 100 1204 b 82 1213 96 1210 89 1213 b 65 1204 76 1213 69 1210 l -21 1094 b -25 1082 -24 1090 -25 1086 b -21 1068 -25 1078 -24 1072 l 4 1035 b 22 1025 8 1029 15 1025 b 38 1032 28 1025 33 1028 z m 206 1022 l 300 1118 b 306 1133 304 1122 306 1128 b 301 1147 306 1138 304 1143 l 269 1193 b 251 1203 265 1200 258 1203 b 235 1194 244 1203 239 1200 l 147 1083 b 142 1069 143 1079 142 1074 b 147 1056 142 1064 143 1060 l 172 1024 b 189 1015 176 1018 182 1015 b 206 1022 194 1015 201 1018 z "},"˛":{"ha":217,"x_min":0,"x_max":0,"o":"m 193 -197 b 136 -214 174 -208 154 -214 b 90 -150 106 -214 90 -196 b 150 0 90 -124 106 -83 l 76 0 b -14 -175 17 -76 -14 -129 b 99 -300 -14 -254 31 -300 b 233 -249 153 -300 193 -279 b 240 -232 238 -244 240 -239 l 232 -206 b 213 -192 228 -196 221 -192 b 193 -197 206 -192 199 -194 z "},"ˇ":{"ha":218,"x_min":0,"x_max":0,"o":"m 121 1017 l 253 1129 b 261 1146 258 1133 261 1139 b 256 1160 261 1151 260 1156 l 229 1192 b 213 1199 225 1196 218 1199 b 200 1194 208 1199 204 1197 l 107 1125 l 14 1194 b 0 1199 10 1197 4 1199 b -17 1190 -7 1199 -12 1196 l -42 1160 b -47 1146 -46 1156 -47 1151 b -39 1129 -47 1139 -44 1133 l 92 1017 b 106 1011 96 1013 100 1011 b 121 1017 111 1011 117 1013 z "},"—":{"ha":1274,"x_min":0,"x_max":0,"o":"m 50 443 l 1221 443 b 1271 493 1249 443 1271 465 l 1271 506 b 1221 556 1271 533 1249 556 l 50 556 b 0 506 22 556 0 533 l 0 493 b 50 443 0 465 22 443 z "},"Ł":{"ha":403,"x_min":0,"x_max":0,"o":"m 44 918 l 194 994 l 194 1156 b 144 1206 194 1183 172 1206 l 94 1206 b 44 1156 67 1206 44 1183 z m 83 904 l 83 714 l 49 683 b 32 646 38 674 32 660 l 32 558 b 54 536 32 544 43 536 b 69 542 60 536 65 538 l 83 554 l 83 453 l 233 411 l 233 683 l 375 806 b 393 843 388 815 393 829 l 393 931 b 371 953 393 943 382 953 b 356 946 365 953 360 950 l 233 835 l 233 982 z m 44 440 l 44 50 b 94 0 44 22 67 0 l 336 0 b 386 50 364 0 386 22 l 386 106 b 336 156 386 133 364 156 l 194 156 l 194 399 z "},"Ø":{"ha":481,"x_min":0,"x_max":0,"o":"m 471 592 l 471 854 l 321 819 l 249 633 z m 229 638 l 229 806 l 79 775 l 79 665 z m -31 7 b -32 0 -32 4 -32 3 b -10 -24 -32 -11 -22 -24 l 22 -24 b 42 -10 31 -24 39 -18 l 69 58 b 235 -24 106 -3 172 -24 b 432 176 328 -24 432 22 l 432 578 l 282 607 l 282 192 b 236 118 282 132 267 118 b 190 192 206 118 190 132 l 190 372 l 281 607 l 208 619 l 190 574 l 190 624 l 40 651 l 40 188 z m 190 818 l 190 1014 b 236 1088 190 1075 206 1088 b 282 1014 267 1088 282 1075 l 282 838 l 432 867 l 432 1017 l 501 1199 b 503 1206 503 1201 503 1203 b 481 1229 503 1217 493 1229 l 451 1229 b 432 1215 443 1229 435 1224 l 404 1144 b 235 1229 368 1208 299 1229 b 40 1029 143 1229 40 1185 l 40 789 z "},"ı":{"ha":218,"x_min":0,"x_max":0,"o":"m 172 257 l 36 292 l 36 50 b 86 0 36 22 58 0 l 122 0 b 172 50 150 0 172 22 z m 211 269 l 211 775 l 75 708 l 75 304 z m 172 788 l 172 922 b 122 972 172 950 150 972 l 86 972 b 36 922 58 972 36 950 l 36 721 z "},"ł":{"ha":218,"x_min":0,"x_max":0,"o":"m 36 929 l 172 1013 l 172 1156 b 122 1206 172 1183 150 1206 l 86 1206 b 36 1156 58 1206 36 1183 z m 75 917 l 75 740 l 31 686 b 25 672 26 682 25 678 l 25 582 b 47 560 25 568 36 560 b 64 568 53 560 60 563 l 75 581 l 75 400 l 211 347 l 211 750 l 258 815 b 263 828 261 819 263 824 l 263 913 b 240 935 263 926 251 935 b 222 925 233 935 226 932 l 211 910 l 211 999 z m 36 388 l 36 50 b 86 0 36 22 58 0 l 122 0 b 172 50 150 0 172 22 l 172 333 z "},"ø":{"ha":403,"x_min":0,"x_max":0,"o":"m 229 271 l 229 151 b 197 106 229 108 217 106 b 164 151 176 106 164 108 l 164 276 l 28 276 l 28 142 l -19 19 b -22 10 -21 17 -22 13 b 1 -11 -22 -1 -11 -11 l 32 -11 b 53 4 42 -11 50 -6 l 65 39 b 197 -11 96 7 140 -11 b 365 149 300 -11 365 50 l 365 268 z m 265 663 l 203 501 l 203 642 l 67 593 l 67 286 l 197 286 l 268 469 l 268 282 l 404 282 l 404 713 z m 365 825 b 364 832 365 828 364 829 b 413 954 364 832 403 931 b 414 964 414 957 414 961 b 392 985 414 975 404 985 l 364 985 b 343 971 354 985 346 979 l 328 933 b 197 985 299 965 253 985 b 28 825 93 985 28 922 l 28 607 l 164 654 l 164 821 b 197 868 164 864 176 868 b 229 821 217 868 229 864 l 229 678 l 365 725 z "},"ß":{"ha":403,"x_min":0,"x_max":0,"o":"m 28 493 l 28 50 b 78 0 28 22 50 0 l 114 0 b 164 50 142 0 164 22 l 164 438 z m 67 843 l 67 506 l 203 451 l 203 875 z m 357 932 l 357 992 b 192 1206 357 1106 357 1206 b 28 992 97 1206 28 1150 l 28 856 l 164 888 l 164 1038 b 196 1089 164 1064 169 1089 b 221 1051 218 1089 221 1075 l 221 900 z m 410 368 l 410 522 b 360 676 410 596 410 638 l 342 692 l 342 697 b 396 783 378 714 390 743 l 396 919 l 260 888 l 260 783 b 236 750 260 765 236 750 l 236 633 b 274 599 251 629 271 618 l 274 422 z m 251 -165 b 371 69 356 -165 371 -72 l 371 354 l 235 410 l 235 3 b 215 -43 235 -22 226 -36 b 197 -69 204 -49 197 -57 l 197 -119 b 251 -165 197 -147 224 -165 z "},"¬":{"ha":717,"x_min":0,"x_max":0,"o":"m 626 393 l 651 393 b 701 443 679 393 701 415 l 701 669 b 651 719 701 697 679 719 l 57 719 b 7 669 29 719 7 697 l 7 624 b 57 574 7 596 29 574 l 576 574 l 576 443 b 626 393 576 415 599 393 z "},"µ":{"ha":1443,"x_min":0,"x_max":0,"o":"m 1315 785 b 1203 903 1292 828 1254 867 b 967 979 1122 960 1040 979 b 679 883 804 979 679 883 b 392 979 679 883 554 979 b 156 903 318 979 236 960 b 3 642 47 826 3 736 b 11 569 3 618 6 593 z m 1257 235 b 1446 628 1364 360 1446 497 b 1410 767 1446 675 1435 722 l 103 551 b 185 368 117 490 146 428 z m 679 -203 b 1161 215 679 -203 963 -17 l 96 349 b 679 -203 281 58 679 -203 z "},"Ð":{"ha":481,"x_min":0,"x_max":0,"o":"m 190 871 l 190 1064 l 225 1064 b 282 976 264 1064 282 1053 l 282 896 l 432 938 b 221 1206 432 1146 369 1206 l 90 1206 b 40 1156 63 1206 40 1183 l 40 829 z m 471 382 l 471 922 l 321 881 l 321 393 z m 40 394 l 40 50 b 90 0 40 22 63 0 l 254 0 b 432 215 369 0 432 101 l 432 367 l 282 378 l 282 231 b 225 142 282 153 264 142 l 190 142 l 190 385 z m 79 410 l 229 400 l 229 600 l 256 600 b 278 622 268 600 278 610 l 278 719 b 256 742 278 732 268 742 l 229 742 l 229 856 l 79 813 l 79 742 l 53 742 b 31 719 40 742 31 732 l 31 622 b 53 600 31 610 40 600 l 79 600 z "},"Þ":{"ha":481,"x_min":0,"x_max":0,"o":"m 190 768 l 190 904 l 217 904 b 282 788 268 904 282 872 l 432 818 b 197 1046 431 989 351 1046 l 190 1046 l 190 1156 b 140 1206 190 1183 168 1206 l 90 1206 b 40 1156 63 1206 40 1183 l 40 736 z m 469 506 b 471 549 469 519 471 533 l 471 806 l 321 774 l 321 522 z m 229 532 l 229 754 l 79 722 l 79 547 z m 140 0 b 190 50 168 0 190 22 l 190 294 l 253 294 b 429 493 357 294 418 360 l 282 508 l 282 490 b 190 436 282 442 242 436 l 190 518 l 40 535 l 40 50 b 90 0 40 22 63 0 z "},"¦":{"ha":322,"x_min":0,"x_max":0,"o":"m 144 -212 l 169 -212 b 219 -162 197 -212 219 -190 l 219 321 b 169 371 219 349 197 371 l 144 371 b 94 321 117 371 94 349 l 94 -162 b 144 -212 94 -190 117 -212 z m 144 603 l 169 603 b 219 653 197 603 219 625 l 219 1136 b 169 1186 219 1164 197 1186 l 144 1186 b 94 1136 117 1186 94 1164 l 94 653 b 144 603 94 625 117 603 z "},"°":{"ha":515,"x_min":0,"x_max":0,"o":"m 40 971 b 250 761 40 856 135 761 b 465 971 371 761 465 856 b 250 1186 465 1092 371 1186 b 40 971 135 1186 40 1092 z m 139 971 b 250 1088 139 1036 190 1088 b 367 971 315 1088 367 1036 b 250 860 367 911 315 860 b 139 971 190 860 139 911 z "},"þ":{"ha":403,"x_min":0,"x_max":0,"o":"m 164 682 l 164 789 b 197 847 164 839 179 847 b 229 789 214 847 229 839 l 229 718 l 365 793 l 365 839 b 275 985 365 943 328 985 b 164 917 224 985 189 951 l 164 1206 l 28 1206 l 28 607 z m 404 199 l 404 779 l 268 704 l 268 240 z m 203 260 l 203 668 l 67 593 l 67 301 z m 164 -214 l 164 60 b 264 -11 182 24 221 -11 b 365 133 335 -11 365 40 l 365 186 l 229 226 l 229 183 b 197 125 229 133 214 125 b 164 183 179 125 164 133 l 164 246 l 28 288 l 28 -214 z "},"®":{"ha":1142,"x_min":0,"x_max":0,"o":"m 688 496 l 592 506 l 643 318 b 664 301 646 308 654 301 l 719 301 b 742 322 732 301 742 310 b 740 331 742 325 742 328 z m 1040 789 b 565 1231 975 1058 768 1231 b 69 696 340 1231 107 1024 l 193 707 b 560 1117 228 932 369 1117 b 915 776 728 1117 863 967 z m 1089 472 b 1100 601 1096 514 1100 557 b 1079 776 1100 663 1092 722 l 956 764 b 979 589 971 708 979 649 b 971 485 979 553 976 518 z m 64 558 b 564 -26 72 206 308 -26 b 1050 460 811 -26 1003 181 l 931 472 b 564 92 896 263 761 92 b 186 546 389 92 201 249 z m 225 594 b 232 694 225 628 226 663 l 107 683 b 103 589 104 653 103 621 l 103 571 l 225 558 z m 538 740 l 538 822 b 632 750 611 822 631 822 l 724 758 b 569 914 717 900 629 914 l 463 914 b 440 892 450 914 440 904 l 440 731 z m 440 521 l 440 324 b 463 301 440 311 450 301 l 515 301 b 538 324 528 301 538 311 l 538 511 z m 725 508 l 704 576 b 764 728 728 589 764 614 b 763 746 764 733 763 740 l 671 735 b 576 650 671 650 656 650 l 576 728 l 479 718 l 479 533 l 576 524 l 576 557 l 621 557 l 631 518 z "},"−":{"ha":717,"x_min":0,"x_max":0,"o":"m 701 453 l 701 500 b 651 550 701 528 679 550 l 57 550 b 7 500 29 550 7 528 l 7 453 b 57 403 7 425 29 403 l 651 403 b 701 453 679 403 701 425 z "},"ð":{"ha":403,"x_min":0,"x_max":0,"o":"m 203 322 l 203 589 l 67 554 l 67 357 z m 229 293 l 229 151 b 197 106 229 131 222 106 b 164 151 169 106 164 131 l 164 310 l 28 343 l 28 190 b 197 -11 28 57 106 -11 b 365 190 286 -11 365 57 l 365 258 z m 268 606 l 268 307 l 404 272 l 404 640 z m 157 1046 b 208 911 178 1008 197 963 b 151 925 192 925 169 925 b 28 700 88 925 28 833 l 28 568 l 164 603 l 164 761 b 197 808 164 783 169 808 b 229 761 222 808 229 783 l 229 619 l 365 654 l 365 700 b 257 1139 365 908 313 1043 l 300 1179 b 307 1193 304 1183 307 1188 b 306 1203 307 1196 307 1199 l 297 1221 b 278 1235 293 1229 286 1235 b 264 1229 272 1235 268 1233 l 225 1194 l 207 1224 b 168 1244 199 1238 183 1244 b 132 1231 156 1244 142 1240 l 106 1207 b 89 1168 94 1196 89 1182 b 96 1144 89 1160 90 1151 b 125 1101 106 1132 115 1118 l 69 1049 b 63 1033 65 1044 63 1039 b 64 1025 63 1031 63 1028 l 71 1007 b 92 993 74 999 83 993 b 107 1000 97 993 103 996 z "},"×":{"ha":717,"x_min":0,"x_max":0,"o":"m 551 596 l 675 740 b 686 772 682 749 686 761 b 675 804 686 783 682 794 l 654 831 b 615 850 643 843 629 850 b 576 832 601 850 586 843 l 393 615 b 354 597 382 603 368 597 b 317 615 340 597 326 603 l 132 832 b 94 850 122 843 108 850 b 56 831 81 850 65 843 l 33 804 b 22 772 26 794 22 783 b 35 740 22 761 26 750 l 197 547 z m 188 351 l 35 174 b 22 140 26 164 22 151 b 33 108 22 129 26 118 l 56 82 b 94 64 65 69 81 64 b 132 82 108 64 122 69 l 317 297 b 354 315 326 308 340 315 b 393 297 368 315 382 308 l 576 82 b 615 64 586 69 601 64 b 654 82 629 64 643 69 l 675 110 b 686 142 682 118 686 131 b 675 174 686 153 682 164 l 542 331 z m 231 367 l 575 346 l 508 425 b 496 457 500 435 496 446 b 508 490 496 468 500 481 l 585 579 l 240 533 l 279 488 b 292 454 288 478 292 465 b 279 422 292 443 288 432 z "},"©":{"ha":1142,"x_min":0,"x_max":0,"o":"m 1042 776 b 564 1231 981 1053 769 1231 b 64 640 328 1231 82 1001 l 188 657 b 558 1117 206 904 356 1117 b 919 760 732 1117 869 958 z m 1090 489 b 1099 601 1096 525 1099 563 b 1082 764 1099 658 1093 713 l 958 747 b 978 589 971 696 978 643 b 971 492 978 556 975 524 z m 67 497 b 563 -26 100 179 322 -26 b 1051 479 814 -26 1010 189 l 932 479 b 563 92 899 265 763 92 b 190 494 399 92 222 231 z m 224 594 b 225 644 224 611 224 628 l 103 626 b 101 589 101 614 101 601 b 106 508 101 563 103 536 l 229 508 b 224 594 225 535 224 564 z m 536 706 b 540 783 536 736 538 763 b 568 838 544 818 550 838 b 601 786 590 838 599 814 b 625 761 604 772 611 761 l 685 761 b 704 786 699 761 704 772 l 704 794 b 574 931 690 888 642 931 b 418 690 465 931 426 846 z m 575 500 b 574 597 574 536 574 572 l 574 693 l 457 676 b 456 604 456 654 456 629 b 458 503 456 567 457 533 z m 600 394 b 575 364 596 368 590 364 b 547 388 557 364 549 381 b 536 490 540 411 538 450 l 419 490 b 575 271 431 346 469 271 b 706 413 676 271 699 360 b 683 429 706 414 706 429 l 624 429 b 600 394 606 429 603 415 z "},"Ω":{"ha":586,"x_min":0,"x_max":0,"o":"m 226 128 b 242 164 236 138 242 150 l 242 425 l 92 460 l 92 143 l 49 143 b -1 93 21 143 -1 121 l -1 50 b 49 0 -1 22 21 0 l 74 0 b 108 14 88 0 99 4 z m 281 439 l 281 790 l 131 733 l 131 472 z m 242 803 l 242 1014 b 288 1088 242 1074 257 1088 b 333 1014 318 1088 333 1074 l 333 838 l 483 894 l 483 1029 b 286 1229 483 1183 379 1229 b 92 1029 194 1229 92 1183 l 92 747 z m 372 825 l 372 418 l 522 383 l 522 882 z m 333 404 l 333 164 b 349 128 333 150 339 138 l 467 14 b 501 0 476 4 489 0 l 528 0 b 578 50 556 0 578 22 l 578 93 b 528 143 578 121 556 143 l 483 143 l 483 371 z "},"€":{"ha":481,"x_min":0,"x_max":0,"o":"m 224 853 b 285 1082 229 1031 246 1082 b 336 1015 311 1082 325 1068 b 338 1008 336 1013 338 1011 b 392 940 344 969 351 940 l 417 940 b 464 999 449 940 464 968 b 463 1014 464 1004 464 1008 b 286 1233 440 1151 379 1233 b 76 822 157 1233 94 1108 z m 78 376 b 286 -15 97 97 160 -15 b 463 171 375 -15 432 43 b 465 196 464 179 465 188 b 419 251 465 226 451 251 l 390 251 b 340 203 363 251 344 229 b 288 132 335 165 321 132 b 225 328 251 132 233 178 z m 260 582 l 260 676 l 386 676 b 407 696 397 676 406 685 l 417 753 b 394 778 417 767 407 778 l 261 778 b 263 840 261 800 261 821 l 115 811 b 114 778 115 800 114 789 l 68 778 b 46 758 57 778 49 769 l 38 701 b 60 676 38 688 47 676 l 111 676 l 111 582 l 68 582 b 46 563 57 582 49 574 l 38 506 b 60 481 38 492 47 481 l 113 481 b 117 389 113 449 115 418 l 264 339 b 261 481 263 379 261 425 l 361 481 b 383 500 372 481 382 489 l 392 557 b 369 582 392 571 382 582 z "},"∞":{"ha":1151,"x_min":0,"x_max":0,"o":"m 699 485 b 890 557 768 543 864 557 b 1011 489 914 557 1011 543 b 889 419 1011 438 922 419 b 699 485 810 419 736 460 z m 618 401 l 640 418 b 915 314 693 375 804 314 b 1128 492 1056 314 1128 399 b 881 672 1128 565 1074 672 b 721 643 821 672 765 660 z m 565 581 b 556 590 563 583 560 586 b 289 694 524 624 454 694 b 38 499 136 694 38 619 b 296 310 38 376 122 310 b 571 396 435 310 511 353 l 675 640 b 565 581 622 619 583 594 z m 496 515 b 293 421 414 439 333 421 b 149 500 236 421 149 443 b 296 583 149 557 236 583 b 496 515 360 583 442 544 z "},"≈":{"ha":531,"x_min":0,"x_max":0,"o":"m 88 538 b 153 594 103 568 122 594 b 346 522 217 594 304 522 b 483 636 428 522 454 568 b 486 647 485 640 486 643 b 478 665 486 654 483 661 l 458 679 b 446 685 454 682 450 685 b 424 669 438 685 429 679 b 354 622 406 642 388 622 b 265 656 338 622 311 631 b 161 694 196 694 172 694 b 36 572 89 694 69 665 b 32 554 33 567 32 560 b 39 539 32 549 33 543 l 53 528 b 65 522 57 525 61 522 b 88 538 74 522 83 528 z m 88 288 b 153 344 103 318 122 344 b 346 272 217 344 304 272 b 478 375 401 272 424 285 b 486 399 482 383 486 392 b 478 415 486 404 483 410 l 458 429 b 446 435 454 432 450 435 b 424 419 438 435 429 429 b 354 372 406 392 388 372 b 265 406 338 372 311 381 b 161 444 196 444 172 444 b 36 322 89 444 69 415 b 32 304 33 317 32 310 b 39 289 32 299 33 293 l 53 278 b 65 272 57 275 61 272 b 88 288 74 272 83 278 z "}," ":{"ha":235,"x_min":0,"x_max":0,"o":""},"Š":{"ha":481,"x_min":0,"x_max":0,"o":"m 226 778 b 190 868 204 815 190 847 l 190 1014 b 236 1088 190 1075 206 1088 b 282 1014 267 1088 282 1075 l 282 876 b 332 826 282 849 304 826 l 382 826 b 432 876 410 826 432 849 l 432 1029 b 235 1229 432 1185 328 1229 b 40 1029 143 1229 40 1185 l 40 860 b 90 697 40 803 61 749 z m 393 578 b 267 772 351 646 300 715 l 129 690 b 192 594 147 658 169 626 z m 90 396 b 40 346 63 396 40 374 l 40 176 b 235 -24 40 22 143 -24 b 432 176 328 -24 432 22 l 432 386 b 356 563 432 431 397 494 l 154 578 l 167 560 b 282 317 225 478 282 397 l 282 192 b 236 118 282 132 267 118 b 190 192 206 118 190 132 l 190 346 b 140 396 190 374 168 396 z m 249 1286 l 381 1399 b 389 1415 386 1403 389 1408 b 383 1429 389 1421 388 1425 l 357 1461 b 340 1468 353 1465 346 1468 b 328 1464 336 1468 332 1467 l 235 1394 l 142 1464 b 128 1468 138 1467 132 1468 b 111 1460 121 1468 115 1465 l 86 1429 b 81 1415 82 1425 81 1421 b 89 1399 81 1408 83 1403 l 219 1286 b 233 1281 224 1282 228 1281 b 249 1286 239 1281 244 1282 z "},"Ž":{"ha":375,"x_min":0,"x_max":0,"o":"m 19 1101 b 69 1051 19 1074 42 1051 l 190 1051 l 132 751 l 300 832 l 349 1076 l 349 1156 b 299 1206 349 1183 326 1206 l 69 1206 b 19 1156 42 1206 19 1183 z m 171 740 l 131 528 l 275 492 l 339 821 z m 90 517 l 15 124 l 15 50 b 65 0 15 22 38 0 l 300 0 b 350 50 328 0 350 22 l 350 106 b 300 156 350 133 328 156 l 172 156 l 235 479 z m 196 1286 l 328 1399 b 336 1415 333 1403 336 1408 b 331 1429 336 1421 335 1425 l 304 1461 b 288 1468 300 1465 293 1468 b 275 1464 283 1468 279 1467 l 182 1394 l 89 1464 b 75 1468 85 1467 79 1468 b 58 1460 68 1468 63 1465 l 33 1429 b 28 1415 29 1425 28 1421 b 36 1399 28 1408 31 1403 l 167 1286 b 181 1281 171 1282 175 1281 b 196 1286 186 1281 192 1282 z "},"š":{"ha":403,"x_min":0,"x_max":0,"o":"m 235 599 b 164 731 196 647 164 692 l 164 810 b 197 868 164 860 179 868 b 229 810 214 868 229 860 l 229 719 b 279 669 229 692 251 669 l 315 669 b 365 719 343 669 365 692 l 365 825 b 197 985 365 922 300 985 b 28 825 93 985 28 922 l 28 696 b 90 540 28 639 56 589 z m 372 414 b 272 567 353 467 311 518 l 256 588 l 111 529 b 190 422 136 493 165 458 z m 28 149 b 197 -11 28 50 93 -11 b 365 149 300 -11 365 50 l 365 342 b 354 401 365 361 361 382 l 172 410 b 229 261 204 364 229 315 l 229 164 b 197 106 229 114 214 106 b 164 164 179 106 164 114 l 164 281 b 114 331 164 308 142 331 l 78 331 b 28 281 50 331 28 308 z m 210 1017 l 342 1129 b 350 1146 347 1133 350 1139 b 344 1160 350 1151 349 1156 l 318 1192 b 301 1199 314 1196 307 1199 b 289 1194 297 1199 293 1197 l 196 1125 l 103 1194 b 89 1199 99 1197 93 1199 b 72 1190 82 1199 76 1196 l 47 1160 b 42 1146 43 1156 42 1151 b 50 1129 42 1139 44 1133 l 181 1017 b 194 1011 185 1013 189 1011 b 210 1017 200 1011 206 1013 z "},"ž":{"ha":322,"x_min":0,"x_max":0,"o":"m 250 638 l 296 846 l 296 922 b 246 972 296 950 274 972 l 56 972 b 6 922 28 972 6 950 l 6 896 b 56 846 6 868 28 846 l 161 846 l 107 606 z m 213 371 l 268 625 l 126 593 l 86 413 z m 6 50 b 56 0 6 22 28 0 l 257 0 b 307 50 285 0 307 22 l 307 76 b 257 126 307 104 285 126 l 140 126 l 192 358 l 65 400 l 6 132 z m 169 1017 l 301 1129 b 310 1146 307 1133 310 1139 b 304 1160 310 1151 308 1156 l 278 1192 b 261 1199 274 1196 267 1199 b 249 1194 257 1199 253 1197 l 156 1125 l 63 1194 b 49 1199 58 1197 53 1199 b 32 1190 42 1199 36 1196 l 7 1160 b 1 1146 3 1156 1 1151 b 10 1129 1 1139 4 1133 l 140 1017 b 154 1011 144 1013 149 1011 b 169 1017 160 1011 165 1013 z "},"Ÿ":{"ha":481,"x_min":0,"x_max":0,"o":"m 408 938 l 453 1146 b 454 1154 453 1149 454 1151 b 403 1206 454 1181 432 1206 l 365 1206 b 317 1165 342 1206 321 1189 l 271 939 b 260 881 267 919 263 900 z m 88 814 l 224 865 b 210 947 219 888 217 913 l 168 1165 b 119 1206 164 1189 143 1206 l 67 1206 b 17 1157 39 1206 17 1183 b 18 1146 17 1153 17 1150 z m 126 801 l 158 651 l 383 622 l 447 925 l 300 868 b 285 682 292 811 286 750 l 279 682 b 263 854 271 768 269 803 z m 119 640 l 161 443 l 161 50 b 211 0 161 22 183 0 l 261 0 b 311 50 289 0 311 22 l 311 451 l 344 611 z m 53 1374 b 138 1290 53 1328 92 1290 b 222 1374 185 1290 222 1328 b 138 1460 222 1421 185 1460 b 53 1374 92 1460 53 1421 z m 260 1374 b 344 1290 260 1328 299 1290 b 429 1374 392 1290 429 1328 b 344 1460 429 1421 392 1460 b 260 1374 299 1460 260 1421 z "},"À":{"ha":481,"x_min":0,"x_max":0,"o":"m 456 314 l 410 790 l 276 736 l 292 486 l 214 486 l 231 718 l 93 663 l 69 414 z m 210 733 l 228 989 l 239 989 l 254 751 l 388 806 l 353 1160 b 304 1206 350 1186 329 1206 l 168 1206 b 118 1160 142 1206 121 1186 l 72 678 z m 100 0 b 150 44 125 0 147 19 l 176 322 l 283 322 l 307 46 b 357 0 310 19 332 0 l 408 0 b 458 50 436 0 458 22 l 458 54 l 435 299 l 47 399 l 14 54 l 14 50 b 64 0 14 22 36 0 z m 232 1289 l 256 1318 b 261 1333 260 1322 261 1328 b 257 1346 261 1338 260 1342 l 124 1521 b 106 1529 119 1526 113 1529 b 88 1519 99 1529 92 1526 l 49 1464 b 44 1451 46 1460 44 1456 b 51 1436 44 1446 47 1440 l 200 1288 b 215 1281 204 1283 210 1281 b 232 1289 222 1281 228 1283 z "},"à":{"ha":403,"x_min":0,"x_max":0,"o":"m 364 438 l 364 825 b 196 985 364 922 299 985 b 26 825 92 985 26 922 l 26 725 b 76 675 26 697 49 675 l 114 675 b 164 725 142 675 164 697 l 164 831 b 199 868 164 831 163 868 l 210 868 b 229 846 221 868 229 857 l 229 707 b 214 671 229 693 224 681 l 75 535 b 26 419 43 503 26 465 l 26 311 l 163 363 l 163 438 b 176 472 163 451 167 463 l 228 526 l 228 386 z m 182 214 l 182 350 l 46 299 l 46 221 z m 383 204 l 383 425 l 247 374 l 247 210 z m 228 164 b 196 125 228 142 214 125 b 163 157 176 125 163 136 l 163 201 l 26 208 l 26 99 b 119 -11 26 26 60 -11 b 222 65 175 -11 194 10 l 228 65 l 235 19 b 257 0 236 8 246 0 l 314 0 b 364 50 342 0 364 22 l 364 192 l 228 199 z m 193 1019 l 217 1049 b 222 1064 221 1053 222 1058 b 218 1076 222 1068 221 1072 l 85 1251 b 67 1260 81 1257 74 1260 b 49 1250 60 1260 53 1257 l 10 1194 b 6 1182 7 1190 6 1186 b 13 1167 6 1176 8 1171 l 161 1018 b 176 1011 165 1014 171 1011 b 193 1019 183 1011 189 1014 z "},"á":{"ha":403,"x_min":0,"x_max":0,"o":"m 364 438 l 364 825 b 196 985 364 922 299 985 b 26 825 92 985 26 922 l 26 725 b 76 675 26 697 49 675 l 114 675 b 164 725 142 675 164 697 l 164 831 b 199 868 164 831 163 868 l 210 868 b 229 846 221 868 229 857 l 229 707 b 214 671 229 693 224 681 l 75 535 b 26 419 43 503 26 465 l 26 311 l 163 363 l 163 438 b 176 472 163 451 167 463 l 228 526 l 228 386 z m 182 214 l 182 350 l 46 299 l 46 221 z m 383 204 l 383 425 l 247 374 l 247 210 z m 228 164 b 196 125 228 142 214 125 b 163 157 176 125 163 136 l 163 201 l 26 208 l 26 99 b 119 -11 26 26 60 -11 b 222 65 175 -11 194 10 l 228 65 l 235 19 b 257 0 236 8 246 0 l 314 0 b 364 50 342 0 364 22 l 364 192 l 228 199 z m 186 1019 b 203 1011 190 1014 196 1011 b 218 1018 208 1011 214 1014 l 367 1167 b 374 1182 371 1171 374 1176 b 369 1194 374 1186 372 1190 l 331 1250 b 313 1260 326 1257 319 1260 b 294 1251 306 1260 299 1257 l 161 1076 b 157 1064 158 1072 157 1068 b 163 1049 157 1058 158 1053 l 186 1019 z "},"â":{"ha":403,"x_min":0,"x_max":0,"o":"m 364 438 l 364 825 b 196 985 364 922 299 985 b 26 825 92 985 26 922 l 26 725 b 76 675 26 697 49 675 l 114 675 b 164 725 142 675 164 697 l 164 831 b 199 868 164 831 163 868 l 210 868 b 229 846 221 868 229 857 l 229 707 b 214 671 229 693 224 681 l 75 535 b 26 419 43 503 26 465 l 26 311 l 163 363 l 163 438 b 176 472 163 451 167 463 l 228 526 l 228 386 z m 182 214 l 182 350 l 46 299 l 46 221 z m 383 204 l 383 425 l 247 374 l 247 210 z m 228 164 b 196 125 228 142 214 125 b 163 157 176 125 163 136 l 163 201 l 26 208 l 26 99 b 119 -11 26 26 60 -11 b 222 65 175 -11 194 10 l 228 65 l 235 19 b 257 0 236 8 246 0 l 314 0 b 364 50 342 0 364 22 l 364 192 l 228 199 z m 210 1207 b 194 1213 206 1210 200 1213 b 181 1207 189 1213 185 1210 l 50 1094 b 42 1078 44 1090 42 1085 b 47 1064 42 1072 43 1068 l 72 1033 b 89 1025 76 1028 82 1025 b 103 1029 93 1025 99 1026 l 196 1099 l 289 1029 b 301 1025 293 1026 297 1025 b 318 1032 307 1025 314 1028 l 344 1064 b 350 1078 349 1068 350 1072 b 342 1094 350 1085 347 1090 z "},"ã":{"ha":403,"x_min":0,"x_max":0,"o":"m 364 438 l 364 825 b 196 985 364 922 299 985 b 26 825 92 985 26 922 l 26 725 b 76 675 26 697 49 675 l 114 675 b 164 725 142 675 164 697 l 164 831 b 199 868 164 831 163 868 l 210 868 b 229 846 221 868 229 857 l 229 707 b 214 671 229 693 224 681 l 75 535 b 26 419 43 503 26 465 l 26 311 l 163 363 l 163 438 b 176 472 163 451 167 463 l 228 526 l 228 386 z m 182 214 l 182 350 l 46 299 l 46 221 z m 383 204 l 383 425 l 247 374 l 247 210 z m 228 164 b 196 125 228 142 214 125 b 163 157 176 125 163 136 l 163 201 l 26 208 l 26 99 b 119 -11 26 26 60 -11 b 222 65 175 -11 194 10 l 228 65 l 235 19 b 257 0 236 8 246 0 l 314 0 b 364 50 342 0 364 22 l 364 192 l 228 199 z m 346 1222 l 314 1222 b 289 1200 300 1222 293 1213 b 257 1175 285 1186 269 1175 b 131 1222 224 1175 178 1222 b 25 1103 71 1222 33 1178 b 46 1074 25 1086 32 1074 l 79 1074 b 106 1097 93 1074 100 1085 b 133 1119 111 1111 122 1119 b 263 1072 169 1119 213 1072 b 365 1189 315 1072 353 1113 b 367 1201 365 1189 367 1197 b 346 1222 367 1215 360 1222 z "},"ä":{"ha":403,"x_min":0,"x_max":0,"o":"m 364 438 l 364 825 b 196 985 364 922 299 985 b 26 825 92 985 26 922 l 26 725 b 76 675 26 697 49 675 l 114 675 b 164 725 142 675 164 697 l 164 831 b 199 868 164 831 163 868 l 210 868 b 229 846 221 868 229 857 l 229 707 b 214 671 229 693 224 681 l 75 535 b 26 419 43 503 26 465 l 26 311 l 163 363 l 163 438 b 176 472 163 451 167 463 l 228 526 l 228 386 z m 182 214 l 182 350 l 46 299 l 46 221 z m 383 204 l 383 425 l 247 374 l 247 210 z m 228 164 b 196 125 228 142 214 125 b 163 157 176 125 163 136 l 163 201 l 26 208 l 26 99 b 119 -11 26 26 60 -11 b 222 65 175 -11 194 10 l 228 65 l 235 19 b 257 0 236 8 246 0 l 314 0 b 364 50 342 0 364 22 l 364 192 l 228 199 z m 8 1104 b 93 1021 8 1058 47 1021 b 178 1104 140 1021 178 1058 b 93 1190 178 1151 140 1190 b 8 1104 47 1190 8 1151 z m 215 1104 b 300 1021 215 1058 254 1021 b 385 1104 347 1021 385 1058 b 300 1190 385 1151 347 1190 b 215 1104 254 1190 215 1151 z "},"å":{"ha":403,"x_min":0,"x_max":0,"o":"m 364 438 l 364 825 b 196 985 364 922 299 985 b 26 825 92 985 26 922 l 26 725 b 76 675 26 697 49 675 l 114 675 b 164 725 142 675 164 697 l 164 831 b 199 868 164 831 163 868 l 210 868 b 229 846 221 868 229 857 l 229 707 b 214 671 229 693 224 681 l 75 535 b 26 419 43 503 26 465 l 26 311 l 163 363 l 163 438 b 176 472 163 451 167 463 l 228 526 l 228 386 z m 182 214 l 182 350 l 46 299 l 46 221 z m 383 204 l 383 425 l 247 374 l 247 210 z m 228 164 b 196 125 228 142 214 125 b 163 157 176 125 163 136 l 163 201 l 26 208 l 26 99 b 119 -11 26 26 60 -11 b 222 65 175 -11 194 10 l 228 65 l 235 19 b 257 0 236 8 246 0 l 314 0 b 364 50 342 0 364 22 l 364 192 l 228 199 z m 75 1143 b 196 1022 75 1076 129 1022 b 319 1143 265 1022 319 1076 b 196 1267 319 1213 265 1267 b 75 1143 129 1267 75 1213 z m 132 1143 b 196 1210 132 1181 161 1210 b 263 1143 233 1210 263 1181 b 196 1079 263 1108 233 1079 b 132 1143 161 1079 132 1108 z "},"æ":{"ha":604,"x_min":0,"x_max":0,"o":"m 203 313 l 203 407 b 268 503 203 457 231 476 l 268 299 l 404 268 l 404 465 l 556 465 b 606 515 583 465 606 488 l 606 701 l 469 671 l 469 576 l 404 576 l 404 656 l 215 613 b 67 428 157 554 67 558 l 67 343 z m 431 242 l 431 163 b 399 117 431 119 418 117 b 365 153 379 117 365 118 l 365 256 l 229 286 l 229 175 b 197 136 229 153 215 139 b 164 168 176 136 168 149 l 164 300 l 28 331 l 28 110 b 121 0 28 38 61 0 b 226 76 176 0 199 21 l 236 19 b 257 0 238 8 246 0 l 399 0 b 567 160 501 0 567 61 l 567 211 z m 469 254 l 606 224 l 606 304 b 556 354 606 332 583 354 l 519 354 b 469 304 492 354 469 332 z m 365 668 l 365 821 b 399 868 365 864 378 868 b 431 821 418 868 431 864 l 431 683 l 567 714 l 567 825 b 399 985 567 922 501 985 b 297 958 358 985 324 975 b 197 985 269 975 236 985 b 28 825 93 985 28 922 l 28 725 b 78 675 28 697 50 675 l 115 675 b 165 725 143 675 165 697 l 165 790 b 199 868 165 825 168 868 b 225 806 222 868 225 835 l 225 772 b 179 626 225 696 206 654 z "},"œ":{"ha":600,"x_min":0,"x_max":0,"o":"m 164 631 l 164 821 b 197 868 164 864 176 868 b 229 821 217 868 229 864 l 229 638 l 365 656 l 365 821 b 399 868 365 864 378 868 b 431 821 418 868 431 864 l 431 664 l 567 681 l 567 825 b 399 985 567 922 501 985 b 297 958 358 985 324 975 b 197 985 269 975 236 985 b 28 825 93 985 28 922 l 28 613 z m 431 151 b 399 106 431 108 418 106 b 365 142 379 106 365 107 l 365 400 l 229 413 l 229 151 b 197 106 229 108 217 106 b 164 151 176 106 164 108 l 164 418 l 28 429 l 28 149 b 197 -11 28 50 93 -11 b 297 14 236 -11 269 -1 b 399 -11 324 -1 358 -11 b 567 149 501 -11 567 50 l 567 283 b 517 333 567 311 544 333 l 481 333 b 431 283 453 333 431 311 z m 203 429 l 203 618 l 67 601 l 67 440 z m 404 413 l 404 465 l 556 465 b 606 515 583 465 606 488 l 606 669 l 469 651 l 469 576 l 404 576 l 404 643 l 268 626 l 268 424 z "},"Œ":{"ha":665,"x_min":0,"x_max":0,"o":"m 190 808 l 190 990 b 236 1064 190 1051 206 1064 b 282 990 267 1064 282 1051 l 282 831 l 432 865 l 432 1051 l 567 1051 b 617 1101 594 1051 617 1074 l 617 1156 b 567 1206 617 1183 594 1206 l 235 1206 b 40 1006 143 1206 40 1161 l 40 774 z m 40 200 b 235 0 40 46 143 0 l 585 0 b 635 50 613 0 635 22 l 635 107 b 585 157 635 135 613 157 l 432 157 l 432 347 l 282 376 l 282 215 b 236 142 282 156 267 142 b 190 215 206 142 190 156 l 190 393 l 40 422 z m 229 406 l 229 797 l 79 763 l 79 435 z m 471 360 l 471 581 l 571 581 b 621 631 599 581 621 603 l 621 685 b 571 735 621 713 599 735 l 471 735 l 471 853 l 321 818 l 321 388 z "},"è":{"ha":403,"x_min":0,"x_max":0,"o":"m 164 728 l 164 821 b 197 868 164 864 176 868 b 229 821 217 868 229 864 l 229 747 l 365 789 l 365 825 b 197 985 365 922 300 985 b 28 825 93 985 28 922 l 28 686 z m 388 586 l 388 776 l 251 735 l 251 593 z m 186 597 l 186 715 l 50 674 l 50 604 z m 229 151 b 197 106 229 108 217 106 b 164 151 176 106 164 108 l 164 456 l 315 456 b 365 506 343 456 365 478 l 365 574 l 229 581 l 229 567 l 164 567 l 164 585 l 28 592 l 28 149 b 197 -11 28 50 93 -11 b 365 149 300 -11 365 50 l 365 283 b 315 333 365 311 343 333 l 279 333 b 229 283 251 333 229 311 z m 193 1019 l 217 1049 b 222 1064 221 1053 222 1058 b 218 1076 222 1068 221 1072 l 85 1251 b 67 1260 81 1257 74 1260 b 49 1250 60 1260 53 1257 l 10 1194 b 6 1182 7 1190 6 1186 b 13 1167 6 1176 8 1171 l 161 1018 b 176 1011 165 1014 171 1011 b 193 1019 183 1011 189 1014 z "},"é":{"ha":403,"x_min":0,"x_max":0,"o":"m 164 728 l 164 821 b 197 868 164 864 176 868 b 229 821 217 868 229 864 l 229 747 l 365 789 l 365 825 b 197 985 365 922 300 985 b 28 825 93 985 28 922 l 28 686 z m 388 586 l 388 776 l 251 735 l 251 593 z m 186 597 l 186 715 l 50 674 l 50 604 z m 229 151 b 197 106 229 108 217 106 b 164 151 176 106 164 108 l 164 456 l 315 456 b 365 506 343 456 365 478 l 365 574 l 229 581 l 229 567 l 164 567 l 164 585 l 28 592 l 28 149 b 197 -11 28 50 93 -11 b 365 149 300 -11 365 50 l 365 283 b 315 333 365 311 343 333 l 279 333 b 229 283 251 333 229 311 z m 186 1019 b 203 1011 190 1014 196 1011 b 218 1018 208 1011 214 1014 l 367 1167 b 374 1182 371 1171 374 1176 b 369 1194 374 1186 372 1190 l 331 1250 b 313 1260 326 1257 319 1260 b 294 1251 306 1260 299 1257 l 161 1076 b 157 1064 158 1072 157 1068 b 163 1049 157 1058 158 1053 l 186 1019 z "},"ê":{"ha":403,"x_min":0,"x_max":0,"o":"m 164 728 l 164 821 b 197 868 164 864 176 868 b 229 821 217 868 229 864 l 229 747 l 365 789 l 365 825 b 197 985 365 922 300 985 b 28 825 93 985 28 922 l 28 686 z m 388 586 l 388 776 l 251 735 l 251 593 z m 186 597 l 186 715 l 50 674 l 50 604 z m 229 151 b 197 106 229 108 217 106 b 164 151 176 106 164 108 l 164 456 l 315 456 b 365 506 343 456 365 478 l 365 574 l 229 581 l 229 567 l 164 567 l 164 585 l 28 592 l 28 149 b 197 -11 28 50 93 -11 b 365 149 300 -11 365 50 l 365 283 b 315 333 365 311 343 333 l 279 333 b 229 283 251 333 229 311 z m 210 1207 b 194 1213 206 1210 200 1213 b 181 1207 189 1213 185 1210 l 50 1094 b 42 1078 44 1090 42 1085 b 47 1064 42 1072 43 1068 l 72 1033 b 89 1025 76 1028 82 1025 b 103 1029 93 1025 99 1026 l 196 1099 l 289 1029 b 301 1025 293 1026 297 1025 b 318 1032 307 1025 314 1028 l 344 1064 b 350 1078 349 1068 350 1072 b 342 1094 350 1085 347 1090 z "},"ë":{"ha":403,"x_min":0,"x_max":0,"o":"m 164 728 l 164 821 b 197 868 164 864 176 868 b 229 821 217 868 229 864 l 229 747 l 365 789 l 365 825 b 197 985 365 922 300 985 b 28 825 93 985 28 922 l 28 686 z m 388 586 l 388 776 l 251 735 l 251 593 z m 186 597 l 186 715 l 50 674 l 50 604 z m 229 151 b 197 106 229 108 217 106 b 164 151 176 106 164 108 l 164 456 l 315 456 b 365 506 343 456 365 478 l 365 574 l 229 581 l 229 567 l 164 567 l 164 585 l 28 592 l 28 149 b 197 -11 28 50 93 -11 b 365 149 300 -11 365 50 l 365 283 b 315 333 365 311 343 333 l 279 333 b 229 283 251 333 229 311 z m 8 1104 b 93 1021 8 1058 47 1021 b 178 1104 140 1021 178 1058 b 93 1190 178 1151 140 1190 b 8 1104 47 1190 8 1151 z m 215 1104 b 300 1021 215 1058 254 1021 b 385 1104 347 1021 385 1058 b 300 1190 385 1151 347 1190 b 215 1104 254 1190 215 1151 z "},"ì":{"ha":218,"x_min":0,"x_max":0,"o":"m 172 257 l 36 292 l 36 50 b 86 0 36 22 58 0 l 122 0 b 172 50 150 0 172 22 z m 211 269 l 211 775 l 75 708 l 75 304 z m 172 788 l 172 922 b 122 972 172 950 150 972 l 86 972 b 36 922 58 972 36 950 l 36 721 z m 101 1019 l 125 1049 b 131 1064 129 1053 131 1058 b 126 1076 131 1068 129 1072 l -7 1251 b -25 1260 -11 1257 -18 1260 b -43 1250 -32 1260 -39 1257 l -82 1194 b -86 1182 -85 1190 -86 1186 b -79 1167 -86 1176 -83 1171 l 69 1018 b 85 1011 74 1014 79 1011 b 101 1019 92 1011 97 1014 z "},"í":{"ha":218,"x_min":0,"x_max":0,"o":"m 172 257 l 36 292 l 36 50 b 86 0 36 22 58 0 l 122 0 b 172 50 150 0 172 22 z m 211 269 l 211 775 l 75 708 l 75 304 z m 172 788 l 172 922 b 122 972 172 950 150 972 l 86 972 b 36 922 58 972 36 950 l 36 721 z m 94 1019 b 111 1011 99 1014 104 1011 b 126 1018 117 1011 122 1014 l 275 1167 b 282 1182 279 1171 282 1176 b 278 1194 282 1186 281 1190 l 239 1250 b 221 1260 235 1257 228 1260 b 203 1251 214 1260 207 1257 l 69 1076 b 65 1064 67 1072 65 1068 b 71 1049 65 1058 67 1053 l 94 1019 z "},"î":{"ha":218,"x_min":0,"x_max":0,"o":"m 172 257 l 36 292 l 36 50 b 86 0 36 22 58 0 l 122 0 b 172 50 150 0 172 22 z m 211 269 l 211 775 l 75 708 l 75 304 z m 172 788 l 172 922 b 122 972 172 950 150 972 l 86 972 b 36 922 58 972 36 950 l 36 721 z m 118 1207 b 103 1213 114 1210 108 1213 b 89 1207 97 1213 93 1210 l -42 1094 b -50 1078 -47 1090 -50 1085 b -44 1064 -50 1072 -49 1068 l -19 1033 b -3 1025 -15 1028 -10 1025 b 11 1029 1 1025 7 1026 l 104 1099 l 197 1029 b 210 1025 201 1026 206 1025 b 226 1032 215 1025 222 1028 l 253 1064 b 258 1078 257 1068 258 1072 b 250 1094 258 1085 256 1090 z "},"ï":{"ha":218,"x_min":0,"x_max":0,"o":"m 172 257 l 36 292 l 36 50 b 86 0 36 22 58 0 l 122 0 b 172 50 150 0 172 22 z m 211 269 l 211 775 l 75 708 l 75 304 z m 172 788 l 172 922 b 122 972 172 950 150 972 l 86 972 b 36 922 58 972 36 950 l 36 721 z m -83 1104 b 1 1021 -83 1058 -44 1021 b 86 1104 49 1021 86 1058 b 1 1190 86 1151 49 1190 b -83 1104 -44 1190 -83 1151 z m 124 1104 b 208 1021 124 1058 163 1021 b 293 1104 256 1021 293 1058 b 208 1190 293 1151 256 1190 b 124 1104 163 1190 124 1151 z "},"ñ":{"ha":403,"x_min":0,"x_max":0,"o":"m 164 696 l 164 789 b 200 847 164 817 165 847 b 229 789 228 847 229 817 l 229 717 l 365 763 l 365 813 b 261 985 365 913 364 985 b 169 918 224 985 188 963 l 164 918 l 154 956 b 133 972 151 965 143 972 l 78 972 b 28 922 50 972 28 950 l 28 650 z m 249 706 l 249 438 l 385 438 l 385 750 z m 183 443 l 183 683 l 47 639 l 47 447 z m 229 429 l 229 50 b 279 0 229 22 251 0 l 315 0 b 365 50 343 0 365 22 l 365 425 z m 114 0 b 164 50 142 0 164 22 l 164 432 l 28 435 l 28 50 b 78 0 28 22 50 0 z m 346 1222 l 314 1222 b 289 1200 300 1222 293 1213 b 257 1175 285 1186 269 1175 b 131 1222 224 1175 178 1222 b 25 1103 71 1222 33 1178 b 46 1074 25 1086 32 1074 l 79 1074 b 106 1097 93 1074 100 1085 b 133 1119 111 1111 122 1119 b 263 1072 169 1119 213 1072 b 365 1189 315 1072 353 1113 b 367 1201 365 1189 367 1197 b 346 1222 367 1215 360 1222 z "},"ò":{"ha":403,"x_min":0,"x_max":0,"o":"m 365 701 l 365 825 b 197 985 365 922 300 985 b 28 825 93 985 28 922 l 28 610 l 164 647 l 164 821 b 197 868 164 864 176 868 b 229 821 217 868 229 864 l 229 664 z m 183 411 l 183 635 l 47 597 l 47 422 z m 385 393 l 385 690 l 249 653 l 249 406 z m 229 151 b 197 106 229 108 217 106 b 164 151 176 106 164 108 l 164 399 l 28 410 l 28 149 b 197 -11 28 50 93 -11 b 365 149 300 -11 365 50 l 365 382 l 229 393 z m 193 1019 l 217 1049 b 222 1064 221 1053 222 1058 b 218 1076 222 1068 221 1072 l 85 1251 b 67 1260 81 1257 74 1260 b 49 1250 60 1260 53 1257 l 10 1194 b 6 1182 7 1190 6 1186 b 13 1167 6 1176 8 1171 l 161 1018 b 176 1011 165 1014 171 1011 b 193 1019 183 1011 189 1014 z "},"ç":{"ha":403,"x_min":0,"x_max":0,"o":"m 164 583 l 164 810 b 197 868 164 860 179 868 b 229 810 214 868 229 860 l 229 725 b 279 675 229 697 251 675 l 315 675 b 365 725 343 675 365 697 l 365 825 b 197 985 365 922 300 985 b 28 825 93 985 28 922 l 28 536 z m 183 379 l 183 571 l 47 525 l 47 414 z m 28 149 b 197 -11 28 50 93 -11 b 365 149 300 -11 365 50 l 365 283 b 315 333 365 311 343 333 l 279 333 b 229 283 251 333 229 311 l 229 151 b 197 106 229 108 217 106 b 164 151 176 106 164 108 l 164 367 l 28 401 z m 122 -292 l 193 -292 b 342 -199 268 -292 342 -286 b 199 -86 342 -124 292 -86 l 224 0 l 172 0 b 140 -108 142 -99 140 -104 b 203 -153 140 -143 171 -150 b 257 -206 232 -156 257 -167 b 186 -249 257 -243 231 -249 l 161 -249 b 140 -257 153 -249 146 -250 b 118 -282 135 -262 118 -282 b 122 -292 115 -286 118 -292 z "},"Ý":{"ha":481,"x_min":0,"x_max":0,"o":"m 408 938 l 453 1146 b 454 1154 453 1149 454 1151 b 403 1206 454 1181 432 1206 l 365 1206 b 317 1165 342 1206 321 1189 l 271 939 b 260 881 267 919 263 900 z m 88 814 l 224 865 b 210 947 219 888 217 913 l 168 1165 b 119 1206 164 1189 143 1206 l 67 1206 b 17 1157 39 1206 17 1183 b 18 1146 17 1153 17 1150 z m 126 801 l 158 651 l 383 622 l 447 925 l 300 868 b 285 682 292 811 286 750 l 279 682 b 263 854 271 768 269 803 z m 119 640 l 161 443 l 161 50 b 211 0 161 22 183 0 l 261 0 b 311 50 289 0 311 22 l 311 451 l 344 611 z m 225 1253 b 242 1244 229 1247 235 1244 b 257 1251 247 1244 253 1247 l 406 1400 b 413 1415 410 1404 413 1410 b 408 1428 413 1419 411 1424 l 369 1483 b 351 1493 365 1490 358 1493 b 333 1485 344 1493 338 1490 l 200 1310 b 196 1297 197 1306 196 1301 b 201 1282 196 1292 197 1286 l 225 1253 z "},"Ü":{"ha":481,"x_min":0,"x_max":0,"o":"m 190 804 l 190 1156 b 140 1206 190 1183 168 1206 l 90 1206 b 40 1156 63 1206 40 1183 l 40 772 z m 282 822 l 432 854 l 432 1156 b 382 1206 432 1183 410 1206 l 332 1206 b 282 1156 304 1206 282 1183 z m 229 524 l 229 792 l 79 761 l 79 564 z m 321 811 l 321 500 l 471 461 l 471 843 z m 282 489 l 282 192 b 236 118 282 132 267 118 b 190 192 206 118 190 132 l 190 513 l 40 553 l 40 176 b 235 -24 40 22 143 -24 b 432 176 328 -24 432 22 l 432 450 z m 49 1338 b 133 1254 49 1292 88 1254 b 218 1338 181 1254 218 1292 b 133 1424 218 1385 181 1424 b 49 1338 88 1424 49 1385 z m 256 1338 b 340 1254 256 1292 294 1254 b 425 1338 388 1254 425 1292 b 340 1424 425 1385 388 1424 b 256 1338 294 1424 256 1385 z "},"Û":{"ha":481,"x_min":0,"x_max":0,"o":"m 190 804 l 190 1156 b 140 1206 190 1183 168 1206 l 90 1206 b 40 1156 63 1206 40 1183 l 40 772 z m 282 822 l 432 854 l 432 1156 b 382 1206 432 1183 410 1206 l 332 1206 b 282 1156 304 1206 282 1183 z m 229 524 l 229 792 l 79 761 l 79 564 z m 321 811 l 321 500 l 471 461 l 471 843 z m 282 489 l 282 192 b 236 118 282 132 267 118 b 190 192 206 118 190 132 l 190 513 l 40 553 l 40 176 b 235 -24 40 22 143 -24 b 432 176 328 -24 432 22 l 432 450 z m 249 1440 b 233 1446 244 1443 239 1446 b 219 1440 228 1446 224 1443 l 89 1328 b 81 1311 83 1324 81 1318 b 86 1297 81 1306 82 1301 l 111 1267 b 128 1258 115 1261 121 1258 b 142 1263 132 1258 138 1260 l 235 1332 l 328 1263 b 340 1258 332 1260 336 1258 b 357 1265 346 1258 353 1261 l 383 1297 b 389 1311 388 1301 389 1306 b 381 1328 389 1318 386 1324 z "},"Ú":{"ha":481,"x_min":0,"x_max":0,"o":"m 190 804 l 190 1156 b 140 1206 190 1183 168 1206 l 90 1206 b 40 1156 63 1206 40 1183 l 40 772 z m 282 822 l 432 854 l 432 1156 b 382 1206 432 1183 410 1206 l 332 1206 b 282 1156 304 1206 282 1183 z m 229 524 l 229 792 l 79 761 l 79 564 z m 321 811 l 321 500 l 471 461 l 471 843 z m 282 489 l 282 192 b 236 118 282 132 267 118 b 190 192 206 118 190 132 l 190 513 l 40 553 l 40 176 b 235 -24 40 22 143 -24 b 432 176 328 -24 432 22 l 432 450 z m 225 1253 b 242 1244 229 1247 235 1244 b 257 1251 247 1244 253 1247 l 406 1400 b 413 1415 410 1404 413 1410 b 408 1428 413 1419 411 1424 l 369 1483 b 351 1493 365 1490 358 1493 b 333 1485 344 1493 338 1490 l 200 1310 b 196 1297 197 1306 196 1301 b 201 1282 196 1292 197 1286 l 225 1253 z "},"Ù":{"ha":481,"x_min":0,"x_max":0,"o":"m 190 804 l 190 1156 b 140 1206 190 1183 168 1206 l 90 1206 b 40 1156 63 1206 40 1183 l 40 772 z m 282 822 l 432 854 l 432 1156 b 382 1206 432 1183 410 1206 l 332 1206 b 282 1156 304 1206 282 1183 z m 229 524 l 229 792 l 79 761 l 79 564 z m 321 811 l 321 500 l 471 461 l 471 843 z m 282 489 l 282 192 b 236 118 282 132 267 118 b 190 192 206 118 190 132 l 190 513 l 40 553 l 40 176 b 235 -24 40 22 143 -24 b 432 176 328 -24 432 22 l 432 450 z m 232 1253 l 256 1282 b 261 1297 260 1286 261 1292 b 257 1310 261 1301 260 1306 l 124 1485 b 106 1493 119 1490 113 1493 b 88 1483 99 1493 92 1490 l 49 1428 b 44 1415 46 1424 44 1419 b 51 1400 44 1410 47 1404 l 200 1251 b 215 1244 204 1247 210 1244 b 232 1253 222 1244 228 1247 z "},"Á":{"ha":481,"x_min":0,"x_max":0,"o":"m 456 314 l 410 790 l 276 736 l 292 486 l 214 486 l 231 718 l 93 663 l 69 414 z m 210 733 l 228 989 l 239 989 l 254 751 l 388 806 l 353 1160 b 304 1206 350 1186 329 1206 l 168 1206 b 118 1160 142 1206 121 1186 l 72 678 z m 100 0 b 150 44 125 0 147 19 l 176 322 l 283 322 l 307 46 b 357 0 310 19 332 0 l 408 0 b 458 50 436 0 458 22 l 458 54 l 435 299 l 47 399 l 14 54 l 14 50 b 64 0 14 22 36 0 z m 225 1253 b 242 1244 229 1247 235 1244 b 257 1251 247 1244 253 1247 l 406 1400 b 413 1415 410 1404 413 1410 b 408 1428 413 1419 411 1424 l 369 1483 b 351 1493 365 1490 358 1493 b 333 1485 344 1493 338 1490 l 200 1310 b 196 1297 197 1306 196 1301 b 201 1282 196 1292 197 1286 l 225 1253 z "},"Â":{"ha":481,"x_min":0,"x_max":0,"o":"m 456 314 l 410 790 l 276 736 l 292 486 l 214 486 l 231 718 l 93 663 l 69 414 z m 210 733 l 228 989 l 239 989 l 254 751 l 388 806 l 353 1160 b 304 1206 350 1186 329 1206 l 168 1206 b 118 1160 142 1206 121 1186 l 72 678 z m 100 0 b 150 44 125 0 147 19 l 176 322 l 283 322 l 307 46 b 357 0 310 19 332 0 l 408 0 b 458 50 436 0 458 22 l 458 54 l 435 299 l 47 399 l 14 54 l 14 50 b 64 0 14 22 36 0 z m 249 1440 b 233 1446 244 1443 239 1446 b 219 1440 228 1446 224 1443 l 89 1328 b 81 1311 83 1324 81 1318 b 86 1297 81 1306 82 1301 l 111 1267 b 128 1258 115 1261 121 1258 b 142 1263 132 1258 138 1260 l 235 1332 l 328 1263 b 340 1258 332 1260 336 1258 b 357 1265 346 1258 353 1261 l 383 1297 b 389 1311 388 1301 389 1306 b 381 1328 389 1318 386 1324 z "},"Ã":{"ha":481,"x_min":0,"x_max":0,"o":"m 456 314 l 410 790 l 276 736 l 292 486 l 214 486 l 231 718 l 93 663 l 69 414 z m 210 733 l 228 989 l 239 989 l 254 751 l 388 806 l 353 1160 b 304 1206 350 1186 329 1206 l 168 1206 b 118 1160 142 1206 121 1186 l 72 678 z m 100 0 b 150 44 125 0 147 19 l 176 322 l 283 322 l 307 46 b 357 0 310 19 332 0 l 408 0 b 458 50 436 0 458 22 l 458 54 l 435 299 l 47 399 l 14 54 l 14 50 b 64 0 14 22 36 0 z m 385 1456 l 353 1456 b 328 1433 339 1456 332 1446 b 296 1408 324 1419 308 1408 b 169 1456 263 1408 217 1456 b 64 1336 110 1456 72 1411 b 85 1307 64 1319 71 1307 l 118 1307 b 144 1331 132 1307 139 1318 b 172 1353 150 1344 161 1353 b 301 1306 208 1353 251 1306 b 404 1422 354 1306 392 1346 b 406 1435 404 1422 406 1431 b 385 1456 406 1449 399 1456 z "},"Ä":{"ha":481,"x_min":0,"x_max":0,"o":"m 456 314 l 410 790 l 276 736 l 292 486 l 214 486 l 231 718 l 93 663 l 69 414 z m 210 733 l 228 989 l 239 989 l 254 751 l 388 806 l 353 1160 b 304 1206 350 1186 329 1206 l 168 1206 b 118 1160 142 1206 121 1186 l 72 678 z m 100 0 b 150 44 125 0 147 19 l 176 322 l 283 322 l 307 46 b 357 0 310 19 332 0 l 408 0 b 458 50 436 0 458 22 l 458 54 l 435 299 l 47 399 l 14 54 l 14 50 b 64 0 14 22 36 0 z m 47 1338 b 132 1254 47 1292 86 1254 b 217 1338 179 1254 217 1292 b 132 1424 217 1385 179 1424 b 47 1338 86 1424 47 1385 z m 254 1338 b 339 1254 254 1292 293 1254 b 424 1338 386 1254 424 1292 b 339 1424 424 1385 386 1424 b 254 1338 293 1424 254 1385 z "},"Å":{"ha":481,"x_min":0,"x_max":0,"o":"m 456 314 l 410 790 l 276 736 l 292 486 l 214 486 l 231 718 l 93 663 l 69 414 z m 210 733 l 228 989 l 239 989 l 254 751 l 388 806 l 353 1160 b 304 1206 350 1186 329 1206 l 168 1206 b 118 1160 142 1206 121 1186 l 72 678 z m 100 0 b 150 44 125 0 147 19 l 176 322 l 283 322 l 307 46 b 357 0 310 19 332 0 l 408 0 b 458 50 436 0 458 22 l 458 54 l 435 299 l 47 399 l 14 54 l 14 50 b 64 0 14 22 36 0 z m 114 1376 b 235 1256 114 1310 168 1256 b 358 1376 304 1256 358 1310 b 235 1500 358 1446 304 1500 b 114 1376 168 1500 114 1446 z m 171 1376 b 235 1443 171 1414 200 1443 b 301 1376 272 1443 301 1414 b 235 1313 301 1342 272 1313 b 171 1376 200 1313 171 1342 z "},"Æ":{"ha":665,"x_min":0,"x_max":0,"o":"m 228 796 l 242 989 l 282 989 l 282 811 l 433 851 l 433 1051 l 568 1051 b 618 1101 596 1051 618 1074 l 618 1156 b 568 1206 618 1183 596 1206 l 182 1206 b 132 1160 156 1206 135 1186 l 93 760 z m 472 529 l 472 582 l 586 582 b 636 632 614 582 636 604 l 636 686 b 586 736 636 714 614 736 l 472 736 l 472 836 l 321 794 l 321 540 z m 249 544 l 265 781 l 132 744 l 114 554 z m 636 106 b 586 156 636 133 614 156 l 433 156 l 433 514 l 282 525 l 282 476 l 206 476 l 210 529 l 74 539 l 28 54 b 78 0 28 22 50 0 l 114 0 b 164 44 139 0 161 19 l 190 322 l 283 322 l 283 50 b 333 0 283 22 306 0 l 586 0 b 636 50 614 0 636 22 z "},"Ç":{"ha":481,"x_min":0,"x_max":0,"o":"m 63 676 l 63 481 l 213 444 l 213 740 z m 432 1029 b 235 1229 432 1185 328 1229 b 40 1029 143 1229 40 1185 l 40 692 l 190 756 l 190 1014 b 236 1088 190 1075 206 1088 b 282 1014 267 1088 282 1075 l 282 864 b 332 814 282 836 304 814 l 382 814 b 432 864 410 814 432 836 z m 40 465 l 40 176 b 235 -24 40 22 143 -24 b 432 176 328 -24 432 22 l 432 357 b 382 407 432 385 410 407 l 332 407 b 282 357 304 407 282 385 l 282 192 b 236 118 282 132 267 118 b 190 192 206 118 190 132 l 190 429 z m 140 -292 l 211 -292 b 360 -199 286 -292 360 -286 b 217 -86 360 -124 310 -86 l 242 0 l 190 0 b 158 -108 160 -99 158 -104 b 221 -153 158 -143 189 -150 b 275 -206 250 -156 275 -167 b 204 -249 275 -243 249 -249 l 179 -249 b 158 -257 171 -249 164 -250 b 136 -282 153 -262 136 -282 b 140 -292 133 -286 136 -292 z "},"È":{"ha":414,"x_min":0,"x_max":0,"o":"m 215 365 l 215 582 l 329 582 b 379 632 357 582 379 604 l 379 686 b 329 736 379 714 357 736 l 215 736 l 215 858 l 65 796 l 65 408 z m 193 875 l 193 1051 l 328 1051 b 378 1101 356 1051 378 1074 l 378 1156 b 328 1206 378 1183 356 1206 l 93 1206 b 43 1156 65 1206 43 1183 l 43 811 z m 396 106 b 346 156 396 133 374 156 l 193 156 l 193 350 l 43 393 l 43 50 b 93 0 43 22 65 0 l 346 0 b 396 50 374 0 396 22 z m 199 1253 l 222 1282 b 228 1297 226 1286 228 1292 b 224 1310 228 1301 226 1306 l 90 1485 b 72 1493 86 1490 79 1493 b 54 1483 65 1493 58 1490 l 15 1428 b 11 1415 13 1424 11 1419 b 18 1400 11 1410 14 1404 l 167 1251 b 182 1244 171 1247 176 1244 b 199 1253 189 1244 194 1247 z "},"É":{"ha":414,"x_min":0,"x_max":0,"o":"m 215 365 l 215 582 l 329 582 b 379 632 357 582 379 604 l 379 686 b 329 736 379 714 357 736 l 215 736 l 215 858 l 65 796 l 65 408 z m 193 875 l 193 1051 l 328 1051 b 378 1101 356 1051 378 1074 l 378 1156 b 328 1206 378 1183 356 1206 l 93 1206 b 43 1156 65 1206 43 1183 l 43 811 z m 396 106 b 346 156 396 133 374 156 l 193 156 l 193 350 l 43 393 l 43 50 b 93 0 43 22 65 0 l 346 0 b 396 50 374 0 396 22 z m 192 1253 b 208 1244 196 1247 201 1244 b 224 1251 214 1244 219 1247 l 372 1400 b 379 1415 376 1404 379 1410 b 375 1428 379 1419 378 1424 l 336 1483 b 318 1493 332 1490 325 1493 b 300 1485 311 1493 304 1490 l 167 1310 b 163 1297 164 1306 163 1301 b 168 1282 163 1292 164 1286 l 192 1253 z "},"Ê":{"ha":414,"x_min":0,"x_max":0,"o":"m 215 365 l 215 582 l 329 582 b 379 632 357 582 379 604 l 379 686 b 329 736 379 714 357 736 l 215 736 l 215 858 l 65 796 l 65 408 z m 193 875 l 193 1051 l 328 1051 b 378 1101 356 1051 378 1074 l 378 1156 b 328 1206 378 1183 356 1206 l 93 1206 b 43 1156 65 1206 43 1183 l 43 811 z m 396 106 b 346 156 396 133 374 156 l 193 156 l 193 350 l 43 393 l 43 50 b 93 0 43 22 65 0 l 346 0 b 396 50 374 0 396 22 z m 215 1440 b 200 1446 211 1443 206 1446 b 186 1440 194 1446 190 1443 l 56 1328 b 47 1311 50 1324 47 1318 b 53 1297 47 1306 49 1301 l 78 1267 b 94 1258 82 1261 88 1258 b 108 1263 99 1258 104 1260 l 201 1332 l 294 1263 b 307 1258 299 1260 303 1258 b 324 1265 313 1258 319 1261 l 350 1297 b 356 1311 354 1301 356 1306 b 347 1328 356 1318 353 1324 z "},"Ë":{"ha":414,"x_min":0,"x_max":0,"o":"m 215 365 l 215 582 l 329 582 b 379 632 357 582 379 604 l 379 686 b 329 736 379 714 357 736 l 215 736 l 215 858 l 65 796 l 65 408 z m 193 875 l 193 1051 l 328 1051 b 378 1101 356 1051 378 1074 l 378 1156 b 328 1206 378 1183 356 1206 l 93 1206 b 43 1156 65 1206 43 1183 l 43 811 z m 396 106 b 346 156 396 133 374 156 l 193 156 l 193 350 l 43 393 l 43 50 b 93 0 43 22 65 0 l 346 0 b 396 50 374 0 396 22 z m 14 1338 b 99 1254 14 1292 53 1254 b 183 1338 146 1254 183 1292 b 99 1424 183 1385 146 1424 b 14 1338 53 1424 14 1385 z m 221 1338 b 306 1254 221 1292 260 1254 b 390 1338 353 1254 390 1292 b 306 1424 390 1385 353 1424 b 221 1338 260 1424 221 1385 z "},"Ì":{"ha":244,"x_min":0,"x_max":0,"o":"m 215 444 l 215 807 l 65 767 l 65 464 z m 193 822 l 193 1156 b 143 1206 193 1183 171 1206 l 93 1206 b 43 1156 65 1206 43 1183 l 43 782 z m 193 428 l 43 449 l 43 50 b 93 0 43 22 65 0 l 143 0 b 193 50 171 0 193 22 z m 114 1253 l 138 1282 b 143 1297 142 1286 143 1292 b 139 1310 143 1301 142 1306 l 6 1485 b -12 1493 1 1490 -6 1493 b -31 1483 -19 1493 -26 1490 l -69 1428 b -74 1415 -72 1424 -74 1419 b -67 1400 -74 1410 -71 1404 l 82 1251 b 97 1244 86 1247 92 1244 b 114 1253 104 1244 110 1247 z "},"Í":{"ha":244,"x_min":0,"x_max":0,"o":"m 215 444 l 215 807 l 65 767 l 65 464 z m 193 822 l 193 1156 b 143 1206 193 1183 171 1206 l 93 1206 b 43 1156 65 1206 43 1183 l 43 782 z m 193 428 l 43 449 l 43 50 b 93 0 43 22 65 0 l 143 0 b 193 50 171 0 193 22 z m 108 1253 b 125 1244 113 1247 118 1244 b 140 1251 131 1244 136 1247 l 289 1400 b 296 1415 293 1404 296 1410 b 292 1428 296 1419 294 1424 l 253 1483 b 235 1493 249 1490 242 1493 b 217 1485 228 1493 221 1490 l 83 1310 b 79 1297 81 1306 79 1301 b 85 1282 79 1292 81 1286 l 108 1253 z "},"Î":{"ha":244,"x_min":0,"x_max":0,"o":"m 215 444 l 215 807 l 65 767 l 65 464 z m 193 822 l 193 1156 b 143 1206 193 1183 171 1206 l 93 1206 b 43 1156 65 1206 43 1183 l 43 782 z m 193 428 l 43 449 l 43 50 b 93 0 43 22 65 0 l 143 0 b 193 50 171 0 193 22 z m 131 1440 b 115 1446 126 1443 121 1446 b 101 1440 110 1446 106 1443 l -29 1328 b -37 1311 -35 1324 -37 1318 b -32 1297 -37 1306 -36 1301 l -7 1267 b 10 1258 -3 1261 3 1258 b 24 1263 14 1258 19 1260 l 117 1332 l 210 1263 b 222 1258 214 1260 218 1258 b 239 1265 228 1258 235 1261 l 265 1297 b 271 1311 269 1301 271 1306 b 263 1328 271 1318 268 1324 z "},"Ï":{"ha":244,"x_min":0,"x_max":0,"o":"m 215 444 l 215 807 l 65 767 l 65 464 z m 193 822 l 193 1156 b 143 1206 193 1183 171 1206 l 93 1206 b 43 1156 65 1206 43 1183 l 43 782 z m 193 428 l 43 449 l 43 50 b 93 0 43 22 65 0 l 143 0 b 193 50 171 0 193 22 z m -71 1338 b 14 1254 -71 1292 -32 1254 b 99 1338 61 1254 99 1292 b 14 1424 99 1385 61 1424 b -71 1338 -32 1424 -71 1385 z m 136 1338 b 221 1254 136 1292 175 1254 b 306 1338 268 1254 306 1292 b 221 1424 306 1385 268 1424 b 136 1338 175 1424 136 1385 z "},"Ñ":{"ha":560,"x_min":0,"x_max":0,"o":"m 507 924 l 507 1156 b 457 1206 507 1183 485 1206 l 433 1206 b 383 1156 406 1206 383 1183 l 383 892 z m 43 803 l 168 836 l 168 879 b 163 1033 165 929 163 981 l 169 1033 b 186 840 175 968 179 904 l 310 872 l 275 1161 b 225 1206 272 1188 250 1206 l 93 1206 b 43 1156 65 1206 43 1183 z m 82 793 l 82 583 l 207 572 l 207 826 z m 546 542 l 546 914 l 422 882 l 422 594 l 422 553 z m 225 831 b 253 604 232 757 240 682 l 258 568 l 390 556 b 350 856 379 657 365 757 l 349 863 z m 43 569 l 43 50 b 93 0 43 22 65 0 l 118 0 b 168 50 146 0 168 22 l 168 560 z m 219 554 l 293 43 b 342 0 296 18 317 0 l 457 0 b 507 50 485 0 507 22 l 507 529 l 383 540 b 389 236 385 439 389 336 l 389 174 l 382 174 b 351 543 375 296 364 419 z m 425 1456 l 393 1456 b 368 1433 379 1456 372 1446 b 336 1408 364 1419 349 1408 b 210 1456 303 1408 257 1456 b 104 1336 150 1456 113 1411 b 125 1307 104 1319 111 1307 l 158 1307 b 185 1331 172 1307 179 1318 b 213 1353 190 1344 201 1353 b 342 1306 249 1353 292 1306 b 444 1422 394 1306 432 1346 b 446 1435 444 1422 446 1431 b 425 1456 446 1449 439 1456 z "},"Ò":{"ha":481,"x_min":0,"x_max":0,"o":"m 190 806 l 190 1014 b 236 1088 190 1075 206 1088 b 282 1014 267 1088 282 1075 l 282 824 l 432 854 l 432 1029 b 235 1229 432 1185 328 1229 b 40 1029 143 1229 40 1185 l 40 775 z m 471 539 l 471 843 l 321 813 l 321 571 z m 229 590 l 229 794 l 79 764 l 79 622 z m 40 176 b 235 -24 40 22 143 -24 b 432 176 328 -24 432 22 l 432 528 l 282 560 l 282 192 b 236 118 282 132 267 118 b 190 192 206 118 190 132 l 190 579 l 40 611 z m 232 1253 l 256 1282 b 261 1297 260 1286 261 1292 b 257 1310 261 1301 260 1306 l 124 1485 b 106 1493 119 1490 113 1493 b 88 1483 99 1493 92 1490 l 49 1428 b 44 1415 46 1424 44 1419 b 51 1400 44 1410 47 1404 l 200 1251 b 215 1244 204 1247 210 1244 b 232 1253 222 1244 228 1247 z "},"Ó":{"ha":481,"x_min":0,"x_max":0,"o":"m 190 806 l 190 1014 b 236 1088 190 1075 206 1088 b 282 1014 267 1088 282 1075 l 282 824 l 432 854 l 432 1029 b 235 1229 432 1185 328 1229 b 40 1029 143 1229 40 1185 l 40 775 z m 471 539 l 471 843 l 321 813 l 321 571 z m 229 590 l 229 794 l 79 764 l 79 622 z m 40 176 b 235 -24 40 22 143 -24 b 432 176 328 -24 432 22 l 432 528 l 282 560 l 282 192 b 236 118 282 132 267 118 b 190 192 206 118 190 132 l 190 579 l 40 611 z m 225 1253 b 242 1244 229 1247 235 1244 b 257 1251 247 1244 253 1247 l 406 1400 b 413 1415 410 1404 413 1410 b 408 1428 413 1419 411 1424 l 369 1483 b 351 1493 365 1490 358 1493 b 333 1485 344 1493 338 1490 l 200 1310 b 196 1297 197 1306 196 1301 b 201 1282 196 1292 197 1286 l 225 1253 z "},"Ô":{"ha":481,"x_min":0,"x_max":0,"o":"m 190 806 l 190 1014 b 236 1088 190 1075 206 1088 b 282 1014 267 1088 282 1075 l 282 824 l 432 854 l 432 1029 b 235 1229 432 1185 328 1229 b 40 1029 143 1229 40 1185 l 40 775 z m 471 539 l 471 843 l 321 813 l 321 571 z m 229 590 l 229 794 l 79 764 l 79 622 z m 40 176 b 235 -24 40 22 143 -24 b 432 176 328 -24 432 22 l 432 528 l 282 560 l 282 192 b 236 118 282 132 267 118 b 190 192 206 118 190 132 l 190 579 l 40 611 z m 249 1440 b 233 1446 244 1443 239 1446 b 219 1440 228 1446 224 1443 l 89 1328 b 81 1311 83 1324 81 1318 b 86 1297 81 1306 82 1301 l 111 1267 b 128 1258 115 1261 121 1258 b 142 1263 132 1258 138 1260 l 235 1332 l 328 1263 b 340 1258 332 1260 336 1258 b 357 1265 346 1258 353 1261 l 383 1297 b 389 1311 388 1301 389 1306 b 381 1328 389 1318 386 1324 z "},"Õ":{"ha":481,"x_min":0,"x_max":0,"o":"m 190 806 l 190 1014 b 236 1088 190 1075 206 1088 b 282 1014 267 1088 282 1075 l 282 824 l 432 854 l 432 1029 b 235 1229 432 1185 328 1229 b 40 1029 143 1229 40 1185 l 40 775 z m 471 539 l 471 843 l 321 813 l 321 571 z m 229 590 l 229 794 l 79 764 l 79 622 z m 40 176 b 235 -24 40 22 143 -24 b 432 176 328 -24 432 22 l 432 528 l 282 560 l 282 192 b 236 118 282 132 267 118 b 190 192 206 118 190 132 l 190 579 l 40 611 z m 385 1456 l 353 1456 b 328 1433 339 1456 332 1446 b 296 1408 324 1419 308 1408 b 169 1456 263 1408 217 1456 b 64 1336 110 1456 72 1411 b 85 1307 64 1319 71 1307 l 118 1307 b 144 1331 132 1307 139 1318 b 172 1353 150 1344 161 1353 b 301 1306 208 1353 251 1306 b 404 1422 354 1306 392 1346 b 406 1435 404 1422 406 1431 b 385 1456 406 1449 399 1456 z "},"Ö":{"ha":481,"x_min":0,"x_max":0,"o":"m 190 806 l 190 1014 b 236 1088 190 1075 206 1088 b 282 1014 267 1088 282 1075 l 282 824 l 432 854 l 432 1029 b 235 1229 432 1185 328 1229 b 40 1029 143 1229 40 1185 l 40 775 z m 471 539 l 471 843 l 321 813 l 321 571 z m 229 590 l 229 794 l 79 764 l 79 622 z m 40 176 b 235 -24 40 22 143 -24 b 432 176 328 -24 432 22 l 432 528 l 282 560 l 282 192 b 236 118 282 132 267 118 b 190 192 206 118 190 132 l 190 579 l 40 611 z m 47 1338 b 132 1254 47 1292 86 1254 b 217 1338 179 1254 217 1292 b 132 1424 217 1385 179 1424 b 47 1338 86 1424 47 1385 z m 254 1338 b 339 1254 254 1292 293 1254 b 424 1338 386 1254 424 1292 b 339 1424 424 1385 386 1424 b 254 1338 293 1424 254 1385 z "},"ó":{"ha":403,"x_min":0,"x_max":0,"o":"m 365 701 l 365 825 b 197 985 365 922 300 985 b 28 825 93 985 28 922 l 28 610 l 164 647 l 164 821 b 197 868 164 864 176 868 b 229 821 217 868 229 864 l 229 664 z m 183 411 l 183 635 l 47 597 l 47 422 z m 385 393 l 385 690 l 249 653 l 249 406 z m 229 151 b 197 106 229 108 217 106 b 164 151 176 106 164 108 l 164 399 l 28 410 l 28 149 b 197 -11 28 50 93 -11 b 365 149 300 -11 365 50 l 365 382 l 229 393 z m 186 1019 b 203 1011 190 1014 196 1011 b 218 1018 208 1011 214 1014 l 367 1167 b 374 1182 371 1171 374 1176 b 369 1194 374 1186 372 1190 l 331 1250 b 313 1260 326 1257 319 1260 b 294 1251 306 1260 299 1257 l 161 1076 b 157 1064 158 1072 157 1068 b 163 1049 157 1058 158 1053 l 186 1019 z "},"ô":{"ha":403,"x_min":0,"x_max":0,"o":"m 365 701 l 365 825 b 197 985 365 922 300 985 b 28 825 93 985 28 922 l 28 610 l 164 647 l 164 821 b 197 868 164 864 176 868 b 229 821 217 868 229 864 l 229 664 z m 183 411 l 183 635 l 47 597 l 47 422 z m 385 393 l 385 690 l 249 653 l 249 406 z m 229 151 b 197 106 229 108 217 106 b 164 151 176 106 164 108 l 164 399 l 28 410 l 28 149 b 197 -11 28 50 93 -11 b 365 149 300 -11 365 50 l 365 382 l 229 393 z m 210 1207 b 194 1213 206 1210 200 1213 b 181 1207 189 1213 185 1210 l 50 1094 b 42 1078 44 1090 42 1085 b 47 1064 42 1072 43 1068 l 72 1033 b 89 1025 76 1028 82 1025 b 103 1029 93 1025 99 1026 l 196 1099 l 289 1029 b 301 1025 293 1026 297 1025 b 318 1032 307 1025 314 1028 l 344 1064 b 350 1078 349 1068 350 1072 b 342 1094 350 1085 347 1090 z "},"õ":{"ha":403,"x_min":0,"x_max":0,"o":"m 365 701 l 365 825 b 197 985 365 922 300 985 b 28 825 93 985 28 922 l 28 610 l 164 647 l 164 821 b 197 868 164 864 176 868 b 229 821 217 868 229 864 l 229 664 z m 183 411 l 183 635 l 47 597 l 47 422 z m 385 393 l 385 690 l 249 653 l 249 406 z m 229 151 b 197 106 229 108 217 106 b 164 151 176 106 164 108 l 164 399 l 28 410 l 28 149 b 197 -11 28 50 93 -11 b 365 149 300 -11 365 50 l 365 382 l 229 393 z m 346 1222 l 314 1222 b 289 1200 300 1222 293 1213 b 257 1175 285 1186 269 1175 b 131 1222 224 1175 178 1222 b 25 1103 71 1222 33 1178 b 46 1074 25 1086 32 1074 l 79 1074 b 106 1097 93 1074 100 1085 b 133 1119 111 1111 122 1119 b 263 1072 169 1119 213 1072 b 365 1189 315 1072 353 1113 b 367 1201 365 1189 367 1197 b 346 1222 367 1215 360 1222 z "},"ö":{"ha":403,"x_min":0,"x_max":0,"o":"m 365 701 l 365 825 b 197 985 365 922 300 985 b 28 825 93 985 28 922 l 28 610 l 164 647 l 164 821 b 197 868 164 864 176 868 b 229 821 217 868 229 864 l 229 664 z m 183 411 l 183 635 l 47 597 l 47 422 z m 385 393 l 385 690 l 249 653 l 249 406 z m 229 151 b 197 106 229 108 217 106 b 164 151 176 106 164 108 l 164 399 l 28 410 l 28 149 b 197 -11 28 50 93 -11 b 365 149 300 -11 365 50 l 365 382 l 229 393 z m 8 1104 b 93 1021 8 1058 47 1021 b 178 1104 140 1021 178 1058 b 93 1190 178 1151 140 1190 b 8 1104 47 1190 8 1151 z m 215 1104 b 300 1021 215 1058 254 1021 b 385 1104 347 1021 385 1058 b 300 1190 385 1151 347 1190 b 215 1104 254 1190 215 1151 z "},"÷":{"ha":788,"x_min":0,"x_max":0,"o":"m 286 743 b 371 660 286 697 325 660 b 456 743 418 660 456 697 b 371 829 456 790 418 829 b 286 743 325 829 286 790 z m 286 168 b 371 85 286 122 325 85 b 456 168 418 85 456 122 b 371 254 456 215 418 254 b 286 168 325 254 286 215 z m 729 432 l 729 479 b 679 529 729 507 707 529 l 85 529 b 35 479 57 529 35 507 l 35 432 b 85 382 35 404 57 382 l 679 382 b 729 432 707 382 729 404 z "},"ù":{"ha":403,"x_min":0,"x_max":0,"o":"m 164 614 l 164 922 b 114 972 164 950 142 972 l 78 972 b 28 922 50 972 28 950 l 28 568 z m 279 972 b 229 922 251 972 229 950 l 229 635 l 365 679 l 365 922 b 315 972 365 950 343 972 z m 183 374 l 183 601 l 47 556 l 47 388 z m 249 622 l 249 365 l 385 351 l 385 667 z m 229 354 l 229 183 b 193 125 229 157 228 125 b 164 183 165 125 164 157 l 164 361 l 28 375 l 28 163 b 133 -11 28 67 29 -11 b 226 56 169 -11 207 10 l 232 56 l 239 18 b 261 0 242 7 250 0 l 315 0 b 365 50 343 0 365 22 l 365 339 z m 193 1019 l 217 1049 b 222 1064 221 1053 222 1058 b 218 1076 222 1068 221 1072 l 85 1251 b 67 1260 81 1257 74 1260 b 49 1250 60 1260 53 1257 l 10 1194 b 6 1182 7 1190 6 1186 b 13 1167 6 1176 8 1171 l 161 1018 b 176 1011 165 1014 171 1011 b 193 1019 183 1011 189 1014 z "},"ú":{"ha":403,"x_min":0,"x_max":0,"o":"m 164 614 l 164 922 b 114 972 164 950 142 972 l 78 972 b 28 922 50 972 28 950 l 28 568 z m 279 972 b 229 922 251 972 229 950 l 229 635 l 365 679 l 365 922 b 315 972 365 950 343 972 z m 183 374 l 183 601 l 47 556 l 47 388 z m 249 622 l 249 365 l 385 351 l 385 667 z m 229 354 l 229 183 b 193 125 229 157 228 125 b 164 183 165 125 164 157 l 164 361 l 28 375 l 28 163 b 133 -11 28 67 29 -11 b 226 56 169 -11 207 10 l 232 56 l 239 18 b 261 0 242 7 250 0 l 315 0 b 365 50 343 0 365 22 l 365 339 z m 186 1019 b 203 1011 190 1014 196 1011 b 218 1018 208 1011 214 1014 l 367 1167 b 374 1182 371 1171 374 1176 b 369 1194 374 1186 372 1190 l 331 1250 b 313 1260 326 1257 319 1260 b 294 1251 306 1260 299 1257 l 161 1076 b 157 1064 158 1072 157 1068 b 163 1049 157 1058 158 1053 l 186 1019 z "},"û":{"ha":403,"x_min":0,"x_max":0,"o":"m 164 614 l 164 922 b 114 972 164 950 142 972 l 78 972 b 28 922 50 972 28 950 l 28 568 z m 279 972 b 229 922 251 972 229 950 l 229 635 l 365 679 l 365 922 b 315 972 365 950 343 972 z m 183 374 l 183 601 l 47 556 l 47 388 z m 249 622 l 249 365 l 385 351 l 385 667 z m 229 354 l 229 183 b 193 125 229 157 228 125 b 164 183 165 125 164 157 l 164 361 l 28 375 l 28 163 b 133 -11 28 67 29 -11 b 226 56 169 -11 207 10 l 232 56 l 239 18 b 261 0 242 7 250 0 l 315 0 b 365 50 343 0 365 22 l 365 339 z m 210 1207 b 194 1213 206 1210 200 1213 b 181 1207 189 1213 185 1210 l 50 1094 b 42 1078 44 1090 42 1085 b 47 1064 42 1072 43 1068 l 72 1033 b 89 1025 76 1028 82 1025 b 103 1029 93 1025 99 1026 l 196 1099 l 289 1029 b 301 1025 293 1026 297 1025 b 318 1032 307 1025 314 1028 l 344 1064 b 350 1078 349 1068 350 1072 b 342 1094 350 1085 347 1090 z "},"ü":{"ha":403,"x_min":0,"x_max":0,"o":"m 164 614 l 164 922 b 114 972 164 950 142 972 l 78 972 b 28 922 50 972 28 950 l 28 568 z m 279 972 b 229 922 251 972 229 950 l 229 635 l 365 679 l 365 922 b 315 972 365 950 343 972 z m 183 374 l 183 601 l 47 556 l 47 388 z m 249 622 l 249 365 l 385 351 l 385 667 z m 229 354 l 229 183 b 193 125 229 157 228 125 b 164 183 165 125 164 157 l 164 361 l 28 375 l 28 163 b 133 -11 28 67 29 -11 b 226 56 169 -11 207 10 l 232 56 l 239 18 b 261 0 242 7 250 0 l 315 0 b 365 50 343 0 365 22 l 365 339 z m 8 1104 b 93 1021 8 1058 47 1021 b 178 1104 140 1021 178 1058 b 93 1190 178 1151 140 1190 b 8 1104 47 1190 8 1151 z m 215 1104 b 300 1021 215 1058 254 1021 b 385 1104 347 1021 385 1058 b 300 1190 385 1151 347 1190 b 215 1104 254 1190 215 1151 z "},"ý":{"ha":403,"x_min":0,"x_max":0,"o":"m 356 692 l 382 924 b 332 975 382 951 360 975 l 299 975 b 249 929 272 975 251 956 l 222 657 z m 171 644 b 169 658 171 649 169 653 l 144 929 b 94 975 142 956 121 975 l 63 975 b 13 925 33 975 13 953 l 13 919 l 50 614 z m 346 428 l 375 679 l 242 644 l 239 615 b 228 450 233 564 229 508 z m 203 456 b 190 632 200 513 196 572 l 71 601 l 86 478 z m 81 -149 b 79 -161 79 -153 79 -157 b 129 -212 79 -187 100 -212 l 188 -212 b 236 -175 211 -212 231 -197 l 279 3 l 326 417 l 207 439 b 199 213 204 360 203 279 l 192 213 b 183 443 189 283 188 361 l 67 465 l 124 3 z m 186 1019 b 203 1011 190 1014 196 1011 b 218 1018 208 1011 214 1014 l 367 1167 b 374 1182 371 1171 374 1176 b 369 1194 374 1186 372 1190 l 331 1250 b 313 1260 326 1257 319 1260 b 294 1251 306 1260 299 1257 l 161 1076 b 157 1064 158 1072 157 1068 b 163 1049 157 1058 158 1053 l 186 1019 z "},"ÿ":{"ha":403,"x_min":0,"x_max":0,"o":"m 356 692 l 382 924 b 332 975 382 951 360 975 l 299 975 b 249 929 272 975 251 956 l 222 657 z m 171 644 b 169 658 171 649 169 653 l 144 929 b 94 975 142 956 121 975 l 63 975 b 13 925 33 975 13 953 l 13 919 l 50 614 z m 346 428 l 375 679 l 242 644 l 239 615 b 228 450 233 564 229 508 z m 203 456 b 190 632 200 513 196 572 l 71 601 l 86 478 z m 81 -149 b 79 -161 79 -153 79 -157 b 129 -212 79 -187 100 -212 l 188 -212 b 236 -175 211 -212 231 -197 l 279 3 l 326 417 l 207 439 b 199 213 204 360 203 279 l 192 213 b 183 443 189 283 188 361 l 67 465 l 124 3 z m 8 1104 b 93 1021 8 1058 47 1021 b 178 1104 140 1021 178 1058 b 93 1190 178 1151 140 1190 b 8 1104 47 1190 8 1151 z m 215 1104 b 300 1021 215 1058 254 1021 b 385 1104 347 1021 385 1058 b 300 1190 385 1151 347 1190 b 215 1104 254 1190 215 1151 z "},"…":{"ha":713,"x_min":0,"x_max":0,"o":"m 32 79 b 117 -4 32 33 71 -4 b 201 79 164 -4 201 33 b 117 165 201 126 164 165 b 32 79 71 165 32 126 z m 267 79 b 351 -4 267 33 306 -4 b 436 79 399 -4 436 33 b 351 165 436 126 399 165 b 267 79 306 165 267 126 z m 501 79 b 586 -4 501 33 540 -4 b 671 79 633 -4 671 33 b 586 165 671 126 633 165 b 501 79 540 165 501 126 z "},"Ă":{"ha":481,"x_min":0,"x_max":0,"o":"m 456 314 l 410 790 l 276 736 l 292 486 l 214 486 l 231 718 l 93 663 l 69 414 z m 210 733 l 228 989 l 239 989 l 254 751 l 388 806 l 353 1160 b 304 1206 350 1186 329 1206 l 168 1206 b 118 1160 142 1206 121 1186 l 72 678 z m 100 0 b 150 44 125 0 147 19 l 176 322 l 283 322 l 307 46 b 357 0 310 19 332 0 l 408 0 b 458 50 436 0 458 22 l 458 54 l 435 299 l 47 399 l 14 54 l 14 50 b 64 0 14 22 36 0 z m 392 1449 l 383 1453 b 374 1456 381 1454 376 1456 b 351 1442 365 1456 357 1450 b 236 1374 318 1396 282 1374 b 118 1442 190 1374 151 1396 b 96 1456 113 1450 104 1456 b 86 1453 93 1456 89 1454 l 79 1449 b 67 1429 71 1444 67 1438 b 69 1418 67 1426 68 1422 b 236 1278 104 1326 161 1278 b 400 1415 307 1278 361 1322 b 403 1429 401 1419 403 1425 b 392 1449 403 1438 400 1444 z "},"Ā":{"ha":481,"x_min":0,"x_max":0,"o":"m 456 314 l 410 790 l 276 736 l 292 486 l 214 486 l 231 718 l 93 663 l 69 414 z m 210 733 l 228 989 l 239 989 l 254 751 l 388 806 l 353 1160 b 304 1206 350 1186 329 1206 l 168 1206 b 118 1160 142 1206 121 1186 l 72 678 z m 100 0 b 150 44 125 0 147 19 l 176 322 l 283 322 l 307 46 b 357 0 310 19 332 0 l 408 0 b 458 50 436 0 458 22 l 458 54 l 435 299 l 47 399 l 14 54 l 14 50 b 64 0 14 22 36 0 z m 74 1397 l 74 1335 b 96 1313 74 1322 83 1313 l 376 1313 b 399 1335 389 1313 399 1322 l 399 1397 b 376 1419 399 1410 389 1419 l 96 1419 b 74 1397 83 1419 74 1410 z "},"Ą":{"ha":481,"x_min":0,"x_max":0,"o":"m 456 314 l 410 790 l 276 736 l 292 486 l 214 486 l 231 718 l 93 663 l 69 414 z m 210 733 l 228 989 l 239 989 l 254 751 l 388 806 l 353 1160 b 304 1206 350 1186 329 1206 l 168 1206 b 118 1160 142 1206 121 1186 l 72 678 z m 100 0 b 150 44 125 0 147 19 l 176 322 l 283 322 l 307 46 b 357 0 310 19 332 0 l 408 0 b 458 50 436 0 458 22 l 458 54 l 435 299 l 47 399 l 14 54 l 14 50 b 64 0 14 22 36 0 z m 461 -197 b 404 -214 442 -208 422 -214 b 358 -150 374 -214 358 -196 b 418 0 358 -124 374 -83 l 344 0 b 254 -175 285 -76 254 -129 b 367 -300 254 -254 299 -300 b 501 -249 421 -300 461 -279 b 508 -232 506 -244 508 -239 l 500 -206 b 481 -192 496 -196 489 -192 b 461 -197 474 -192 467 -194 z "},"Ǽ":{"ha":665,"x_min":0,"x_max":0,"o":"m 228 796 l 242 989 l 282 989 l 282 811 l 433 851 l 433 1051 l 568 1051 b 618 1101 596 1051 618 1074 l 618 1156 b 568 1206 618 1183 596 1206 l 182 1206 b 132 1160 156 1206 135 1186 l 93 760 z m 472 529 l 472 582 l 586 582 b 636 632 614 582 636 604 l 636 686 b 586 736 636 714 614 736 l 472 736 l 472 836 l 321 794 l 321 540 z m 249 544 l 265 781 l 132 744 l 114 554 z m 636 106 b 586 156 636 133 614 156 l 433 156 l 433 514 l 282 525 l 282 476 l 206 476 l 210 529 l 74 539 l 28 54 b 78 0 28 22 50 0 l 114 0 b 164 44 139 0 161 19 l 190 322 l 283 322 l 283 50 b 333 0 283 22 306 0 l 586 0 b 636 50 614 0 636 22 z m 276 1253 b 293 1244 281 1247 286 1244 b 308 1251 299 1244 304 1247 l 457 1400 b 464 1415 461 1404 464 1410 b 460 1428 464 1419 463 1424 l 421 1483 b 403 1493 417 1490 410 1493 b 385 1485 396 1493 389 1490 l 251 1310 b 247 1297 249 1306 247 1301 b 253 1282 247 1292 249 1286 l 276 1253 z "},"Ć":{"ha":481,"x_min":0,"x_max":0,"o":"m 63 676 l 63 481 l 213 444 l 213 740 z m 432 1029 b 235 1229 432 1185 328 1229 b 40 1029 143 1229 40 1185 l 40 692 l 190 756 l 190 1014 b 236 1088 190 1075 206 1088 b 282 1014 267 1088 282 1075 l 282 864 b 332 814 282 836 304 814 l 382 814 b 432 864 410 814 432 836 z m 40 465 l 40 176 b 235 -24 40 22 143 -24 b 432 176 328 -24 432 22 l 432 357 b 382 407 432 385 410 407 l 332 407 b 282 357 304 407 282 385 l 282 192 b 236 118 282 132 267 118 b 190 192 206 118 190 132 l 190 429 z m 183 1253 b 200 1244 188 1247 193 1244 b 215 1251 206 1244 211 1247 l 364 1400 b 371 1415 368 1404 371 1410 b 367 1428 371 1419 369 1424 l 328 1483 b 310 1493 324 1490 317 1493 b 292 1485 303 1493 296 1490 l 158 1310 b 154 1297 156 1306 154 1301 b 160 1282 154 1292 156 1286 l 183 1253 z "},"Č":{"ha":481,"x_min":0,"x_max":0,"o":"m 63 676 l 63 481 l 213 444 l 213 740 z m 432 1029 b 235 1229 432 1185 328 1229 b 40 1029 143 1229 40 1185 l 40 692 l 190 756 l 190 1014 b 236 1088 190 1075 206 1088 b 282 1014 267 1088 282 1075 l 282 864 b 332 814 282 836 304 814 l 382 814 b 432 864 410 814 432 836 z m 40 465 l 40 176 b 235 -24 40 22 143 -24 b 432 176 328 -24 432 22 l 432 357 b 382 407 432 385 410 407 l 332 407 b 282 357 304 407 282 385 l 282 192 b 236 118 282 132 267 118 b 190 192 206 118 190 132 l 190 429 z m 249 1250 l 381 1363 b 389 1379 386 1367 389 1372 b 383 1393 389 1385 388 1389 l 357 1425 b 340 1432 353 1429 346 1432 b 328 1428 336 1432 332 1431 l 235 1358 l 142 1428 b 128 1432 138 1431 132 1432 b 111 1424 121 1432 115 1429 l 86 1393 b 81 1379 82 1389 81 1385 b 89 1363 81 1372 83 1367 l 219 1250 b 233 1244 224 1246 228 1244 b 249 1250 239 1244 244 1246 z "},"Ĉ":{"ha":481,"x_min":0,"x_max":0,"o":"m 63 676 l 63 481 l 213 444 l 213 740 z m 432 1029 b 235 1229 432 1185 328 1229 b 40 1029 143 1229 40 1185 l 40 692 l 190 756 l 190 1014 b 236 1088 190 1075 206 1088 b 282 1014 267 1088 282 1075 l 282 864 b 332 814 282 836 304 814 l 382 814 b 432 864 410 814 432 836 z m 40 465 l 40 176 b 235 -24 40 22 143 -24 b 432 176 328 -24 432 22 l 432 357 b 382 407 432 385 410 407 l 332 407 b 282 357 304 407 282 385 l 282 192 b 236 118 282 132 267 118 b 190 192 206 118 190 132 l 190 429 z m 249 1440 b 233 1446 244 1443 239 1446 b 219 1440 228 1446 224 1443 l 89 1328 b 81 1311 83 1324 81 1318 b 86 1297 81 1306 82 1301 l 111 1267 b 128 1258 115 1261 121 1258 b 142 1263 132 1258 138 1260 l 235 1332 l 328 1263 b 340 1258 332 1260 336 1258 b 357 1265 346 1258 353 1261 l 383 1297 b 389 1311 388 1301 389 1306 b 381 1328 389 1318 386 1324 z "},"Ċ":{"ha":481,"x_min":0,"x_max":0,"o":"m 63 676 l 63 481 l 213 444 l 213 740 z m 432 1029 b 235 1229 432 1185 328 1229 b 40 1029 143 1229 40 1185 l 40 692 l 190 756 l 190 1014 b 236 1088 190 1075 206 1088 b 282 1014 267 1088 282 1075 l 282 864 b 332 814 282 836 304 814 l 382 814 b 432 864 410 814 432 836 z m 40 465 l 40 176 b 235 -24 40 22 143 -24 b 432 176 328 -24 432 22 l 432 357 b 382 407 432 385 410 407 l 332 407 b 282 357 304 407 282 385 l 282 192 b 236 118 282 132 267 118 b 190 192 206 118 190 132 l 190 429 z m 150 1338 b 235 1254 150 1292 189 1254 b 319 1338 282 1254 319 1292 b 235 1424 319 1385 282 1424 b 150 1338 189 1424 150 1385 z "},"Ď":{"ha":481,"x_min":0,"x_max":0,"o":"m 454 361 l 454 779 l 304 736 l 304 397 z m 213 418 l 213 710 l 63 667 l 63 454 z m 190 725 l 190 1064 l 225 1064 b 282 976 264 1064 282 1053 l 282 751 l 432 796 l 432 938 b 221 1206 432 1146 369 1206 l 90 1206 b 40 1156 63 1206 40 1183 l 40 682 z m 254 0 b 432 215 369 0 432 101 l 432 346 l 282 382 l 282 231 b 225 142 282 153 264 142 l 190 142 l 190 403 l 40 438 l 40 50 b 90 0 40 22 63 0 z m 249 1250 l 381 1363 b 389 1379 386 1367 389 1372 b 383 1393 389 1385 388 1389 l 357 1425 b 340 1432 353 1429 346 1432 b 328 1428 336 1432 332 1431 l 235 1358 l 142 1428 b 128 1432 138 1431 132 1432 b 111 1424 121 1432 115 1429 l 86 1393 b 81 1379 82 1389 81 1385 b 89 1363 81 1372 83 1367 l 219 1250 b 233 1244 224 1246 228 1244 b 249 1250 239 1244 244 1246 z "},"Ĕ":{"ha":414,"x_min":0,"x_max":0,"o":"m 215 365 l 215 582 l 329 582 b 379 632 357 582 379 604 l 379 686 b 329 736 379 714 357 736 l 215 736 l 215 858 l 65 796 l 65 408 z m 193 875 l 193 1051 l 328 1051 b 378 1101 356 1051 378 1074 l 378 1156 b 328 1206 378 1183 356 1206 l 93 1206 b 43 1156 65 1206 43 1183 l 43 811 z m 396 106 b 346 156 396 133 374 156 l 193 156 l 193 350 l 43 393 l 43 50 b 93 0 43 22 65 0 l 346 0 b 396 50 374 0 396 22 z m 358 1449 l 350 1453 b 340 1456 347 1454 343 1456 b 318 1442 332 1456 324 1450 b 203 1374 285 1396 249 1374 b 85 1442 157 1374 118 1396 b 63 1456 79 1450 71 1456 b 53 1453 60 1456 56 1454 l 46 1449 b 33 1429 38 1444 33 1438 b 36 1418 33 1426 35 1422 b 203 1278 71 1326 128 1278 b 367 1415 274 1278 328 1322 b 369 1429 368 1419 369 1425 b 358 1449 369 1438 367 1444 z "},"Ě":{"ha":414,"x_min":0,"x_max":0,"o":"m 215 365 l 215 582 l 329 582 b 379 632 357 582 379 604 l 379 686 b 329 736 379 714 357 736 l 215 736 l 215 858 l 65 796 l 65 408 z m 193 875 l 193 1051 l 328 1051 b 378 1101 356 1051 378 1074 l 378 1156 b 328 1206 378 1183 356 1206 l 93 1206 b 43 1156 65 1206 43 1183 l 43 811 z m 396 106 b 346 156 396 133 374 156 l 193 156 l 193 350 l 43 393 l 43 50 b 93 0 43 22 65 0 l 346 0 b 396 50 374 0 396 22 z m 215 1250 l 347 1363 b 356 1379 353 1367 356 1372 b 350 1393 356 1385 354 1389 l 324 1425 b 307 1432 319 1429 313 1432 b 294 1428 303 1432 299 1431 l 201 1358 l 108 1428 b 94 1432 104 1431 99 1432 b 78 1424 88 1432 82 1429 l 53 1393 b 47 1379 49 1389 47 1385 b 56 1363 47 1372 50 1367 l 186 1250 b 200 1244 190 1246 194 1244 b 215 1250 206 1244 211 1246 z "},"Ė":{"ha":414,"x_min":0,"x_max":0,"o":"m 215 365 l 215 582 l 329 582 b 379 632 357 582 379 604 l 379 686 b 329 736 379 714 357 736 l 215 736 l 215 858 l 65 796 l 65 408 z m 193 875 l 193 1051 l 328 1051 b 378 1101 356 1051 378 1074 l 378 1156 b 328 1206 378 1183 356 1206 l 93 1206 b 43 1156 65 1206 43 1183 l 43 811 z m 396 106 b 346 156 396 133 374 156 l 193 156 l 193 350 l 43 393 l 43 50 b 93 0 43 22 65 0 l 346 0 b 396 50 374 0 396 22 z m 117 1338 b 201 1254 117 1292 156 1254 b 286 1338 249 1254 286 1292 b 201 1424 286 1385 249 1424 b 117 1338 156 1424 117 1385 z "},"Ē":{"ha":414,"x_min":0,"x_max":0,"o":"m 215 365 l 215 582 l 329 582 b 379 632 357 582 379 604 l 379 686 b 329 736 379 714 357 736 l 215 736 l 215 858 l 65 796 l 65 408 z m 193 875 l 193 1051 l 328 1051 b 378 1101 356 1051 378 1074 l 378 1156 b 328 1206 378 1183 356 1206 l 93 1206 b 43 1156 65 1206 43 1183 l 43 811 z m 396 106 b 346 156 396 133 374 156 l 193 156 l 193 350 l 43 393 l 43 50 b 93 0 43 22 65 0 l 346 0 b 396 50 374 0 396 22 z m 40 1397 l 40 1335 b 63 1313 40 1322 50 1313 l 343 1313 b 365 1335 356 1313 365 1322 l 365 1397 b 343 1419 365 1410 356 1419 l 63 1419 b 40 1397 50 1419 40 1410 z "},"Ę":{"ha":414,"x_min":0,"x_max":0,"o":"m 215 365 l 215 582 l 329 582 b 379 632 357 582 379 604 l 379 686 b 329 736 379 714 357 736 l 215 736 l 215 858 l 65 796 l 65 408 z m 193 875 l 193 1051 l 328 1051 b 378 1101 356 1051 378 1074 l 378 1156 b 328 1206 378 1183 356 1206 l 93 1206 b 43 1156 65 1206 43 1183 l 43 811 z m 396 106 b 346 156 396 133 374 156 l 193 156 l 193 350 l 43 393 l 43 50 b 93 0 43 22 65 0 l 346 0 b 396 50 374 0 396 22 z m 357 -197 b 300 -214 338 -208 318 -214 b 254 -150 269 -214 254 -196 b 314 0 254 -124 269 -83 l 240 0 b 150 -175 181 -76 150 -129 b 263 -300 150 -254 194 -300 b 397 -249 317 -300 357 -279 b 404 -232 401 -244 404 -239 l 396 -206 b 376 -192 392 -196 385 -192 b 357 -197 369 -192 363 -194 z "},"Ğ":{"ha":481,"x_min":0,"x_max":0,"o":"m 213 354 l 213 724 l 63 656 l 63 406 z m 293 646 b 243 596 265 646 243 624 l 243 554 b 293 504 243 526 265 504 l 304 504 l 304 324 l 454 272 l 454 596 b 404 646 454 624 432 646 z m 190 739 l 190 1014 b 236 1088 190 1075 206 1088 b 282 1014 267 1088 282 1075 l 282 878 b 332 828 282 850 304 828 l 382 828 b 432 878 410 828 432 850 l 432 1029 b 235 1229 432 1185 328 1229 b 40 1029 143 1229 40 1185 l 40 672 z m 282 308 l 282 192 b 236 118 282 132 267 118 b 190 192 206 118 190 132 l 190 339 l 40 390 l 40 176 b 235 -24 40 21 143 -24 b 432 176 328 -24 432 21 l 432 257 z m 392 1449 l 383 1453 b 374 1456 381 1454 376 1456 b 351 1442 365 1456 357 1450 b 236 1374 318 1396 282 1374 b 118 1442 190 1374 151 1396 b 96 1456 113 1450 104 1456 b 86 1453 93 1456 89 1454 l 79 1449 b 67 1429 71 1444 67 1438 b 69 1418 67 1426 68 1422 b 236 1278 104 1326 161 1278 b 400 1415 307 1278 361 1322 b 403 1429 401 1419 403 1425 b 392 1449 403 1438 400 1444 z "},"Ĝ":{"ha":481,"x_min":0,"x_max":0,"o":"m 213 354 l 213 724 l 63 656 l 63 406 z m 293 646 b 243 596 265 646 243 624 l 243 554 b 293 504 243 526 265 504 l 304 504 l 304 324 l 454 272 l 454 596 b 404 646 454 624 432 646 z m 190 739 l 190 1014 b 236 1088 190 1075 206 1088 b 282 1014 267 1088 282 1075 l 282 878 b 332 828 282 850 304 828 l 382 828 b 432 878 410 828 432 850 l 432 1029 b 235 1229 432 1185 328 1229 b 40 1029 143 1229 40 1185 l 40 672 z m 282 308 l 282 192 b 236 118 282 132 267 118 b 190 192 206 118 190 132 l 190 339 l 40 390 l 40 176 b 235 -24 40 21 143 -24 b 432 176 328 -24 432 21 l 432 257 z m 249 1440 b 233 1446 244 1443 239 1446 b 219 1440 228 1446 224 1443 l 89 1328 b 81 1311 83 1324 81 1318 b 86 1297 81 1306 82 1301 l 111 1267 b 128 1258 115 1261 121 1258 b 142 1263 132 1258 138 1260 l 235 1332 l 328 1263 b 340 1258 332 1260 336 1258 b 357 1265 346 1258 353 1261 l 383 1297 b 389 1311 388 1301 389 1306 b 381 1328 389 1318 386 1324 z "},"Ģ":{"ha":481,"x_min":0,"x_max":0,"o":"m 213 354 l 213 724 l 63 656 l 63 406 z m 293 646 b 243 596 265 646 243 624 l 243 554 b 293 504 243 526 265 504 l 304 504 l 304 324 l 454 272 l 454 596 b 404 646 454 624 432 646 z m 190 739 l 190 1014 b 236 1088 190 1075 206 1088 b 282 1014 267 1088 282 1075 l 282 878 b 332 828 282 850 304 828 l 382 828 b 432 878 410 828 432 850 l 432 1029 b 235 1229 432 1185 328 1229 b 40 1029 143 1229 40 1185 l 40 672 z m 282 308 l 282 192 b 236 118 282 132 267 118 b 190 192 206 118 190 132 l 190 339 l 40 390 l 40 176 b 235 -24 40 21 143 -24 b 432 176 328 -24 432 21 l 432 257 z "},"Ġ":{"ha":481,"x_min":0,"x_max":0,"o":"m 213 354 l 213 724 l 63 656 l 63 406 z m 293 646 b 243 596 265 646 243 624 l 243 554 b 293 504 243 526 265 504 l 304 504 l 304 324 l 454 272 l 454 596 b 404 646 454 624 432 646 z m 190 739 l 190 1014 b 236 1088 190 1075 206 1088 b 282 1014 267 1088 282 1075 l 282 878 b 332 828 282 850 304 828 l 382 828 b 432 878 410 828 432 850 l 432 1029 b 235 1229 432 1185 328 1229 b 40 1029 143 1229 40 1185 l 40 672 z m 282 308 l 282 192 b 236 118 282 132 267 118 b 190 192 206 118 190 132 l 190 339 l 40 390 l 40 176 b 235 -24 40 21 143 -24 b 432 176 328 -24 432 21 l 432 257 z m 150 1338 b 235 1254 150 1292 189 1254 b 319 1338 282 1254 319 1292 b 235 1424 319 1385 282 1424 b 150 1338 189 1424 150 1385 z "},"Ħ":{"ha":481,"x_min":0,"x_max":0,"o":"m 215 438 l 215 558 l 300 558 l 300 418 l 450 383 l 450 908 l 300 849 l 300 714 l 215 714 l 215 815 l 65 757 l 65 472 z m 428 924 l 428 1156 b 378 1206 428 1183 406 1206 l 328 1206 b 278 1156 300 1206 278 1183 l 278 864 z m 193 832 l 193 1156 b 143 1206 193 1183 171 1206 l 93 1206 b 43 1156 65 1206 43 1183 l 43 772 z m 278 403 l 278 50 b 328 0 278 22 300 0 l 378 0 b 428 50 406 0 428 22 l 428 368 z m 193 422 l 43 457 l 43 50 b 93 0 43 22 65 0 l 143 0 b 193 50 171 0 193 22 z m 74 1397 l 74 1335 b 96 1313 74 1322 83 1313 l 376 1313 b 399 1335 389 1313 399 1322 l 399 1397 b 376 1419 399 1410 389 1419 l 96 1419 b 74 1397 83 1419 74 1410 z "},"Ĥ":{"ha":481,"x_min":0,"x_max":0,"o":"m 215 438 l 215 558 l 300 558 l 300 418 l 450 383 l 450 908 l 300 849 l 300 714 l 215 714 l 215 815 l 65 757 l 65 472 z m 428 924 l 428 1156 b 378 1206 428 1183 406 1206 l 328 1206 b 278 1156 300 1206 278 1183 l 278 864 z m 193 832 l 193 1156 b 143 1206 193 1183 171 1206 l 93 1206 b 43 1156 65 1206 43 1183 l 43 772 z m 278 403 l 278 50 b 328 0 278 22 300 0 l 378 0 b 428 50 406 0 428 22 l 428 368 z m 193 422 l 43 457 l 43 50 b 93 0 43 22 65 0 l 143 0 b 193 50 171 0 193 22 z m 249 1440 b 233 1446 244 1443 239 1446 b 219 1440 228 1446 224 1443 l 89 1328 b 81 1311 83 1324 81 1318 b 86 1297 81 1306 82 1301 l 111 1267 b 128 1258 115 1261 121 1258 b 142 1263 132 1258 138 1260 l 235 1332 l 328 1263 b 340 1258 332 1260 336 1258 b 357 1265 346 1258 353 1261 l 383 1297 b 389 1311 388 1301 389 1306 b 381 1328 389 1318 386 1324 z "},"Ĭ":{"ha":244,"x_min":0,"x_max":0,"o":"m 215 444 l 215 807 l 65 767 l 65 464 z m 193 822 l 193 1156 b 143 1206 193 1183 171 1206 l 93 1206 b 43 1156 65 1206 43 1183 l 43 782 z m 193 428 l 43 449 l 43 50 b 93 0 43 22 65 0 l 143 0 b 193 50 171 0 193 22 z m 274 1449 l 265 1453 b 256 1456 263 1454 258 1456 b 233 1442 247 1456 239 1450 b 118 1374 200 1396 164 1374 b 0 1442 72 1374 33 1396 b -22 1456 -6 1450 -14 1456 b -32 1453 -25 1456 -29 1454 l -39 1449 b -51 1429 -47 1444 -51 1438 b -49 1418 -51 1426 -50 1422 b 118 1278 -14 1326 43 1278 b 282 1415 189 1278 243 1322 b 285 1429 283 1419 285 1425 b 274 1449 285 1438 282 1444 z "},"İ":{"ha":244,"x_min":0,"x_max":0,"o":"m 215 444 l 215 807 l 65 767 l 65 464 z m 193 822 l 193 1156 b 143 1206 193 1183 171 1206 l 93 1206 b 43 1156 65 1206 43 1183 l 43 782 z m 193 428 l 43 449 l 43 50 b 93 0 43 22 65 0 l 143 0 b 193 50 171 0 193 22 z m 32 1338 b 117 1254 32 1292 71 1254 b 201 1338 164 1254 201 1292 b 117 1424 201 1385 164 1424 b 32 1338 71 1424 32 1385 z "},"Ī":{"ha":244,"x_min":0,"x_max":0,"o":"m 215 444 l 215 807 l 65 767 l 65 464 z m 193 822 l 193 1156 b 143 1206 193 1183 171 1206 l 93 1206 b 43 1156 65 1206 43 1183 l 43 782 z m 193 428 l 43 449 l 43 50 b 93 0 43 22 65 0 l 143 0 b 193 50 171 0 193 22 z m -44 1397 l -44 1335 b -22 1313 -44 1322 -35 1313 l 258 1313 b 281 1335 271 1313 281 1322 l 281 1397 b 258 1419 281 1410 271 1419 l -22 1419 b -44 1397 -35 1419 -44 1410 z "},"Į":{"ha":244,"x_min":0,"x_max":0,"o":"m 215 444 l 215 807 l 65 767 l 65 464 z m 193 822 l 193 1156 b 143 1206 193 1183 171 1206 l 93 1206 b 43 1156 65 1206 43 1183 l 43 782 z m 193 428 l 43 449 l 43 50 b 93 0 43 22 65 0 l 143 0 b 193 50 171 0 193 22 z m 197 -196 b 140 -212 178 -207 158 -212 b 94 -149 110 -212 94 -194 b 154 1 94 -122 110 -82 l 81 1 b -10 -174 21 -75 -10 -128 b 103 -299 -10 -253 35 -299 b 238 -247 157 -299 197 -278 b 244 -231 242 -243 244 -237 l 236 -204 b 217 -190 232 -194 225 -190 b 197 -196 210 -190 203 -193 z "},"Ĩ":{"ha":244,"x_min":0,"x_max":0,"o":"m 215 444 l 215 807 l 65 767 l 65 464 z m 193 822 l 193 1156 b 143 1206 193 1183 171 1206 l 93 1206 b 43 1156 65 1206 43 1183 l 43 782 z m 193 428 l 43 449 l 43 50 b 93 0 43 22 65 0 l 143 0 b 193 50 171 0 193 22 z m 267 1456 l 235 1456 b 210 1433 221 1456 214 1446 b 178 1408 206 1419 190 1408 b 51 1456 144 1408 99 1456 b -54 1336 -8 1456 -46 1411 b -33 1307 -54 1319 -47 1307 l 0 1307 b 26 1331 14 1307 21 1318 b 54 1353 32 1344 43 1353 b 183 1306 90 1353 133 1306 b 286 1422 236 1306 274 1346 b 288 1435 286 1422 288 1431 b 267 1456 288 1449 281 1456 z "},"Ĵ":{"ha":481,"x_min":0,"x_max":0,"o":"m 300 724 l 300 444 l 450 388 l 450 785 z m 278 740 l 428 800 l 428 1156 b 378 1206 428 1183 406 1206 l 328 1206 b 278 1156 300 1206 278 1183 z m 278 429 l 278 203 b 236 118 278 125 256 118 b 193 203 217 118 193 125 l 193 344 b 143 394 193 372 171 394 l 93 394 b 43 344 65 394 43 372 l 43 199 b 232 -24 43 68 122 -24 b 428 181 318 -24 428 24 l 428 371 z m 365 1440 b 350 1446 361 1443 356 1446 b 336 1440 344 1446 340 1443 l 206 1328 b 197 1311 200 1324 197 1318 b 203 1297 197 1306 199 1301 l 228 1267 b 244 1258 232 1261 238 1258 b 258 1263 249 1258 254 1260 l 351 1332 l 444 1263 b 457 1258 449 1260 453 1258 b 474 1265 463 1258 469 1261 l 500 1297 b 506 1311 504 1301 506 1306 b 497 1328 506 1318 503 1324 z "},"Ŀ":{"ha":403,"x_min":0,"x_max":0,"o":"m 193 863 l 193 1156 b 143 1206 193 1183 171 1206 l 93 1206 b 43 1156 65 1206 43 1183 l 43 835 z m 232 486 l 232 851 l 82 824 l 82 543 z m 385 106 b 335 156 385 133 363 156 l 193 156 l 193 474 l 43 532 l 43 50 b 93 0 43 22 65 0 l 335 0 b 385 50 363 0 385 22 z m 246 474 b 331 390 246 428 285 390 b 415 474 378 390 415 428 b 331 560 415 521 378 560 b 246 474 285 560 246 521 z "},"Ń":{"ha":560,"x_min":0,"x_max":0,"o":"m 507 924 l 507 1156 b 457 1206 507 1183 485 1206 l 433 1206 b 383 1156 406 1206 383 1183 l 383 892 z m 43 803 l 168 836 l 168 879 b 163 1033 165 929 163 981 l 169 1033 b 186 840 175 968 179 904 l 310 872 l 275 1161 b 225 1206 272 1188 250 1206 l 93 1206 b 43 1156 65 1206 43 1183 z m 82 793 l 82 583 l 207 572 l 207 826 z m 546 542 l 546 914 l 422 882 l 422 594 l 422 553 z m 225 831 b 253 604 232 757 240 682 l 258 568 l 390 556 b 350 856 379 657 365 757 l 349 863 z m 43 569 l 43 50 b 93 0 43 22 65 0 l 118 0 b 168 50 146 0 168 22 l 168 560 z m 219 554 l 293 43 b 342 0 296 18 317 0 l 457 0 b 507 50 485 0 507 22 l 507 529 l 383 540 b 389 236 385 439 389 336 l 389 174 l 382 174 b 351 543 375 296 364 419 z m 224 1253 b 240 1244 228 1247 233 1244 b 256 1251 246 1244 251 1247 l 404 1400 b 411 1415 408 1404 411 1410 b 407 1428 411 1419 410 1424 l 368 1483 b 350 1493 364 1490 357 1493 b 332 1485 343 1493 336 1490 l 199 1310 b 194 1297 196 1306 194 1301 b 200 1282 194 1292 196 1286 l 224 1253 z "},"Ň":{"ha":560,"x_min":0,"x_max":0,"o":"m 507 924 l 507 1156 b 457 1206 507 1183 485 1206 l 433 1206 b 383 1156 406 1206 383 1183 l 383 892 z m 43 803 l 168 836 l 168 879 b 163 1033 165 929 163 981 l 169 1033 b 186 840 175 968 179 904 l 310 872 l 275 1161 b 225 1206 272 1188 250 1206 l 93 1206 b 43 1156 65 1206 43 1183 z m 82 793 l 82 583 l 207 572 l 207 826 z m 546 542 l 546 914 l 422 882 l 422 594 l 422 553 z m 225 831 b 253 604 232 757 240 682 l 258 568 l 390 556 b 350 856 379 657 365 757 l 349 863 z m 43 569 l 43 50 b 93 0 43 22 65 0 l 118 0 b 168 50 146 0 168 22 l 168 560 z m 219 554 l 293 43 b 342 0 296 18 317 0 l 457 0 b 507 50 485 0 507 22 l 507 529 l 383 540 b 389 236 385 439 389 336 l 389 174 l 382 174 b 351 543 375 296 364 419 z m 289 1250 l 421 1363 b 429 1379 426 1367 429 1372 b 424 1393 429 1385 428 1389 l 397 1425 b 381 1432 393 1429 386 1432 b 368 1428 376 1432 372 1431 l 275 1358 l 182 1428 b 168 1432 178 1431 172 1432 b 151 1424 161 1432 156 1429 l 126 1393 b 121 1379 122 1389 121 1385 b 129 1363 121 1372 124 1367 l 260 1250 b 274 1244 264 1246 268 1244 b 289 1250 279 1244 285 1246 z "},"Ŏ":{"ha":481,"x_min":0,"x_max":0,"o":"m 190 806 l 190 1014 b 236 1088 190 1075 206 1088 b 282 1014 267 1088 282 1075 l 282 824 l 432 854 l 432 1029 b 235 1229 432 1185 328 1229 b 40 1029 143 1229 40 1185 l 40 775 z m 471 539 l 471 843 l 321 813 l 321 571 z m 229 590 l 229 794 l 79 764 l 79 622 z m 40 176 b 235 -24 40 22 143 -24 b 432 176 328 -24 432 22 l 432 528 l 282 560 l 282 192 b 236 118 282 132 267 118 b 190 192 206 118 190 132 l 190 579 l 40 611 z m 392 1449 l 383 1453 b 374 1456 381 1454 376 1456 b 351 1442 365 1456 357 1450 b 236 1374 318 1396 282 1374 b 118 1442 190 1374 151 1396 b 96 1456 113 1450 104 1456 b 86 1453 93 1456 89 1454 l 79 1449 b 67 1429 71 1444 67 1438 b 69 1418 67 1426 68 1422 b 236 1278 104 1326 161 1278 b 400 1415 307 1278 361 1322 b 403 1429 401 1419 403 1425 b 392 1449 403 1438 400 1444 z "},"Ő":{"ha":481,"x_min":0,"x_max":0,"o":"m 190 806 l 190 1014 b 236 1088 190 1075 206 1088 b 282 1014 267 1088 282 1075 l 282 824 l 432 854 l 432 1029 b 235 1229 432 1185 328 1229 b 40 1029 143 1229 40 1185 l 40 775 z m 471 539 l 471 843 l 321 813 l 321 571 z m 229 590 l 229 794 l 79 764 l 79 622 z m 40 176 b 235 -24 40 22 143 -24 b 432 176 328 -24 432 22 l 432 528 l 282 560 l 282 192 b 236 118 282 132 267 118 b 190 192 206 118 190 132 l 190 579 l 40 611 z m 160 1265 l 256 1361 b 263 1376 260 1365 263 1371 b 258 1390 263 1381 261 1386 l 222 1438 b 204 1446 218 1443 211 1446 b 188 1438 199 1446 192 1443 l 101 1328 b 97 1315 99 1324 97 1319 b 101 1301 97 1311 99 1306 l 126 1268 b 144 1258 131 1263 138 1258 b 160 1265 150 1258 156 1261 z m 328 1256 l 422 1351 b 428 1367 426 1356 428 1361 b 424 1381 428 1371 426 1376 l 392 1426 b 374 1436 388 1433 381 1436 b 357 1428 367 1436 361 1433 l 269 1317 b 264 1303 265 1313 264 1307 b 269 1289 264 1297 265 1293 l 294 1257 b 311 1249 299 1251 304 1249 b 328 1256 317 1249 324 1251 z "},"Ō":{"ha":481,"x_min":0,"x_max":0,"o":"m 190 806 l 190 1014 b 236 1088 190 1075 206 1088 b 282 1014 267 1088 282 1075 l 282 824 l 432 854 l 432 1029 b 235 1229 432 1185 328 1229 b 40 1029 143 1229 40 1185 l 40 775 z m 471 539 l 471 843 l 321 813 l 321 571 z m 229 590 l 229 794 l 79 764 l 79 622 z m 40 176 b 235 -24 40 22 143 -24 b 432 176 328 -24 432 22 l 432 528 l 282 560 l 282 192 b 236 118 282 132 267 118 b 190 192 206 118 190 132 l 190 579 l 40 611 z m 74 1397 l 74 1335 b 96 1313 74 1322 83 1313 l 376 1313 b 399 1335 389 1313 399 1322 l 399 1397 b 376 1419 399 1410 389 1419 l 96 1419 b 74 1397 83 1419 74 1410 z "},"Ŕ":{"ha":481,"x_min":0,"x_max":0,"o":"m 190 903 l 190 1064 l 225 1064 b 282 1006 260 1064 282 1051 l 282 921 l 432 951 l 432 1003 b 239 1206 432 1156 358 1206 l 90 1206 b 40 1156 63 1206 40 1183 l 40 872 z m 431 690 b 471 825 464 724 471 771 l 471 940 l 321 910 l 321 782 b 301 718 321 754 317 732 z m 229 733 l 229 892 l 79 860 l 79 765 z m 190 564 l 257 519 b 282 476 272 511 282 494 l 282 143 l 294 43 b 344 0 297 18 318 0 l 393 0 b 443 49 421 0 443 22 l 443 56 l 432 146 l 432 510 b 368 603 432 551 407 588 l 283 633 b 389 679 333 640 367 657 l 261 707 b 218 694 251 699 238 694 l 190 694 l 190 722 l 40 754 l 40 50 b 90 0 40 22 63 0 l 140 0 b 190 50 168 0 190 22 z m 183 1253 b 200 1244 188 1247 193 1244 b 215 1251 206 1244 211 1247 l 364 1400 b 371 1415 368 1404 371 1410 b 367 1428 371 1419 369 1424 l 328 1483 b 310 1493 324 1490 317 1493 b 292 1485 303 1493 296 1490 l 158 1310 b 154 1297 156 1306 154 1301 b 160 1282 154 1292 156 1286 l 183 1253 z "},"Ř":{"ha":481,"x_min":0,"x_max":0,"o":"m 190 903 l 190 1064 l 225 1064 b 282 1006 260 1064 282 1051 l 282 921 l 432 951 l 432 1003 b 239 1206 432 1156 358 1206 l 90 1206 b 40 1156 63 1206 40 1183 l 40 872 z m 431 690 b 471 825 464 724 471 771 l 471 940 l 321 910 l 321 782 b 301 718 321 754 317 732 z m 229 733 l 229 892 l 79 860 l 79 765 z m 190 564 l 257 519 b 282 476 272 511 282 494 l 282 143 l 294 43 b 344 0 297 18 318 0 l 393 0 b 443 49 421 0 443 22 l 443 56 l 432 146 l 432 510 b 368 603 432 551 407 588 l 283 633 b 389 679 333 640 367 657 l 261 707 b 218 694 251 699 238 694 l 190 694 l 190 722 l 40 754 l 40 50 b 90 0 40 22 63 0 l 140 0 b 190 50 168 0 190 22 z m 249 1250 l 381 1363 b 389 1379 386 1367 389 1372 b 383 1393 389 1385 388 1389 l 357 1425 b 340 1432 353 1429 346 1432 b 328 1428 336 1432 332 1431 l 235 1358 l 142 1428 b 128 1432 138 1431 132 1432 b 111 1424 121 1432 115 1429 l 86 1393 b 81 1379 82 1389 81 1385 b 89 1363 81 1372 83 1367 l 219 1250 b 233 1244 224 1246 228 1244 b 249 1250 239 1244 244 1246 z "},"Ś":{"ha":481,"x_min":0,"x_max":0,"o":"m 226 778 b 190 868 204 815 190 847 l 190 1014 b 236 1088 190 1075 206 1088 b 282 1014 267 1088 282 1075 l 282 876 b 332 826 282 849 304 826 l 382 826 b 432 876 410 826 432 849 l 432 1029 b 235 1229 432 1185 328 1229 b 40 1029 143 1229 40 1185 l 40 860 b 90 697 40 803 61 749 z m 393 578 b 267 772 351 646 300 715 l 129 690 b 192 594 147 658 169 626 z m 90 396 b 40 346 63 396 40 374 l 40 176 b 235 -24 40 22 143 -24 b 432 176 328 -24 432 22 l 432 386 b 356 563 432 431 397 494 l 154 578 l 167 560 b 282 317 225 478 282 397 l 282 192 b 236 118 282 132 267 118 b 190 192 206 118 190 132 l 190 346 b 140 396 190 374 168 396 z m 183 1253 b 200 1244 188 1247 193 1244 b 215 1251 206 1244 211 1247 l 364 1400 b 371 1415 368 1404 371 1410 b 367 1428 371 1419 369 1424 l 328 1483 b 310 1493 324 1490 317 1493 b 292 1485 303 1493 296 1490 l 158 1310 b 154 1297 156 1306 154 1301 b 160 1282 154 1292 156 1286 l 183 1253 z "},"Ŝ":{"ha":481,"x_min":0,"x_max":0,"o":"m 226 778 b 190 868 204 815 190 847 l 190 1014 b 236 1088 190 1075 206 1088 b 282 1014 267 1088 282 1075 l 282 876 b 332 826 282 849 304 826 l 382 826 b 432 876 410 826 432 849 l 432 1029 b 235 1229 432 1185 328 1229 b 40 1029 143 1229 40 1185 l 40 860 b 90 697 40 803 61 749 z m 393 578 b 267 772 351 646 300 715 l 129 690 b 192 594 147 658 169 626 z m 90 396 b 40 346 63 396 40 374 l 40 176 b 235 -24 40 22 143 -24 b 432 176 328 -24 432 22 l 432 386 b 356 563 432 431 397 494 l 154 578 l 167 560 b 282 317 225 478 282 397 l 282 192 b 236 118 282 132 267 118 b 190 192 206 118 190 132 l 190 346 b 140 396 190 374 168 396 z m 249 1440 b 233 1446 244 1443 239 1446 b 219 1440 228 1446 224 1443 l 89 1328 b 81 1311 83 1324 81 1318 b 86 1297 81 1306 82 1301 l 111 1267 b 128 1258 115 1261 121 1258 b 142 1263 132 1258 138 1260 l 235 1332 l 328 1263 b 340 1258 332 1260 336 1258 b 357 1265 346 1258 353 1261 l 383 1297 b 389 1311 388 1301 389 1306 b 381 1328 389 1318 386 1324 z "},"Ť":{"ha":454,"x_min":0,"x_max":0,"o":"m 17 1101 b 67 1051 17 1074 39 1051 l 149 1051 l 149 733 l 299 772 l 299 1051 l 379 1051 b 429 1101 407 1051 429 1074 l 429 1156 b 379 1206 429 1183 407 1206 l 67 1206 b 17 1156 39 1206 17 1183 z m 188 722 l 188 436 l 338 403 l 338 761 z m 149 425 l 149 50 b 199 0 149 22 171 0 l 249 0 b 299 50 276 0 299 22 l 299 392 z m 236 1250 l 368 1363 b 376 1379 374 1367 376 1372 b 371 1393 376 1385 375 1389 l 344 1425 b 328 1432 340 1429 333 1432 b 315 1428 324 1432 319 1431 l 222 1358 l 129 1428 b 115 1432 125 1431 119 1432 b 99 1424 108 1432 103 1429 l 74 1393 b 68 1379 69 1389 68 1385 b 76 1363 68 1372 71 1367 l 207 1250 b 221 1244 211 1246 215 1244 b 236 1250 226 1244 232 1246 z "},"Ŭ":{"ha":481,"x_min":0,"x_max":0,"o":"m 190 804 l 190 1156 b 140 1206 190 1183 168 1206 l 90 1206 b 40 1156 63 1206 40 1183 l 40 772 z m 282 822 l 432 854 l 432 1156 b 382 1206 432 1183 410 1206 l 332 1206 b 282 1156 304 1206 282 1183 z m 229 524 l 229 792 l 79 761 l 79 564 z m 321 811 l 321 500 l 471 461 l 471 843 z m 282 489 l 282 192 b 236 118 282 132 267 118 b 190 192 206 118 190 132 l 190 513 l 40 553 l 40 176 b 235 -24 40 22 143 -24 b 432 176 328 -24 432 22 l 432 450 z m 392 1449 l 383 1453 b 374 1456 381 1454 376 1456 b 351 1442 365 1456 357 1450 b 236 1374 318 1396 282 1374 b 118 1442 190 1374 151 1396 b 96 1456 113 1450 104 1456 b 86 1453 93 1456 89 1454 l 79 1449 b 67 1429 71 1444 67 1438 b 69 1418 67 1426 68 1422 b 236 1278 104 1326 161 1278 b 400 1415 307 1278 361 1322 b 403 1429 401 1419 403 1425 b 392 1449 403 1438 400 1444 z "},"":{"ha":243,"x_min":0,"x_max":0,"o":"m 115 -362 l 190 -204 l 190 -58 b 168 -36 190 -46 181 -36 l 71 -36 b 49 -58 58 -36 49 -46 l 49 -200 b 71 -222 49 -212 58 -222 l 107 -222 l 57 -344 b 56 -353 56 -347 56 -350 b 78 -375 56 -365 64 -375 l 96 -375 b 115 -362 104 -375 113 -371 z "},"Ķ":{"ha":481,"x_min":0,"x_max":0,"o":"m 253 924 l 407 958 l 447 1144 b 397 1206 454 1176 429 1206 l 353 1206 b 304 1165 329 1206 308 1189 z m 43 876 l 193 910 l 193 1156 b 143 1206 193 1183 171 1206 l 93 1206 b 43 1156 65 1206 43 1183 z m 82 404 l 232 388 l 232 611 l 238 611 l 279 382 l 436 364 l 383 654 l 446 947 l 292 913 l 238 661 l 232 661 l 232 899 l 82 865 z m 396 353 l 240 371 l 300 42 b 349 0 304 17 324 0 l 401 0 b 450 58 432 0 456 28 z m 193 50 l 193 376 l 43 393 l 43 50 b 93 0 43 22 65 0 l 143 0 b 193 50 171 0 193 22 z m 233 -362 l 308 -204 l 308 -58 b 286 -36 308 -46 299 -36 l 189 -36 b 167 -58 176 -36 167 -46 l 167 -200 b 189 -222 167 -212 176 -222 l 225 -222 l 175 -344 b 174 -353 174 -347 174 -350 b 196 -375 174 -365 182 -375 l 214 -375 b 233 -362 222 -375 231 -371 z "},"Ļ":{"ha":403,"x_min":0,"x_max":0,"o":"m 193 863 l 193 1156 b 143 1206 193 1183 171 1206 l 93 1206 b 43 1156 65 1206 43 1183 l 43 835 z m 232 486 l 232 851 l 82 824 l 82 543 z m 385 106 b 335 156 385 133 363 156 l 193 156 l 193 474 l 43 532 l 43 50 b 93 0 43 22 65 0 l 335 0 b 385 50 363 0 385 22 z m 194 -362 l 269 -204 l 269 -58 b 247 -36 269 -46 260 -36 l 150 -36 b 128 -58 138 -36 128 -46 l 128 -200 b 150 -222 128 -212 138 -222 l 186 -222 l 136 -344 b 135 -353 135 -347 135 -350 b 157 -375 135 -365 143 -375 l 175 -375 b 194 -362 183 -375 192 -371 z "},"Ņ":{"ha":560,"x_min":0,"x_max":0,"o":"m 507 924 l 507 1156 b 457 1206 507 1183 485 1206 l 433 1206 b 383 1156 406 1206 383 1183 l 383 892 z m 43 803 l 168 836 l 168 879 b 163 1033 165 929 163 981 l 169 1033 b 186 840 175 968 179 904 l 310 872 l 275 1161 b 225 1206 272 1188 250 1206 l 93 1206 b 43 1156 65 1206 43 1183 z m 82 793 l 82 583 l 207 572 l 207 826 z m 546 542 l 546 914 l 422 882 l 422 594 l 422 553 z m 225 831 b 253 604 232 757 240 682 l 258 568 l 390 556 b 350 856 379 657 365 757 l 349 863 z m 43 569 l 43 50 b 93 0 43 22 65 0 l 118 0 b 168 50 146 0 168 22 l 168 560 z m 219 554 l 293 43 b 342 0 296 18 317 0 l 457 0 b 507 50 485 0 507 22 l 507 529 l 383 540 b 389 236 385 439 389 336 l 389 174 l 382 174 b 351 543 375 296 364 419 z m 274 -362 l 349 -204 l 349 -58 b 326 -36 349 -46 339 -36 l 229 -36 b 207 -58 217 -36 207 -46 l 207 -200 b 229 -222 207 -212 217 -222 l 265 -222 l 215 -344 b 214 -353 214 -347 214 -350 b 236 -375 214 -365 222 -375 l 254 -375 b 274 -362 263 -375 271 -371 z "},"Ŗ":{"ha":481,"x_min":0,"x_max":0,"o":"m 190 903 l 190 1064 l 225 1064 b 282 1006 260 1064 282 1051 l 282 921 l 432 951 l 432 1003 b 239 1206 432 1156 358 1206 l 90 1206 b 40 1156 63 1206 40 1183 l 40 872 z m 431 690 b 471 825 464 724 471 771 l 471 940 l 321 910 l 321 782 b 301 718 321 754 317 732 z m 229 733 l 229 892 l 79 860 l 79 765 z m 190 564 l 257 519 b 282 476 272 511 282 494 l 282 143 l 294 43 b 344 0 297 18 318 0 l 393 0 b 443 49 421 0 443 22 l 443 56 l 432 146 l 432 510 b 368 603 432 551 407 588 l 283 633 b 389 679 333 640 367 657 l 261 707 b 218 694 251 699 238 694 l 190 694 l 190 722 l 40 754 l 40 50 b 90 0 40 22 63 0 l 140 0 b 190 50 168 0 190 22 z m 233 -362 l 308 -204 l 308 -58 b 286 -36 308 -46 299 -36 l 189 -36 b 167 -58 176 -36 167 -46 l 167 -200 b 189 -222 167 -212 176 -222 l 225 -222 l 175 -344 b 174 -353 174 -347 174 -350 b 196 -375 174 -365 182 -375 l 214 -375 b 233 -362 222 -375 231 -371 z "},"Ş":{"ha":481,"x_min":0,"x_max":0,"o":"m 226 778 b 190 868 204 815 190 847 l 190 1014 b 236 1088 190 1075 206 1088 b 282 1014 267 1088 282 1075 l 282 876 b 332 826 282 849 304 826 l 382 826 b 432 876 410 826 432 849 l 432 1029 b 235 1229 432 1185 328 1229 b 40 1029 143 1229 40 1185 l 40 860 b 90 697 40 803 61 749 z m 393 578 b 267 772 351 646 300 715 l 129 690 b 192 594 147 658 169 626 z m 90 396 b 40 346 63 396 40 374 l 40 176 b 235 -24 40 22 143 -24 b 432 176 328 -24 432 22 l 432 386 b 356 563 432 431 397 494 l 154 578 l 167 560 b 282 317 225 478 282 397 l 282 192 b 236 118 282 132 267 118 b 190 192 206 118 190 132 l 190 346 b 140 396 190 374 168 396 z m 140 -292 l 211 -292 b 360 -199 286 -292 360 -286 b 217 -86 360 -124 310 -86 l 242 0 l 190 0 b 158 -108 160 -99 158 -104 b 221 -153 158 -143 189 -150 b 275 -206 250 -156 275 -167 b 204 -249 275 -243 249 -249 l 179 -249 b 158 -257 171 -249 164 -250 b 136 -282 153 -262 136 -282 b 140 -292 133 -286 136 -292 z "},"Ţ":{"ha":454,"x_min":0,"x_max":0,"o":"m 17 1101 b 67 1051 17 1074 39 1051 l 149 1051 l 149 733 l 299 772 l 299 1051 l 379 1051 b 429 1101 407 1051 429 1074 l 429 1156 b 379 1206 429 1183 407 1206 l 67 1206 b 17 1156 39 1206 17 1183 z m 188 722 l 188 436 l 338 403 l 338 761 z m 149 425 l 149 50 b 199 0 149 22 171 0 l 249 0 b 299 50 276 0 299 22 l 299 392 z m 221 -362 l 296 -204 l 296 -58 b 274 -36 296 -46 286 -36 l 176 -36 b 154 -58 164 -36 154 -46 l 154 -200 b 176 -222 154 -212 164 -222 l 213 -222 l 163 -344 b 161 -353 161 -347 161 -350 b 183 -375 161 -365 169 -375 l 201 -375 b 221 -362 210 -375 218 -371 z "},"Ű":{"ha":481,"x_min":0,"x_max":0,"o":"m 190 804 l 190 1156 b 140 1206 190 1183 168 1206 l 90 1206 b 40 1156 63 1206 40 1183 l 40 772 z m 282 822 l 432 854 l 432 1156 b 382 1206 432 1183 410 1206 l 332 1206 b 282 1156 304 1206 282 1183 z m 229 524 l 229 792 l 79 761 l 79 564 z m 321 811 l 321 500 l 471 461 l 471 843 z m 282 489 l 282 192 b 236 118 282 132 267 118 b 190 192 206 118 190 132 l 190 513 l 40 553 l 40 176 b 235 -24 40 22 143 -24 b 432 176 328 -24 432 22 l 432 450 z m 160 1265 l 256 1361 b 263 1376 260 1365 263 1371 b 258 1390 263 1381 261 1386 l 222 1438 b 204 1446 218 1443 211 1446 b 188 1438 199 1446 192 1443 l 101 1328 b 97 1315 99 1324 97 1319 b 101 1301 97 1311 99 1306 l 126 1268 b 144 1258 131 1263 138 1258 b 160 1265 150 1258 156 1261 z m 328 1256 l 422 1351 b 428 1367 426 1356 428 1361 b 424 1381 428 1371 426 1376 l 392 1426 b 374 1436 388 1433 381 1436 b 357 1428 367 1436 361 1433 l 269 1317 b 264 1303 265 1313 264 1307 b 269 1289 264 1297 265 1293 l 294 1257 b 311 1249 299 1251 304 1249 b 328 1256 317 1249 324 1251 z "},"Ū":{"ha":481,"x_min":0,"x_max":0,"o":"m 190 804 l 190 1156 b 140 1206 190 1183 168 1206 l 90 1206 b 40 1156 63 1206 40 1183 l 40 772 z m 282 822 l 432 854 l 432 1156 b 382 1206 432 1183 410 1206 l 332 1206 b 282 1156 304 1206 282 1183 z m 229 524 l 229 792 l 79 761 l 79 564 z m 321 811 l 321 500 l 471 461 l 471 843 z m 282 489 l 282 192 b 236 118 282 132 267 118 b 190 192 206 118 190 132 l 190 513 l 40 553 l 40 176 b 235 -24 40 22 143 -24 b 432 176 328 -24 432 22 l 432 450 z m 74 1397 l 74 1335 b 96 1313 74 1322 83 1313 l 376 1313 b 399 1335 389 1313 399 1322 l 399 1397 b 376 1419 399 1410 389 1419 l 96 1419 b 74 1397 83 1419 74 1410 z "},"Ų":{"ha":481,"x_min":0,"x_max":0,"o":"m 190 804 l 190 1156 b 140 1206 190 1183 168 1206 l 90 1206 b 40 1156 63 1206 40 1183 l 40 772 z m 282 822 l 432 854 l 432 1156 b 382 1206 432 1183 410 1206 l 332 1206 b 282 1156 304 1206 282 1183 z m 229 524 l 229 792 l 79 761 l 79 564 z m 321 811 l 321 500 l 471 461 l 471 843 z m 282 489 l 282 192 b 236 118 282 132 267 118 b 190 192 206 118 190 132 l 190 513 l 40 553 l 40 176 b 235 -24 40 22 143 -24 b 432 176 328 -24 432 22 l 432 450 z m 378 -197 b 321 -214 358 -208 339 -214 b 275 -150 290 -214 275 -196 b 335 0 275 -124 290 -83 l 261 0 b 171 -175 201 -76 171 -129 b 283 -300 171 -254 215 -300 b 418 -249 338 -300 378 -279 b 425 -232 422 -244 425 -239 l 417 -206 b 397 -192 413 -196 406 -192 b 378 -197 390 -192 383 -194 z "},"Ů":{"ha":481,"x_min":0,"x_max":0,"o":"m 190 804 l 190 1156 b 140 1206 190 1183 168 1206 l 90 1206 b 40 1156 63 1206 40 1183 l 40 772 z m 282 822 l 432 854 l 432 1156 b 382 1206 432 1183 410 1206 l 332 1206 b 282 1156 304 1206 282 1183 z m 229 524 l 229 792 l 79 761 l 79 564 z m 321 811 l 321 500 l 471 461 l 471 843 z m 282 489 l 282 192 b 236 118 282 132 267 118 b 190 192 206 118 190 132 l 190 513 l 40 553 l 40 176 b 235 -24 40 22 143 -24 b 432 176 328 -24 432 22 l 432 450 z m 114 1376 b 235 1256 114 1310 168 1256 b 358 1376 304 1256 358 1310 b 235 1500 358 1446 304 1500 b 114 1376 168 1500 114 1446 z m 171 1376 b 235 1443 171 1414 200 1443 b 301 1376 272 1443 301 1414 b 235 1313 301 1342 272 1313 b 171 1376 200 1313 171 1342 z "},"Ũ":{"ha":481,"x_min":0,"x_max":0,"o":"m 190 804 l 190 1156 b 140 1206 190 1183 168 1206 l 90 1206 b 40 1156 63 1206 40 1183 l 40 772 z m 282 822 l 432 854 l 432 1156 b 382 1206 432 1183 410 1206 l 332 1206 b 282 1156 304 1206 282 1183 z m 229 524 l 229 792 l 79 761 l 79 564 z m 321 811 l 321 500 l 471 461 l 471 843 z m 282 489 l 282 192 b 236 118 282 132 267 118 b 190 192 206 118 190 132 l 190 513 l 40 553 l 40 176 b 235 -24 40 22 143 -24 b 432 176 328 -24 432 22 l 432 450 z m 385 1456 l 353 1456 b 328 1433 339 1456 332 1446 b 296 1408 324 1419 308 1408 b 169 1456 263 1408 217 1456 b 64 1336 110 1456 72 1411 b 85 1307 64 1319 71 1307 l 118 1307 b 144 1331 132 1307 139 1318 b 172 1353 150 1344 161 1353 b 301 1306 208 1353 251 1306 b 404 1422 354 1306 392 1346 b 406 1435 404 1422 406 1431 b 385 1456 406 1449 399 1456 z "},"Ẃ":{"ha":689,"x_min":0,"x_max":0,"o":"m 636 858 l 661 1156 b 611 1206 661 1183 639 1206 l 590 1206 b 540 1160 564 1206 542 1186 l 515 824 z m 342 774 b 351 904 344 818 347 861 l 358 904 b 361 779 358 863 360 821 l 463 808 l 439 1158 b 389 1206 438 1185 415 1206 l 319 1206 b 269 1160 293 1206 272 1186 l 236 744 z m 200 733 b 197 775 199 749 197 761 l 169 1160 b 119 1206 168 1186 146 1206 l 68 1206 b 18 1151 40 1206 18 1183 l 53 692 z m 656 625 l 675 854 l 553 818 l 544 699 b 539 618 542 678 540 650 z m 400 775 b 408 613 401 721 406 667 l 511 617 b 507 733 510 660 510 699 l 501 804 z m 369 610 b 379 763 374 660 376 711 l 379 769 l 275 739 l 269 606 z m 243 604 b 238 728 242 649 240 690 l 92 686 l 99 596 z m 369 594 b 400 47 372 539 374 482 b 450 0 401 21 424 0 l 519 0 b 569 46 546 0 567 19 l 617 607 l 500 601 b 490 222 494 483 493 314 l 483 222 b 474 600 481 319 478 469 z m 324 493 b 331 593 326 526 329 560 l 231 588 b 222 222 226 458 222 319 l 215 222 b 206 586 214 317 210 460 l 60 579 l 101 46 b 151 0 104 19 125 0 l 235 0 b 285 46 261 0 282 19 z m 288 1253 b 304 1244 292 1247 297 1244 b 319 1251 310 1244 315 1247 l 468 1400 b 475 1415 472 1404 475 1410 b 471 1428 475 1419 474 1424 l 432 1483 b 414 1493 428 1490 421 1493 b 396 1485 407 1493 400 1490 l 263 1310 b 258 1297 260 1306 258 1301 b 264 1282 258 1292 260 1286 l 288 1253 z "},"Ŵ":{"ha":689,"x_min":0,"x_max":0,"o":"m 636 858 l 661 1156 b 611 1206 661 1183 639 1206 l 590 1206 b 540 1160 564 1206 542 1186 l 515 824 z m 342 774 b 351 904 344 818 347 861 l 358 904 b 361 779 358 863 360 821 l 463 808 l 439 1158 b 389 1206 438 1185 415 1206 l 319 1206 b 269 1160 293 1206 272 1186 l 236 744 z m 200 733 b 197 775 199 749 197 761 l 169 1160 b 119 1206 168 1186 146 1206 l 68 1206 b 18 1151 40 1206 18 1183 l 53 692 z m 656 625 l 675 854 l 553 818 l 544 699 b 539 618 542 678 540 650 z m 400 775 b 408 613 401 721 406 667 l 511 617 b 507 733 510 660 510 699 l 501 804 z m 369 610 b 379 763 374 660 376 711 l 379 769 l 275 739 l 269 606 z m 243 604 b 238 728 242 649 240 690 l 92 686 l 99 596 z m 369 594 b 400 47 372 539 374 482 b 450 0 401 21 424 0 l 519 0 b 569 46 546 0 567 19 l 617 607 l 500 601 b 490 222 494 483 493 314 l 483 222 b 474 600 481 319 478 469 z m 324 493 b 331 593 326 526 329 560 l 231 588 b 222 222 226 458 222 319 l 215 222 b 206 586 214 317 210 460 l 60 579 l 101 46 b 151 0 104 19 125 0 l 235 0 b 285 46 261 0 282 19 z m 353 1440 b 338 1446 349 1443 343 1446 b 324 1440 332 1446 328 1443 l 193 1328 b 185 1311 188 1324 185 1318 b 190 1297 185 1306 186 1301 l 215 1267 b 232 1258 219 1261 225 1258 b 246 1263 236 1258 242 1260 l 339 1332 l 432 1263 b 444 1258 436 1260 440 1258 b 461 1265 450 1258 457 1261 l 488 1297 b 493 1311 492 1301 493 1306 b 485 1328 493 1318 490 1324 z "},"Ẅ":{"ha":689,"x_min":0,"x_max":0,"o":"m 636 858 l 661 1156 b 611 1206 661 1183 639 1206 l 590 1206 b 540 1160 564 1206 542 1186 l 515 824 z m 342 774 b 351 904 344 818 347 861 l 358 904 b 361 779 358 863 360 821 l 463 808 l 439 1158 b 389 1206 438 1185 415 1206 l 319 1206 b 269 1160 293 1206 272 1186 l 236 744 z m 200 733 b 197 775 199 749 197 761 l 169 1160 b 119 1206 168 1186 146 1206 l 68 1206 b 18 1151 40 1206 18 1183 l 53 692 z m 656 625 l 675 854 l 553 818 l 544 699 b 539 618 542 678 540 650 z m 400 775 b 408 613 401 721 406 667 l 511 617 b 507 733 510 660 510 699 l 501 804 z m 369 610 b 379 763 374 660 376 711 l 379 769 l 275 739 l 269 606 z m 243 604 b 238 728 242 649 240 690 l 92 686 l 99 596 z m 369 594 b 400 47 372 539 374 482 b 450 0 401 21 424 0 l 519 0 b 569 46 546 0 567 19 l 617 607 l 500 601 b 490 222 494 483 493 314 l 483 222 b 474 600 481 319 478 469 z m 324 493 b 331 593 326 526 329 560 l 231 588 b 222 222 226 458 222 319 l 215 222 b 206 586 214 317 210 460 l 60 579 l 101 46 b 151 0 104 19 125 0 l 235 0 b 285 46 261 0 282 19 z m 151 1338 b 236 1254 151 1292 190 1254 b 321 1338 283 1254 321 1292 b 236 1424 321 1385 283 1424 b 151 1338 190 1424 151 1385 z m 358 1338 b 443 1254 358 1292 397 1254 b 528 1338 490 1254 528 1292 b 443 1424 528 1385 490 1424 b 358 1338 397 1424 358 1385 z "},"Ẁ":{"ha":689,"x_min":0,"x_max":0,"o":"m 636 858 l 661 1156 b 611 1206 661 1183 639 1206 l 590 1206 b 540 1160 564 1206 542 1186 l 515 824 z m 342 774 b 351 904 344 818 347 861 l 358 904 b 361 779 358 863 360 821 l 463 808 l 439 1158 b 389 1206 438 1185 415 1206 l 319 1206 b 269 1160 293 1206 272 1186 l 236 744 z m 200 733 b 197 775 199 749 197 761 l 169 1160 b 119 1206 168 1186 146 1206 l 68 1206 b 18 1151 40 1206 18 1183 l 53 692 z m 656 625 l 675 854 l 553 818 l 544 699 b 539 618 542 678 540 650 z m 400 775 b 408 613 401 721 406 667 l 511 617 b 507 733 510 660 510 699 l 501 804 z m 369 610 b 379 763 374 660 376 711 l 379 769 l 275 739 l 269 606 z m 243 604 b 238 728 242 649 240 690 l 92 686 l 99 596 z m 369 594 b 400 47 372 539 374 482 b 450 0 401 21 424 0 l 519 0 b 569 46 546 0 567 19 l 617 607 l 500 601 b 490 222 494 483 493 314 l 483 222 b 474 600 481 319 478 469 z m 324 493 b 331 593 326 526 329 560 l 231 588 b 222 222 226 458 222 319 l 215 222 b 206 586 214 317 210 460 l 60 579 l 101 46 b 151 0 104 19 125 0 l 235 0 b 285 46 261 0 282 19 z m 392 1253 l 415 1282 b 421 1297 419 1286 421 1292 b 417 1310 421 1301 419 1306 l 283 1485 b 265 1493 279 1490 272 1493 b 247 1483 258 1493 251 1490 l 208 1428 b 204 1415 206 1424 204 1419 b 211 1400 204 1410 207 1404 l 360 1251 b 375 1244 364 1247 369 1244 b 392 1253 382 1244 388 1247 z "},"Ŷ":{"ha":481,"x_min":0,"x_max":0,"o":"m 408 938 l 453 1146 b 454 1154 453 1149 454 1151 b 403 1206 454 1181 432 1206 l 365 1206 b 317 1165 342 1206 321 1189 l 271 939 b 260 881 267 919 263 900 z m 88 814 l 224 865 b 210 947 219 888 217 913 l 168 1165 b 119 1206 164 1189 143 1206 l 67 1206 b 17 1157 39 1206 17 1183 b 18 1146 17 1153 17 1150 z m 126 801 l 158 651 l 383 622 l 447 925 l 300 868 b 285 682 292 811 286 750 l 279 682 b 263 854 271 768 269 803 z m 119 640 l 161 443 l 161 50 b 211 0 161 22 183 0 l 261 0 b 311 50 289 0 311 22 l 311 451 l 344 611 z m 249 1440 b 233 1446 244 1443 239 1446 b 219 1440 228 1446 224 1443 l 89 1328 b 81 1311 83 1324 81 1318 b 86 1297 81 1306 82 1301 l 111 1267 b 128 1258 115 1261 121 1258 b 142 1263 132 1258 138 1260 l 235 1332 l 328 1263 b 340 1258 332 1260 336 1258 b 357 1265 346 1258 353 1261 l 383 1297 b 389 1311 388 1301 389 1306 b 381 1328 389 1318 386 1324 z "},"Ỳ":{"ha":481,"x_min":0,"x_max":0,"o":"m 408 938 l 453 1146 b 454 1154 453 1149 454 1151 b 403 1206 454 1181 432 1206 l 365 1206 b 317 1165 342 1206 321 1189 l 271 939 b 260 881 267 919 263 900 z m 88 814 l 224 865 b 210 947 219 888 217 913 l 168 1165 b 119 1206 164 1189 143 1206 l 67 1206 b 17 1157 39 1206 17 1183 b 18 1146 17 1153 17 1150 z m 126 801 l 158 651 l 383 622 l 447 925 l 300 868 b 285 682 292 811 286 750 l 279 682 b 263 854 271 768 269 803 z m 119 640 l 161 443 l 161 50 b 211 0 161 22 183 0 l 261 0 b 311 50 289 0 311 22 l 311 451 l 344 611 z m 260 1253 l 283 1282 b 289 1297 288 1286 289 1292 b 285 1310 289 1301 288 1306 l 151 1485 b 133 1493 147 1490 140 1493 b 115 1483 126 1493 119 1490 l 76 1428 b 72 1415 74 1424 72 1419 b 79 1400 72 1410 75 1404 l 228 1251 b 243 1244 232 1247 238 1244 b 260 1253 250 1244 256 1247 z "},"Ź":{"ha":375,"x_min":0,"x_max":0,"o":"m 19 1101 b 69 1051 19 1074 42 1051 l 190 1051 l 132 751 l 300 832 l 349 1076 l 349 1156 b 299 1206 349 1183 326 1206 l 69 1206 b 19 1156 42 1206 19 1183 z m 171 740 l 131 528 l 275 492 l 339 821 z m 90 517 l 15 124 l 15 50 b 65 0 15 22 38 0 l 300 0 b 350 50 328 0 350 22 l 350 106 b 300 156 350 133 328 156 l 172 156 l 235 479 z m 158 1253 b 175 1244 163 1247 168 1244 b 190 1251 181 1244 186 1247 l 339 1400 b 346 1415 343 1404 346 1410 b 342 1428 346 1419 344 1424 l 303 1483 b 285 1493 299 1490 292 1493 b 267 1485 278 1493 271 1490 l 133 1310 b 129 1297 131 1306 129 1301 b 135 1282 129 1292 131 1286 l 158 1253 z "},"Ż":{"ha":375,"x_min":0,"x_max":0,"o":"m 19 1101 b 69 1051 19 1074 42 1051 l 190 1051 l 132 751 l 300 832 l 349 1076 l 349 1156 b 299 1206 349 1183 326 1206 l 69 1206 b 19 1156 42 1206 19 1183 z m 171 740 l 131 528 l 275 492 l 339 821 z m 90 517 l 15 124 l 15 50 b 65 0 15 22 38 0 l 300 0 b 350 50 328 0 350 22 l 350 106 b 300 156 350 133 328 156 l 172 156 l 235 479 z m 97 1338 b 182 1254 97 1292 136 1254 b 267 1338 229 1254 267 1292 b 182 1424 267 1385 229 1424 b 97 1338 136 1424 97 1385 z "},"Ľ":{"ha":403,"x_min":0,"x_max":0,"o":"m 193 863 l 193 1156 b 143 1206 193 1183 171 1206 l 93 1206 b 43 1156 65 1206 43 1183 l 43 835 z m 232 486 l 232 851 l 82 824 l 82 543 z m 385 106 b 335 156 385 133 363 156 l 193 156 l 193 474 l 43 532 l 43 50 b 93 0 43 22 65 0 l 335 0 b 385 50 363 0 385 22 z m 310 858 l 385 1017 l 385 1163 b 363 1185 385 1175 375 1185 l 265 1185 b 243 1163 253 1185 243 1175 l 243 1021 b 265 999 243 1008 253 999 l 301 999 l 251 876 b 250 868 250 874 250 871 b 272 846 250 856 258 846 l 290 846 b 310 858 299 846 307 850 z "},"ā":{"ha":403,"x_min":0,"x_max":0,"o":"m 364 438 l 364 825 b 196 985 364 922 299 985 b 26 825 92 985 26 922 l 26 725 b 76 675 26 697 49 675 l 114 675 b 164 725 142 675 164 697 l 164 831 b 199 868 164 831 163 868 l 210 868 b 229 846 221 868 229 857 l 229 707 b 214 671 229 693 224 681 l 75 535 b 26 419 43 503 26 465 l 26 311 l 163 363 l 163 438 b 176 472 163 451 167 463 l 228 526 l 228 386 z m 182 214 l 182 350 l 46 299 l 46 221 z m 383 204 l 383 425 l 247 374 l 247 210 z m 228 164 b 196 125 228 142 214 125 b 163 157 176 125 163 136 l 163 201 l 26 208 l 26 99 b 119 -11 26 26 60 -11 b 222 65 175 -11 194 10 l 228 65 l 235 19 b 257 0 236 8 246 0 l 314 0 b 364 50 342 0 364 22 l 364 192 l 228 199 z m 35 1164 l 35 1101 b 57 1079 35 1089 44 1079 l 338 1079 b 360 1101 350 1079 360 1089 l 360 1164 b 338 1186 360 1176 350 1186 l 57 1186 b 35 1164 44 1186 35 1176 z "},"ą":{"ha":403,"x_min":0,"x_max":0,"o":"m 364 438 l 364 825 b 196 985 364 922 299 985 b 26 825 92 985 26 922 l 26 725 b 76 675 26 697 49 675 l 114 675 b 164 725 142 675 164 697 l 164 831 b 199 868 164 831 163 868 l 210 868 b 229 846 221 868 229 857 l 229 707 b 214 671 229 693 224 681 l 75 535 b 26 419 43 503 26 465 l 26 311 l 163 363 l 163 438 b 176 472 163 451 167 463 l 228 526 l 228 386 z m 182 214 l 182 350 l 46 299 l 46 221 z m 383 204 l 383 425 l 247 374 l 247 210 z m 228 164 b 196 125 228 142 214 125 b 163 157 176 125 163 136 l 163 201 l 26 208 l 26 99 b 119 -11 26 26 60 -11 b 222 65 175 -11 194 10 l 228 65 l 235 19 b 257 0 236 8 246 0 l 314 0 b 364 50 342 0 364 22 l 364 192 l 228 199 z m 368 -196 b 311 -212 349 -207 329 -212 b 265 -149 281 -212 265 -194 b 325 1 265 -122 281 -82 l 251 1 b 161 -174 192 -75 161 -128 b 274 -299 161 -253 206 -299 b 408 -247 328 -299 368 -278 b 415 -231 413 -243 415 -237 l 407 -204 b 388 -190 403 -194 396 -190 b 368 -196 381 -190 374 -193 z "},"ǽ":{"ha":604,"x_min":0,"x_max":0,"o":"m 203 313 l 203 407 b 268 503 203 457 231 476 l 268 299 l 404 268 l 404 465 l 556 465 b 606 515 583 465 606 488 l 606 701 l 469 671 l 469 576 l 404 576 l 404 656 l 215 613 b 67 428 157 554 67 558 l 67 343 z m 431 242 l 431 163 b 399 117 431 119 418 117 b 365 153 379 117 365 118 l 365 256 l 229 286 l 229 175 b 197 136 229 153 215 139 b 164 168 176 136 168 149 l 164 300 l 28 331 l 28 110 b 121 0 28 38 61 0 b 226 76 176 0 199 21 l 236 19 b 257 0 238 8 246 0 l 399 0 b 567 160 501 0 567 61 l 567 211 z m 469 254 l 606 224 l 606 304 b 556 354 606 332 583 354 l 519 354 b 469 304 492 354 469 332 z m 365 668 l 365 821 b 399 868 365 864 378 868 b 431 821 418 868 431 864 l 431 683 l 567 714 l 567 825 b 399 985 567 922 501 985 b 297 958 358 985 324 975 b 197 985 269 975 236 985 b 28 825 93 985 28 922 l 28 725 b 78 675 28 697 50 675 l 115 675 b 165 725 143 675 165 697 l 165 790 b 199 868 165 825 168 868 b 225 806 222 868 225 835 l 225 772 b 179 626 225 696 206 654 z m 246 1019 b 263 1011 250 1014 256 1011 b 278 1018 268 1011 274 1014 l 426 1167 b 433 1182 431 1171 433 1176 b 429 1194 433 1186 432 1190 l 390 1250 b 372 1260 386 1257 379 1260 b 354 1251 365 1260 358 1257 l 221 1076 b 217 1064 218 1072 217 1068 b 222 1049 217 1058 218 1053 l 246 1019 z "},"ć":{"ha":403,"x_min":0,"x_max":0,"o":"m 164 583 l 164 810 b 197 868 164 860 179 868 b 229 810 214 868 229 860 l 229 725 b 279 675 229 697 251 675 l 315 675 b 365 725 343 675 365 697 l 365 825 b 197 985 365 922 300 985 b 28 825 93 985 28 922 l 28 536 z m 183 379 l 183 571 l 47 525 l 47 414 z m 28 149 b 197 -11 28 50 93 -11 b 365 149 300 -11 365 50 l 365 283 b 315 333 365 311 343 333 l 279 333 b 229 283 251 333 229 311 l 229 151 b 197 106 229 108 217 106 b 164 151 176 106 164 108 l 164 367 l 28 401 z m 172 1019 b 189 1011 176 1014 182 1011 b 204 1018 194 1011 200 1014 l 353 1167 b 360 1182 357 1171 360 1176 b 356 1194 360 1186 358 1190 l 317 1250 b 299 1260 313 1257 306 1260 b 281 1251 292 1260 285 1257 l 147 1076 b 143 1064 144 1072 143 1068 b 149 1049 143 1058 144 1053 l 172 1019 z "},"č":{"ha":403,"x_min":0,"x_max":0,"o":"m 164 583 l 164 810 b 197 868 164 860 179 868 b 229 810 214 868 229 860 l 229 725 b 279 675 229 697 251 675 l 315 675 b 365 725 343 675 365 697 l 365 825 b 197 985 365 922 300 985 b 28 825 93 985 28 922 l 28 536 z m 183 379 l 183 571 l 47 525 l 47 414 z m 28 149 b 197 -11 28 50 93 -11 b 365 149 300 -11 365 50 l 365 283 b 315 333 365 311 343 333 l 279 333 b 229 283 251 333 229 311 l 229 151 b 197 106 229 108 217 106 b 164 151 176 106 164 108 l 164 367 l 28 401 z m 210 1017 l 342 1129 b 350 1146 347 1133 350 1139 b 344 1160 350 1151 349 1156 l 318 1192 b 301 1199 314 1196 307 1199 b 289 1194 297 1199 293 1197 l 196 1125 l 103 1194 b 89 1199 99 1197 93 1199 b 72 1190 82 1199 76 1196 l 47 1160 b 42 1146 43 1156 42 1151 b 50 1129 42 1139 44 1133 l 181 1017 b 194 1011 185 1013 189 1011 b 210 1017 200 1011 206 1013 z "},"ĉ":{"ha":403,"x_min":0,"x_max":0,"o":"m 164 583 l 164 810 b 197 868 164 860 179 868 b 229 810 214 868 229 860 l 229 725 b 279 675 229 697 251 675 l 315 675 b 365 725 343 675 365 697 l 365 825 b 197 985 365 922 300 985 b 28 825 93 985 28 922 l 28 536 z m 183 379 l 183 571 l 47 525 l 47 414 z m 28 149 b 197 -11 28 50 93 -11 b 365 149 300 -11 365 50 l 365 283 b 315 333 365 311 343 333 l 279 333 b 229 283 251 333 229 311 l 229 151 b 197 106 229 108 217 106 b 164 151 176 106 164 108 l 164 367 l 28 401 z m 210 1207 b 194 1213 206 1210 200 1213 b 181 1207 189 1213 185 1210 l 50 1094 b 42 1078 44 1090 42 1085 b 47 1064 42 1072 43 1068 l 72 1033 b 89 1025 76 1028 82 1025 b 103 1029 93 1025 99 1026 l 196 1099 l 289 1029 b 301 1025 293 1026 297 1025 b 318 1032 307 1025 314 1028 l 344 1064 b 350 1078 349 1068 350 1072 b 342 1094 350 1085 347 1090 z "},"ċ":{"ha":403,"x_min":0,"x_max":0,"o":"m 164 583 l 164 810 b 197 868 164 860 179 868 b 229 810 214 868 229 860 l 229 725 b 279 675 229 697 251 675 l 315 675 b 365 725 343 675 365 697 l 365 825 b 197 985 365 922 300 985 b 28 825 93 985 28 922 l 28 536 z m 183 379 l 183 571 l 47 525 l 47 414 z m 28 149 b 197 -11 28 50 93 -11 b 365 149 300 -11 365 50 l 365 283 b 315 333 365 311 343 333 l 279 333 b 229 283 251 333 229 311 l 229 151 b 197 106 229 108 217 106 b 164 151 176 106 164 108 l 164 367 l 28 401 z m 111 1104 b 196 1021 111 1058 150 1021 b 281 1104 243 1021 281 1058 b 196 1190 281 1151 243 1190 b 111 1104 150 1190 111 1151 z "},"ď":{"ha":603,"x_min":0,"x_max":0,"o":"m 279 1206 b 229 1156 251 1206 229 1183 l 229 913 l 224 913 b 129 985 204 950 172 985 b 28 872 76 985 28 951 l 28 582 l 164 610 l 164 789 b 197 847 164 839 179 847 b 229 789 214 847 229 839 l 229 624 l 365 653 l 365 1156 b 315 1206 365 1183 343 1206 z m 203 357 l 203 599 l 67 569 l 67 382 z m 268 613 l 268 344 l 404 319 l 404 640 z m 229 332 l 229 183 b 197 125 229 133 214 125 b 164 183 179 125 164 133 l 164 344 l 28 371 l 28 100 b 129 -11 28 22 76 -11 b 226 57 169 -11 206 22 l 232 57 l 239 18 b 261 0 242 7 250 0 l 315 0 b 365 50 343 0 365 22 l 365 307 z m 568 1019 l 568 1164 b 546 1186 568 1176 558 1186 l 449 1186 b 426 1164 436 1186 426 1176 l 426 1024 b 449 1001 426 1011 436 1001 l 485 1001 l 433 868 b 432 860 432 865 432 863 b 454 838 432 847 442 838 l 474 838 b 493 850 482 838 490 843 z "},"ĕ":{"ha":403,"x_min":0,"x_max":0,"o":"m 164 728 l 164 821 b 197 868 164 864 176 868 b 229 821 217 868 229 864 l 229 747 l 365 789 l 365 825 b 197 985 365 922 300 985 b 28 825 93 985 28 922 l 28 686 z m 388 586 l 388 776 l 251 735 l 251 593 z m 186 597 l 186 715 l 50 674 l 50 604 z m 229 151 b 197 106 229 108 217 106 b 164 151 176 106 164 108 l 164 456 l 315 456 b 365 506 343 456 365 478 l 365 574 l 229 581 l 229 567 l 164 567 l 164 585 l 28 592 l 28 149 b 197 -11 28 50 93 -11 b 365 149 300 -11 365 50 l 365 283 b 315 333 365 311 343 333 l 279 333 b 229 283 251 333 229 311 z m 353 1215 l 344 1219 b 335 1222 342 1221 338 1222 b 313 1208 326 1222 318 1217 b 197 1140 279 1163 243 1140 b 79 1208 151 1140 113 1163 b 57 1222 74 1217 65 1222 b 47 1219 54 1222 50 1221 l 40 1215 b 28 1196 32 1211 28 1204 b 31 1185 28 1193 29 1189 b 197 1044 65 1093 122 1044 b 361 1182 268 1044 322 1089 b 364 1196 363 1186 364 1192 b 353 1215 364 1204 361 1211 z "},"ě":{"ha":403,"x_min":0,"x_max":0,"o":"m 164 728 l 164 821 b 197 868 164 864 176 868 b 229 821 217 868 229 864 l 229 747 l 365 789 l 365 825 b 197 985 365 922 300 985 b 28 825 93 985 28 922 l 28 686 z m 388 586 l 388 776 l 251 735 l 251 593 z m 186 597 l 186 715 l 50 674 l 50 604 z m 229 151 b 197 106 229 108 217 106 b 164 151 176 106 164 108 l 164 456 l 315 456 b 365 506 343 456 365 478 l 365 574 l 229 581 l 229 567 l 164 567 l 164 585 l 28 592 l 28 149 b 197 -11 28 50 93 -11 b 365 149 300 -11 365 50 l 365 283 b 315 333 365 311 343 333 l 279 333 b 229 283 251 333 229 311 z m 210 1017 l 342 1129 b 350 1146 347 1133 350 1139 b 344 1160 350 1151 349 1156 l 318 1192 b 301 1199 314 1196 307 1199 b 289 1194 297 1199 293 1197 l 196 1125 l 103 1194 b 89 1199 99 1197 93 1199 b 72 1190 82 1199 76 1196 l 47 1160 b 42 1146 43 1156 42 1151 b 50 1129 42 1139 44 1133 l 181 1017 b 194 1011 185 1013 189 1011 b 210 1017 200 1011 206 1013 z "},"ė":{"ha":403,"x_min":0,"x_max":0,"o":"m 164 728 l 164 821 b 197 868 164 864 176 868 b 229 821 217 868 229 864 l 229 747 l 365 789 l 365 825 b 197 985 365 922 300 985 b 28 825 93 985 28 922 l 28 686 z m 388 586 l 388 776 l 251 735 l 251 593 z m 186 597 l 186 715 l 50 674 l 50 604 z m 229 151 b 197 106 229 108 217 106 b 164 151 176 106 164 108 l 164 456 l 315 456 b 365 506 343 456 365 478 l 365 574 l 229 581 l 229 567 l 164 567 l 164 585 l 28 592 l 28 149 b 197 -11 28 50 93 -11 b 365 149 300 -11 365 50 l 365 283 b 315 333 365 311 343 333 l 279 333 b 229 283 251 333 229 311 z m 111 1104 b 196 1021 111 1058 150 1021 b 281 1104 243 1021 281 1058 b 196 1190 281 1151 243 1190 b 111 1104 150 1190 111 1151 z "},"ē":{"ha":403,"x_min":0,"x_max":0,"o":"m 164 728 l 164 821 b 197 868 164 864 176 868 b 229 821 217 868 229 864 l 229 747 l 365 789 l 365 825 b 197 985 365 922 300 985 b 28 825 93 985 28 922 l 28 686 z m 388 586 l 388 776 l 251 735 l 251 593 z m 186 597 l 186 715 l 50 674 l 50 604 z m 229 151 b 197 106 229 108 217 106 b 164 151 176 106 164 108 l 164 456 l 315 456 b 365 506 343 456 365 478 l 365 574 l 229 581 l 229 567 l 164 567 l 164 585 l 28 592 l 28 149 b 197 -11 28 50 93 -11 b 365 149 300 -11 365 50 l 365 283 b 315 333 365 311 343 333 l 279 333 b 229 283 251 333 229 311 z m 35 1164 l 35 1101 b 57 1079 35 1089 44 1079 l 338 1079 b 360 1101 350 1079 360 1089 l 360 1164 b 338 1186 360 1176 350 1186 l 57 1186 b 35 1164 44 1186 35 1176 z "},"ę":{"ha":403,"x_min":0,"x_max":0,"o":"m 164 728 l 164 821 b 197 868 164 864 176 868 b 229 821 217 868 229 864 l 229 747 l 365 789 l 365 825 b 197 985 365 922 300 985 b 28 825 93 985 28 922 l 28 686 z m 388 586 l 388 776 l 251 735 l 251 593 z m 186 597 l 186 715 l 50 674 l 50 604 z m 229 151 b 197 106 229 108 217 106 b 164 151 176 106 164 108 l 164 456 l 315 456 b 365 506 343 456 365 478 l 365 574 l 229 581 l 229 567 l 164 567 l 164 585 l 28 592 l 28 149 b 197 -11 28 50 93 -11 b 365 149 300 -11 365 50 l 365 283 b 315 333 365 311 343 333 l 279 333 b 229 283 251 333 229 311 z m 313 -197 b 256 -214 293 -208 274 -214 b 210 -150 225 -214 210 -196 b 269 0 210 -124 225 -83 l 196 0 b 106 -175 136 -76 106 -129 b 218 -300 106 -254 150 -300 b 353 -249 272 -300 313 -279 b 360 -232 357 -244 360 -239 l 351 -206 b 332 -192 347 -196 340 -192 b 313 -197 325 -192 318 -194 z "},"ğ":{"ha":403,"x_min":0,"x_max":0,"o":"m 164 664 l 164 789 b 197 847 164 839 179 847 b 229 789 214 847 229 839 l 229 685 l 365 726 l 365 922 b 315 972 365 950 343 972 l 260 972 b 239 956 250 972 242 965 l 229 917 b 129 985 200 954 168 985 b 28 858 64 985 28 936 l 28 622 z m 385 422 l 385 714 l 249 672 l 249 440 z m 183 449 l 183 651 l 47 610 l 47 465 z m 83 -189 b 197 -214 106 -199 143 -214 b 365 -53 300 -214 365 -151 l 365 410 l 229 428 l 229 261 b 197 203 229 211 214 203 b 164 261 179 203 164 211 l 164 436 l 28 454 l 28 193 b 129 67 28 115 64 67 b 221 132 176 67 201 89 l 226 132 l 226 -53 b 153 -97 226 -97 171 -97 l 79 -157 b 74 -172 74 -162 74 -167 b 83 -189 74 -179 76 -186 z m 353 1215 l 344 1219 b 335 1222 342 1221 338 1222 b 313 1208 326 1222 318 1217 b 197 1140 279 1163 243 1140 b 79 1208 151 1140 113 1163 b 57 1222 74 1217 65 1222 b 47 1219 54 1222 50 1221 l 40 1215 b 28 1196 32 1211 28 1204 b 31 1185 28 1193 29 1189 b 197 1044 65 1093 122 1044 b 361 1182 268 1044 322 1089 b 364 1196 363 1186 364 1192 b 353 1215 364 1204 361 1211 z "},"ĝ":{"ha":403,"x_min":0,"x_max":0,"o":"m 164 664 l 164 789 b 197 847 164 839 179 847 b 229 789 214 847 229 839 l 229 685 l 365 726 l 365 922 b 315 972 365 950 343 972 l 260 972 b 239 956 250 972 242 965 l 229 917 b 129 985 200 954 168 985 b 28 858 64 985 28 936 l 28 622 z m 385 422 l 385 714 l 249 672 l 249 440 z m 183 449 l 183 651 l 47 610 l 47 465 z m 83 -189 b 197 -214 106 -199 143 -214 b 365 -53 300 -214 365 -151 l 365 410 l 229 428 l 229 261 b 197 203 229 211 214 203 b 164 261 179 203 164 211 l 164 436 l 28 454 l 28 193 b 129 67 28 115 64 67 b 221 132 176 67 201 89 l 226 132 l 226 -53 b 153 -97 226 -97 171 -97 l 79 -157 b 74 -172 74 -162 74 -167 b 83 -189 74 -179 76 -186 z m 210 1207 b 194 1213 206 1210 200 1213 b 181 1207 189 1213 185 1210 l 50 1094 b 42 1078 44 1090 42 1085 b 47 1064 42 1072 43 1068 l 72 1033 b 89 1025 76 1028 82 1025 b 103 1029 93 1025 99 1026 l 196 1099 l 289 1029 b 301 1025 293 1026 297 1025 b 318 1032 307 1025 314 1028 l 344 1064 b 350 1078 349 1068 350 1072 b 342 1094 350 1085 347 1090 z "},"ģ":{"ha":403,"x_min":0,"x_max":0,"o":"m 164 664 l 164 789 b 197 847 164 839 179 847 b 229 789 214 847 229 839 l 229 685 l 365 726 l 365 922 b 315 972 365 950 343 972 l 260 972 b 239 956 250 972 242 965 l 229 917 b 129 985 200 954 168 985 b 28 858 64 985 28 936 l 28 622 z m 385 422 l 385 714 l 249 672 l 249 440 z m 183 449 l 183 651 l 47 610 l 47 465 z m 83 -189 b 197 -214 106 -199 143 -214 b 365 -53 300 -214 365 -151 l 365 410 l 229 428 l 229 261 b 197 203 229 211 214 203 b 164 261 179 203 164 211 l 164 436 l 28 454 l 28 193 b 129 67 28 115 64 67 b 221 132 176 67 201 89 l 226 132 l 226 -53 b 153 -97 226 -97 171 -97 l 79 -157 b 74 -172 74 -162 74 -167 b 83 -189 74 -179 76 -186 z m 124 1238 l 124 1093 b 146 1071 124 1081 133 1071 l 243 1071 b 265 1093 256 1071 265 1081 l 265 1233 b 243 1256 265 1246 256 1256 l 207 1256 l 258 1389 b 260 1397 260 1392 260 1394 b 238 1419 260 1410 250 1419 l 218 1419 b 199 1407 210 1419 201 1414 z "},"ġ":{"ha":403,"x_min":0,"x_max":0,"o":"m 164 664 l 164 789 b 197 847 164 839 179 847 b 229 789 214 847 229 839 l 229 685 l 365 726 l 365 922 b 315 972 365 950 343 972 l 260 972 b 239 956 250 972 242 965 l 229 917 b 129 985 200 954 168 985 b 28 858 64 985 28 936 l 28 622 z m 385 422 l 385 714 l 249 672 l 249 440 z m 183 449 l 183 651 l 47 610 l 47 465 z m 83 -189 b 197 -214 106 -199 143 -214 b 365 -53 300 -214 365 -151 l 365 410 l 229 428 l 229 261 b 197 203 229 211 214 203 b 164 261 179 203 164 211 l 164 436 l 28 454 l 28 193 b 129 67 28 115 64 67 b 221 132 176 67 201 89 l 226 132 l 226 -53 b 153 -97 226 -97 171 -97 l 79 -157 b 74 -172 74 -162 74 -167 b 83 -189 74 -179 76 -186 z m 111 1104 b 196 1021 111 1058 150 1021 b 281 1104 243 1021 281 1058 b 196 1190 281 1151 243 1190 b 111 1104 150 1190 111 1151 z "},"ĥ":{"ha":403,"x_min":0,"x_max":0,"o":"m 78 1206 b 28 1156 50 1206 28 1183 l 28 588 l 164 615 l 164 789 b 200 847 164 817 165 847 b 229 789 228 847 229 817 l 229 628 l 365 656 l 365 813 b 261 985 365 913 364 985 b 169 918 224 985 188 963 l 164 918 l 164 1156 b 114 1206 164 1183 142 1206 z m 47 576 l 47 428 l 183 374 l 183 603 z m 249 615 l 249 347 l 385 293 l 385 643 z m 28 415 l 28 50 b 78 0 28 22 50 0 l 114 0 b 164 50 142 0 164 22 l 164 361 z m 229 335 l 229 50 b 279 0 229 22 251 0 l 315 0 b 365 50 343 0 365 22 l 365 281 z m 106 1432 b 90 1438 101 1435 96 1438 b 76 1432 85 1438 81 1435 l -54 1319 b -62 1303 -60 1315 -62 1310 b -57 1289 -62 1297 -61 1293 l -32 1258 b -15 1250 -28 1253 -22 1250 b -1 1254 -11 1250 -6 1251 l 92 1324 l 185 1254 b 197 1250 189 1251 193 1250 b 214 1257 203 1250 210 1253 l 240 1289 b 246 1303 244 1293 246 1297 b 238 1319 246 1310 243 1315 z "},"ĭ":{"ha":218,"x_min":0,"x_max":0,"o":"m 172 257 l 36 292 l 36 50 b 86 0 36 22 58 0 l 122 0 b 172 50 150 0 172 22 z m 211 269 l 211 775 l 75 708 l 75 304 z m 172 788 l 172 922 b 122 972 172 950 150 972 l 86 972 b 36 922 58 972 36 950 l 36 721 z m 261 1215 l 253 1219 b 243 1222 250 1221 246 1222 b 221 1208 235 1222 226 1217 b 106 1140 188 1163 151 1140 b -12 1208 60 1140 21 1163 b -35 1222 -18 1217 -26 1222 b -44 1219 -37 1222 -42 1221 l -51 1215 b -64 1196 -60 1211 -64 1204 b -61 1185 -64 1193 -62 1189 b 106 1044 -26 1093 31 1044 b 269 1182 176 1044 231 1089 b 272 1196 271 1186 272 1192 b 261 1215 272 1204 269 1211 z "},"ī":{"ha":218,"x_min":0,"x_max":0,"o":"m 172 257 l 36 292 l 36 50 b 86 0 36 22 58 0 l 122 0 b 172 50 150 0 172 22 z m 211 269 l 211 775 l 75 708 l 75 304 z m 172 788 l 172 922 b 122 972 172 950 150 972 l 86 972 b 36 922 58 972 36 950 l 36 721 z m -57 1164 l -57 1101 b -35 1079 -57 1089 -47 1079 l 246 1079 b 268 1101 258 1079 268 1089 l 268 1164 b 246 1186 268 1176 258 1186 l -35 1186 b -57 1164 -47 1186 -57 1176 z "},"į":{"ha":218,"x_min":0,"x_max":0,"o":"m 18 1124 b 103 1040 18 1078 57 1040 b 188 1124 150 1040 188 1078 b 103 1210 188 1171 150 1210 b 18 1124 57 1210 18 1171 z m 172 701 l 172 922 b 122 972 172 950 150 972 l 86 972 b 36 922 58 972 36 950 l 36 647 z m 192 385 l 192 689 l 56 635 l 56 435 z m 172 374 l 36 422 l 36 50 b 86 0 36 22 58 0 l 122 0 b 172 50 150 0 172 22 z m 183 -197 b 126 -214 164 -208 144 -214 b 81 -150 96 -214 81 -196 b 140 0 81 -124 96 -83 l 67 0 b -24 -175 7 -76 -24 -129 b 89 -300 -24 -254 21 -300 b 224 -249 143 -300 183 -279 b 231 -232 228 -244 231 -239 l 222 -206 b 203 -192 218 -196 211 -192 b 183 -197 196 -192 189 -194 z "},"ĩ":{"ha":218,"x_min":0,"x_max":0,"o":"m 172 257 l 36 292 l 36 50 b 86 0 36 22 58 0 l 122 0 b 172 50 150 0 172 22 z m 211 269 l 211 775 l 75 708 l 75 304 z m 172 788 l 172 922 b 122 972 172 950 150 972 l 86 972 b 36 922 58 972 36 950 l 36 721 z m 254 1222 l 222 1222 b 197 1200 208 1222 201 1213 b 165 1175 193 1186 178 1175 b 39 1222 132 1175 86 1222 b -67 1103 -21 1222 -58 1178 b -46 1074 -67 1086 -60 1074 l -12 1074 b 14 1097 1 1074 8 1085 b 42 1119 19 1111 31 1119 b 171 1072 78 1119 121 1072 b 274 1189 224 1072 261 1113 b 275 1201 274 1189 275 1197 b 254 1222 275 1215 268 1222 z "},"ĳ":{"ha":428,"x_min":0,"x_max":0,"o":"m 18 1124 b 103 1040 18 1078 57 1040 b 188 1124 150 1040 188 1078 b 103 1210 188 1171 150 1210 b 18 1124 57 1210 18 1171 z m 172 701 l 172 922 b 122 972 172 950 150 972 l 86 972 b 36 922 58 972 36 950 l 36 647 z m 192 385 l 192 689 l 56 635 l 56 435 z m 172 374 l 36 422 l 36 50 b 86 0 36 22 58 0 l 122 0 b 172 50 150 0 172 22 z m 226 1124 b 311 1040 226 1078 265 1040 b 396 1124 358 1040 396 1078 b 311 1210 396 1171 358 1210 b 226 1124 265 1210 226 1171 z m 382 613 l 382 922 b 332 972 382 950 360 972 l 296 972 b 246 922 268 972 246 950 l 246 569 z m 401 257 l 401 600 l 265 557 l 265 339 z m 265 -214 b 382 -15 375 -214 382 -147 l 382 244 l 246 326 l 246 -19 b 211 -83 246 -61 236 -78 b 186 -108 197 -87 186 -94 l 186 -164 b 236 -214 186 -192 208 -214 z "},"ĵ":{"ha":218,"x_min":0,"x_max":0,"o":"m 172 613 l 172 922 b 122 972 172 950 150 972 l 86 972 b 36 922 58 972 36 950 l 36 569 z m 192 257 l 192 600 l 56 557 l 56 339 z m 56 -214 b 172 -15 165 -214 172 -147 l 172 244 l 36 326 l 36 -19 b 1 -83 36 -61 26 -78 b -24 -108 -12 -87 -24 -94 l -24 -164 b 26 -214 -24 -192 -1 -214 z m 118 1207 b 103 1213 114 1210 108 1213 b 89 1207 97 1213 93 1210 l -42 1094 b -50 1078 -47 1090 -50 1085 b -44 1064 -50 1072 -49 1068 l -19 1033 b -3 1025 -15 1028 -10 1025 b 11 1029 1 1025 7 1026 l 104 1099 l 197 1029 b 210 1025 201 1026 206 1025 b 226 1032 215 1025 222 1028 l 253 1064 b 258 1078 257 1068 258 1072 b 250 1094 258 1085 256 1090 z "},"ķ":{"ha":403,"x_min":0,"x_max":0,"o":"m 349 789 l 371 914 b 372 922 371 917 372 919 b 322 972 372 949 350 972 l 289 972 b 240 931 265 972 244 956 l 207 736 z m 168 722 l 168 1156 b 118 1206 168 1183 146 1206 l 81 1206 b 31 1156 53 1206 31 1183 l 31 671 z m 188 458 l 188 511 l 193 511 l 201 457 l 338 446 l 324 533 l 367 776 l 226 724 l 193 525 l 188 525 l 188 710 l 50 658 l 50 468 z m 182 444 l 240 43 b 290 0 244 18 265 0 l 329 0 b 379 50 357 0 379 24 b 318 435 379 53 318 435 z m 168 446 l 31 457 l 31 50 b 81 0 31 22 53 0 l 118 0 b 168 50 146 0 168 22 z m 194 -362 l 269 -204 l 269 -58 b 247 -36 269 -46 260 -36 l 150 -36 b 128 -58 138 -36 128 -46 l 128 -200 b 150 -222 128 -212 138 -222 l 186 -222 l 136 -344 b 135 -353 135 -347 135 -350 b 157 -375 135 -365 143 -375 l 175 -375 b 194 -362 183 -375 192 -371 z "},"ĸ":{"ha":403,"x_min":0,"x_max":0,"o":"m 349 790 l 382 972 l 247 972 l 206 726 z m 168 710 l 168 972 l 31 972 l 31 647 z m 224 160 l 263 -97 l 403 -97 l 369 111 z m 211 190 l 211 511 l 263 172 l 408 124 l 343 533 l 388 778 l 243 713 l 207 525 l 207 696 l 69 635 l 69 238 z m 168 178 l 31 225 l 31 0 l 168 0 z "},"ĺ":{"ha":218,"x_min":0,"x_max":0,"o":"m 171 783 l 171 1156 b 121 1206 171 1183 149 1206 l 85 1206 b 35 1156 57 1206 35 1183 l 35 728 z m 190 436 l 190 771 l 54 715 l 54 468 z m 171 425 l 35 456 l 35 50 b 85 0 35 22 57 0 l 121 0 b 171 50 149 0 171 22 z m 92 1253 b 108 1244 96 1247 101 1244 b 124 1251 114 1244 119 1247 l 272 1400 b 279 1415 276 1404 279 1410 b 275 1428 279 1419 278 1424 l 236 1483 b 218 1493 232 1490 225 1493 b 200 1485 211 1493 204 1490 l 67 1310 b 63 1297 64 1306 63 1301 b 68 1282 63 1292 64 1286 l 92 1253 z "},"ľ":{"ha":400,"x_min":0,"x_max":0,"o":"m 171 783 l 171 1156 b 121 1206 171 1183 149 1206 l 85 1206 b 35 1156 57 1206 35 1183 l 35 728 z m 190 436 l 190 771 l 54 715 l 54 468 z m 171 425 l 35 456 l 35 50 b 85 0 35 22 57 0 l 121 0 b 171 50 149 0 171 22 z m 356 1019 l 356 1164 b 333 1186 356 1176 346 1186 l 236 1186 b 214 1164 224 1186 214 1176 l 214 1024 b 236 1001 214 1011 224 1001 l 272 1001 l 221 868 b 219 860 219 865 219 863 b 242 838 219 847 229 838 l 261 838 b 281 850 269 838 278 843 z "},"ļ":{"ha":218,"x_min":0,"x_max":0,"o":"m 171 783 l 171 1156 b 121 1206 171 1183 149 1206 l 85 1206 b 35 1156 57 1206 35 1183 l 35 728 z m 190 436 l 190 771 l 54 715 l 54 468 z m 171 425 l 35 456 l 35 50 b 85 0 35 22 57 0 l 121 0 b 171 50 149 0 171 22 z m 103 -362 l 178 -204 l 178 -58 b 156 -36 178 -46 168 -36 l 58 -36 b 36 -58 46 -36 36 -46 l 36 -200 b 58 -222 36 -212 46 -222 l 94 -222 l 44 -344 b 43 -353 43 -347 43 -350 b 65 -375 43 -365 51 -375 l 83 -375 b 103 -362 92 -375 100 -371 z "},"ŀ":{"ha":453,"x_min":0,"x_max":0,"o":"m 171 783 l 171 1156 b 121 1206 171 1183 149 1206 l 85 1206 b 35 1156 57 1206 35 1183 l 35 728 z m 190 436 l 190 771 l 54 715 l 54 468 z m 171 425 l 35 456 l 35 50 b 85 0 35 22 57 0 l 121 0 b 171 50 149 0 171 22 z m 243 474 b 328 390 243 428 282 390 b 413 474 375 390 413 428 b 328 560 413 521 375 560 b 243 474 282 560 243 521 z "},"ń":{"ha":403,"x_min":0,"x_max":0,"o":"m 164 696 l 164 789 b 200 847 164 817 165 847 b 229 789 228 847 229 817 l 229 717 l 365 763 l 365 813 b 261 985 365 913 364 985 b 169 918 224 985 188 963 l 164 918 l 154 956 b 133 972 151 965 143 972 l 78 972 b 28 922 50 972 28 950 l 28 650 z m 249 706 l 249 438 l 385 438 l 385 750 z m 183 443 l 183 683 l 47 639 l 47 447 z m 229 429 l 229 50 b 279 0 229 22 251 0 l 315 0 b 365 50 343 0 365 22 l 365 425 z m 114 0 b 164 50 142 0 164 22 l 164 432 l 28 435 l 28 50 b 78 0 28 22 50 0 z m 144 1019 b 161 1011 149 1014 154 1011 b 176 1018 167 1011 172 1014 l 325 1167 b 332 1182 329 1171 332 1176 b 328 1194 332 1186 331 1190 l 289 1250 b 271 1260 285 1257 278 1260 b 253 1251 264 1260 257 1257 l 119 1076 b 115 1064 117 1072 115 1068 b 121 1049 115 1058 117 1053 l 144 1019 z "}}}
